<?xml version="1.0" encoding="UTF-8" standalone="no"?>
<!DOCTYPE svg PUBLIC "-//W3C//DTD SVG 1.1//EN" "http://www.w3.org/Graphics/SVG/1.1/DTD/svg11.dtd">
<svg width="400" height="100" viewBox="0 0 400 100" xmlns="http://www.w3.org/2000/svg">
  <text x="24" y="74" font-family="Lucida Grande" font-size="80" font-weight="bold" fill="none">ConSy<tspan letter-spacing="-5">sT</tspan></text>
  <path fill="#ff884d" d="m 77.75,71.695312 q -8.398438,3.75 -20.039063,3.75 -14.21875,0 -22.148437,-8.007812 -7.929688,-8.007813 -7.929688,-22.34375 0,-14.609375 7.96875,-22.460938 8.007813,-7.890624 22.8125,-7.890624 9.453125,0 18.789063,2.226562 v 9.414062 Q 66.617187,22.671875 59.46875,22.671875 q -9.140625,0 -14.101563,5.820312 -4.960937,5.78125 -4.960937,16.445313 0,10.46875 5.3125,16.328125 5.351562,5.859375 14.84375,5.859375 8.515625,0 17.1875,-4.296875 z" />
  <path fill="#ff884d" d="m 106.22656,74.976562 q -10.03906,0 -15.97656,-6.054687 -5.898438,-6.09375 -5.898438,-16.367188 0,-10.390625 5.9375,-16.40625 5.976563,-6.015625 16.210938,-6.015625 10.27344,0 16.21094,6.015625 5.97656,6.015625 5.97656,16.328125 0,10.546875 -5.97656,16.523438 -5.97656,5.976562 -16.48438,5.976562 z M 106.42188,67.75 q 4.6875,0 7.30468,-4.023438 2.65625,-4.0625 2.65625,-11.25 0,-6.992187 -2.65625,-11.054687 -2.61718,-4.0625 -7.22656,-4.0625 -4.57031,0 -7.226563,4.0625 -2.617187,4.0625 -2.617187,11.132812 0,6.992188 2.617187,11.09375 Q 101.89063,67.75 106.42188,67.75 Z" />
  <path fill="#ff884d" d="M 139.3125,74 V 31.109375 h 11.5625 v 8.085937 q 5.66406,-9.0625 14.60937,-9.0625 5.74219,0 9.0625,3.632813 3.32032,3.632812 3.32032,9.921875 V 74 h -11.5625 V 46.539062 q 0,-7.304687 -4.84375,-7.304687 -5.50782,0 -10.58594,7.773437 V 74 Z" />
  <path fill="#ff884d" d="m 188.60937,73.492187 v -9.921875 q 9.33594,3.90625 15.97657,3.90625 4.64843,0 7.30468,-2.070312 2.69532,-2.070313 2.69532,-5.625 0,-2.8125 -1.67969,-4.726563 -1.67969,-1.953125 -6.36719,-4.609375 l -3.86719,-2.148437 q -7.77343,-4.375 -10.97656,-8.359375 -3.20312,-4.023438 -3.20312,-9.375 0,-7.148438 5.23437,-11.484375 5.27344,-4.335937 13.90625,-4.335937 6.91406,0 15.58594,1.992187 v 9.257812 q -8.86719,-3.320312 -14.02344,-3.320312 -3.98437,0 -6.40625,1.796875 -2.38281,1.757812 -2.38281,4.648437 0,2.382813 1.67969,4.179688 1.67968,1.796875 6.32812,4.414062 l 4.14063,2.304688 q 8.35937,4.6875 11.52343,8.632812 3.16407,3.945313 3.16407,9.609375 0,8.046875 -5.97657,12.617188 -5.97656,4.570312 -16.48437,4.570312 -6.95313,0 -16.17188,-1.953125 z" />
  <path fill="#ff884d" d="M 237.71094,89.429687 247.4375,74 231.53906,31.109375 h 12.42188 l 10.625,28.671875 12.61718,-28.671875 h 8.78907 l -26.48438,58.320312 z" />
  <path fill="#ff884d" d="M 283.0625,72.632812 V 64.15625 Q 291.65625,67.75 297.75,67.75 q 7.10937,0 7.10937,-4.84375 0,-3.125 -5.85937,-5.46875 l -3.90625,-1.5625 q -6.36719,-2.578125 -9.10156,-5.546875 -2.73438,-2.96875 -2.73438,-7.34375 0,-6.09375 4.64844,-9.453125 4.64844,-3.398438 13.00781,-3.398438 5.23438,0 12.46094,1.523438 v 8.125 q -6.95313,-2.421875 -11.52344,-2.421875 -7.1875,0 -7.1875,4.453125 0,2.929687 5.3125,4.960937 l 3.35938,1.289063 q 7.53906,2.851562 10.46875,5.78125 2.96875,2.929687 2.96875,7.539062 0,6.054688 -5.03907,9.84375 -5,3.75 -13.04687,3.75 -7.73438,0 -15.625,-2.34375 z" />
  <path fill="#ff884d" d="M 338.76562,74 V 24.117187 H 318.0625 V 16.1875 h 53.47656 v 7.929687 H 350.83594 V 74 Z" />
</svg>
