<?xml version="1.0" encoding="UTF-8"?>
<!-- Created with Inkscape (http://www.inkscape.org/) -->
<svg width="60mm" height="60mm" version="1.1" viewBox="0 0 60 60" xmlns="http://www.w3.org/2000/svg">
 <g transform="translate(-63.106 -13.835)">
  <path d="m84.98 29.803-3.7905 1.602-2.6572 13.833c-0.13026 0.62523-0.78158 2.9046-1.9539 6.8383-1.1723 3.9077-2.8787 9.5088-5.1191 16.803l3.7124-0.62528 3.3605-19.264c0.15631 1.3286 0.52086 2.3445 1.094 3.0479s1.5239 1.0547 2.8525 1.0547c2.6572 0 5.3408-1.7974 8.0502-5.3924-0.02605 0.18236-0.03927 0.3649-0.03927 0.54725v0.54674c0 1.2505 0.27354 2.2796 0.82062 3.0872 0.57313 0.80759 1.2636 1.2113 2.0712 1.2113 0.57313 0 1.2244-0.29947 1.9539-0.89865 0.36472-0.31261 0.80758-0.75547 1.3286-1.3286 0.54708-0.59918 1.1984-1.3415 1.9539-2.2273l0.39068-0.42995-0.62528-0.54725c-1.7715 1.9278-3.0609 2.8918-3.8685 2.8918-0.46892 0-0.8467-0.26032-1.1333-0.78135-0.28656-0.52103-0.42995-1.1983-0.42995-2.0319 0-1.3286 0.28677-3.0223 0.8599-5.0803l3.4385-12.856-3.8292 1.602-2.5792 14.302c-1.1723 1.9538-2.3707 3.3867-3.5951 4.2984-1.1984 0.9118-2.3576 1.3674-3.4778 1.3674-0.9118 0-1.6155-0.27354-2.1105-0.82062-0.49497-0.54708-0.7553-1.4069-0.78135-2.5792 0-0.46892 0.01322-0.97686 0.03927-1.5239 0.0521-0.54708 0.14311-1.055 0.27337-1.5239zm25.622 0.3514c-1.3286 0-2.5921 0.32592-3.7905 0.9772-1.1984 0.62523-2.1619 1.4586-2.8913 2.5006-0.70339 1.0421-1.0552 2.1754-1.0552 3.3998 0 0.93785 0.26033 1.7717 0.78135 2.5011 0.54708 0.70338 1.5894 1.6801 3.1264 2.9306 1.6673 1.3547 2.7223 2.3187 3.1652 2.8918 0.44286 0.57313 0.66404 1.2636 0.66404 2.0712 0 1.1202-0.46879 2.1102-1.4066 2.9698-0.9118 0.83364-2.0187 1.2506-3.3212 1.2506-2.5009 0-4.3247-1.355-5.471-4.0644l-2.1885 2.5792c1.5891 2.1362 3.5431 3.2045 5.8617 3.2045 1.4589 0 2.8398-0.35185 4.1424-1.0552 1.3286-0.70338 2.3704-1.641 3.1259-2.8133 0.78153-1.1984 1.1725-2.4751 1.1725-3.8297 0-1.8236-1.1074-3.6082-3.3218-5.3537l-2.2665-1.8366c-1.3547-1.0681-2.0319-2.1491-2.0319-3.2432 0-0.88574 0.391-1.6672 1.1725-2.3446 0.80759-0.70338 1.7452-1.0552 2.8133-1.0552 1.1984 0 2.1756 0.35185 2.9311 1.0552 0.78154 0.67733 1.2503 1.6281 1.4066 2.8525 1.016-0.44287 1.5239-1.2635 1.5239-2.4619 0-0.9118-0.4037-1.6541-1.2113-2.2273-0.78154-0.59918-1.7588-0.89917-2.9311-0.89917z" fill="#0d98ba" stroke-width=".26458"/>
  <path d="m92.241 57.174c-0.12862 0-0.24638 0.02003-0.35295 0.06046-0.10289 0.04042-0.19109 0.09755-0.26458 0.17105-0.0735 0.0735-0.13011 0.16169-0.17053 0.26458-0.04042 0.09922-0.06098 0.20946-0.06098 0.33073 0 0.12127 0.02056 0.233 0.06098 0.3359 0.04042 0.09922 0.09704 0.18742 0.17053 0.26458 0.0735 0.0735 0.16169 0.13063 0.26458 0.17105 0.10657 0.04042 0.22433 0.06046 0.35295 0.06046s0.24437-0.02003 0.34727-0.06046c0.10657-0.04042 0.19677-0.09755 0.27027-0.17105 0.0735-0.07717 0.13011-0.16536 0.17053-0.26458 0.04042-0.10289 0.06098-0.21463 0.06098-0.3359 0-0.12127-0.02056-0.23151-0.06098-0.33073-0.04042-0.10289-0.09704-0.19109-0.17053-0.26458-0.0735-0.0735-0.1637-0.13063-0.27027-0.17105-0.10289-0.04042-0.21865-0.06046-0.34727-0.06046zm-6.3061 2.2598c-0.29766 0-0.56224 0.05862-0.79375 0.17622-0.22784 0.11392-0.42426 0.27578-0.58963 0.48524l-0.04393-0.55139h-1.4609v5.9645h1.5601v-4.3326c0.0735-0.13597 0.16169-0.24271 0.26458-0.31988 0.10657-0.07717 0.23134-0.11576 0.37465-0.11576 0.09922 0 0.18741 0.01452 0.26458 0.04392 0.08084 0.02572 0.14699 0.07533 0.19844 0.14883 0.05513 0.0735 0.09572 0.17472 0.12144 0.30334 0.0294 0.12494 0.04393 0.2868 0.04393 0.48524v3.7868h1.5601v-3.9744c0-0.0441-2e-3 -0.08819-0.0057-0.13229 1e-6 -0.0441-2e-3 -0.08619-0.0057-0.12661 0.06615-0.16536 0.15285-0.29616 0.25942-0.39171 0.10657-0.09554 0.23685-0.14314 0.39119-0.14314 0.09922 0 0.18741 0.01452 0.26458 0.04392 0.07717 0.02572 0.14332 0.07533 0.19844 0.14883 0.05512 0.06982 0.09571 0.16755 0.12144 0.29249 0.0294 0.12494 0.04392 0.28629 0.04392 0.48472v3.7982h1.5601v-3.7925c0-0.41893-0.03858-0.77371-0.11576-1.064-0.07717-0.29031-0.18592-0.52532-0.32556-0.70538-0.13964-0.18006-0.30851-0.31035-0.50695-0.39119-0.19476-0.08085-0.41324-0.12144-0.65577-0.12144-0.33073 0-0.61736 0.07166-0.8599 0.21497-0.23886 0.13964-0.43931 0.33607-0.601 0.58963-0.12862-0.27928-0.303-0.48323-0.52348-0.61185-0.21681-0.12862-0.46336-0.19275-0.73897-0.19275zm5.5619 0.11007v6.2839c0 0.26826-0.0441 0.46319-0.13229 0.58446-0.08819 0.12494-0.22048 0.18758-0.39688 0.18758-0.06247 0-0.12661-0.0055-0.19275-0.01654-0.06982-0.0074-0.14349-0.01836-0.22066-0.03307l0.0057 1.2733c0.12127 0.03307 0.23852 0.05661 0.35243 0.07131 0.11392 0.01471 0.23168 0.02223 0.35295 0.02223 0.57326 0 1.0162-0.1784 1.3286-0.53485 0.31236-0.35645 0.46819-0.87459 0.46819-1.5544v-6.2839zm2.6624 0v3.8587c0 0.3932 0.04059 0.73145 0.12144 1.0144 0.08085 0.27928 0.19459 0.50878 0.34158 0.68885 0.14699 0.17639 0.32137 0.30667 0.52348 0.39119 0.20579 0.08085 0.43379 0.12144 0.68368 0.12144 0.28296 0 0.531-0.05713 0.74414-0.17105 0.21681-0.11392 0.40222-0.27526 0.55656-0.48472l0.04444 0.5457h1.4661v-5.9645h-1.571v4.3108c-0.07349 0.14332-0.17271 0.25706-0.29766 0.34158-0.12494 0.08084-0.28278 0.12144-0.47387 0.12144-0.17271 0-0.31253-0.06816-0.4191-0.20412-0.10657-0.13964-0.15968-0.37316-0.15968-0.70022v-3.8695zm8.5437 0v1.3012h2.249l-2.3037 3.6876v0.97565h4.2111v-1.2955h-2.359l2.326-3.7264v-0.94258zm-2.8882 0.11059 0.4961 1.5596h0.57877l0.4961-1.5596zm0.4961 4.2938-0.4961 1.5601h1.571l-0.4961-1.5601z" fill="#0d98ba" stroke-width=".26458"/>
  <g transform="scale(1.0239 .97662)" stroke-width=".2584" aria-label="[]">
   <path d="m80.667 58.971h-0.93871v10.126h0.93871v0.92054h-2.0107v-11.967h2.0107z"/>
   <path d="m104.93 58.05h2.0167v11.967h-2.0167v-0.92054h0.95083v-10.126h-0.95083z"/>
  </g>
  <path d="m81.607 28.741c5.4334-2.0032 18.1-5.484 32.976-1.8609l-1.5522-7.8581c-8.2856 6.2356-16.598 1.711-31.291 8.9958z" stroke="#000" stroke-width=".26458px"/>
 </g>
</svg>
