<svg version="1.1" xmlns="http://www.w3.org/2000/svg" width="175.000000" height="50.000000" viewBox="-30.500000 -25.000000 175.000000 50.000000">
<mask id="outer_hub"><rect width="175" height="50" x="-87.5" y="-25.0" stroke="0" fill="white"/><circle stroke="0" fill="black" cx="0" cy="0" r="7.5"/></mask>
<circle stroke="0" fill="#186643" cx="0" cy="0" r="5.5"/>
<g><path fill="#186643" stroke="0" mask="url(#outer_hub)" d="M -13.749999999999995 -23.815698604072065L -10.141714424100188 -7.644865562711956L -2.105831093635482 -1.6930104654200662L -4.4083893921935475 -6.067627457812106L -3.0505248230685003 -6.851590932319508Z"/><path fill="#186643" stroke="0" mask="url(#outer_hub)" d="M 13.749999999999996 23.815698604072065L 10.14171442410019 7.644865562711956L 2.1058310936354836 1.6930104654200662L 4.4083893921935475 6.067627457812106L 3.0505248230685016 6.851590932319507Z"/><path fill="#186643" stroke="0" mask="url(#outer_hub)" d="M -13.750000000000005 23.815698604072058L -1.5497905737752755 12.60541511055381L -0.41327452510895135 2.6702084558775283L -3.050524823068504 6.851590932319506L -4.408389392193551 6.0676274578121046Z"/></g>
<g transform="rotate(60)"><path fill="#999999" stroke="0" mask="url(#outer_hub)" d="M -13.749999999999995 -23.815698604072065L -10.141714424100188 -7.644865562711956L -2.105831093635482 -1.6930104654200662L -4.4083893921935475 -6.067627457812106L -3.0505248230685003 -6.851590932319508Z"/><path fill="#999999" stroke="0" mask="url(#outer_hub)" d="M 13.750000000000004 -23.81569860407206L 1.5497905737752746 -12.605415110553807L 0.41327452510895135 -2.6702084558775248L 3.050524823068503 -6.851590932319507L 4.408389392193549 -6.067627457812105Z"/><path fill="#999999" stroke="0" mask="url(#outer_hub)" d="M -13.750000000000005 23.815698604072058L -1.5497905737752755 12.60541511055381L -0.41327452510895135 2.6702084558775283L -3.050524823068504 6.851590932319506L -4.408389392193551 6.0676274578121046Z"/></g>
<g transform="scale(0.2) translate(200 -75)"><g id="svgGroup" stroke-linecap="round" fill-rule="nonzero" font-size="9pt" stroke="#000" stroke-width="0" fill="#333" style="stroke:#000;stroke-width:0;fill:#333"><path d="M 40.82 135.156 L 0.977 135.156 L 0.586 128.906 L 11.719 126.367 Q 11.907 125.613 12.005 123.674 A 51.788 51.788 0 0 0 12.012 123.535 Q 12.109 121.484 12.207 115.918 Q 12.282 111.656 12.299 104.131 A 2115.688 2115.688 0 0 0 12.305 99.219 L 12.5 55.664 Q 12.5 47.44 12.386 42.364 A 205.648 205.648 0 0 0 12.305 39.551 A 1717.662 1717.662 0 0 0 12.218 37.221 Q 12.117 34.542 12.05 33.038 A 161.156 161.156 0 0 0 12.012 32.227 A 34.477 34.477 0 0 0 11.972 31.549 Q 11.877 30.2 11.719 29.883 L 0 26.758 L 0.391 20.508 L 38.086 20.508 A 56.396 56.396 0 0 1 49.487 21.593 Q 56.557 23.053 62.025 26.476 A 32.545 32.545 0 0 1 65.527 29.004 A 27.592 27.592 0 0 1 75.14 45.868 A 41.332 41.332 0 0 1 75.781 53.32 A 35.864 35.864 0 0 1 74.638 62.571 A 28.402 28.402 0 0 1 70.215 71.973 A 36.333 36.333 0 0 1 55.859 83.789 A 43.355 43.355 0 0 1 37.305 87.891 A 85.115 85.115 0 0 1 32.642 87.769 A 63.898 63.898 0 0 1 28.418 87.402 A 159.516 159.516 0 0 1 24.585 86.89 A 121.947 121.947 0 0 1 21.094 86.328 L 21.094 77.344 A 120.023 120.023 0 0 0 24.512 78.18 Q 26.044 78.529 27.386 78.784 A 51.319 51.319 0 0 0 29.883 79.199 A 51.979 51.979 0 0 0 34.125 79.619 A 42.934 42.934 0 0 0 36.523 79.688 A 44.544 44.544 0 0 0 44.316 79.048 Q 51.418 77.785 56.152 74.023 Q 62.272 69.161 63.138 59.118 A 40.209 40.209 0 0 0 63.281 55.664 A 42.289 42.289 0 0 0 62.61 47.861 Q 61.79 43.501 59.969 40.13 A 19.752 19.752 0 0 0 55.664 34.668 A 26.697 26.697 0 0 0 38.631 27.963 A 34.41 34.41 0 0 0 37.109 27.93 L 24.414 27.93 A 55.385 55.385 0 0 1 24.411 28.482 Q 24.396 29.926 24.316 33.496 A 1349.563 1349.563 0 0 0 24.243 37.012 Q 24.213 38.568 24.182 40.277 A 2443.826 2443.826 0 0 0 24.121 43.848 A 720.922 720.922 0 0 0 24.023 55.664 L 24.219 99.219 A 2074.334 2074.334 0 0 0 24.225 104.425 Q 24.243 111.694 24.316 115.723 A 285.9 285.9 0 0 0 24.368 118.053 Q 24.444 120.936 24.559 122.459 A 24.452 24.452 0 0 0 24.609 123.047 Q 24.759 124.542 24.794 125.465 A 13.589 13.589 0 0 1 24.805 125.977 L 41.211 128.516 L 40.82 135.156 Z M 425.195 88.672 L 425.195 91.602 L 363.672 91.602 L 363.672 83.789 L 415.43 83.789 L 413.672 85.352 L 413.672 82.422 A 43.043 43.043 0 0 0 413.111 75.235 Q 412.46 71.397 411.053 68.328 A 20.161 20.161 0 0 0 408.203 63.77 A 17.858 17.858 0 0 0 396.48 57.457 A 25.876 25.876 0 0 0 392.969 57.227 Q 387.109 57.227 381.543 60.742 Q 375.977 64.258 372.363 71.289 Q 369.368 77.119 368.856 85.499 A 58.459 58.459 0 0 0 368.75 89.063 L 368.75 90.625 Q 368.75 107.813 376.953 117.09 A 26.297 26.297 0 0 0 396.087 126.33 A 32.625 32.625 0 0 0 397.656 126.367 A 31.276 31.276 0 0 0 404.245 125.703 A 24.352 24.352 0 0 0 410.352 123.535 A 26.747 26.747 0 0 0 415.674 119.849 Q 417.857 117.933 419.937 115.409 A 47.371 47.371 0 0 0 420.703 114.453 L 425.195 118.359 A 44.827 44.827 0 0 1 419.98 125.628 A 32.762 32.762 0 0 1 412.012 132.227 A 33.364 33.364 0 0 1 396.211 136.691 A 39.882 39.882 0 0 1 394.727 136.719 A 40.225 40.225 0 0 1 378.322 133.375 A 39.111 39.111 0 0 1 375.391 131.934 A 35.331 35.331 0 0 1 362.001 119.013 A 42.366 42.366 0 0 1 361.328 117.871 Q 356.199 108.847 356.059 96.036 A 66.078 66.078 0 0 1 356.055 95.312 A 61.62 61.62 0 0 1 357.064 83.87 A 44.137 44.137 0 0 1 361.426 71.191 A 42.427 42.427 0 0 1 368.535 61.373 A 36.571 36.571 0 0 1 375.586 55.762 A 34.356 34.356 0 0 1 393.82 50.579 A 36.979 36.979 0 0 1 394.531 50.586 Q 408.594 50.781 416.895 60.156 A 29.041 29.041 0 0 1 422.421 69.804 Q 423.979 74.185 424.662 79.595 A 72.599 72.599 0 0 1 425.195 88.672 Z M 291.016 178.125 L 251.953 178.125 L 251.563 172.07 L 263.672 169.336 A 27.728 27.728 0 0 1 263.678 168.787 Q 263.691 168.157 263.729 167.268 A 130.665 130.665 0 0 1 263.77 166.406 A 136.474 136.474 0 0 0 263.818 165.338 Q 263.892 163.599 263.965 161.035 A 669.48 669.48 0 0 0 264.038 158.252 Q 264.069 157.001 264.099 155.597 A 1392.59 1392.59 0 0 0 264.16 152.637 A 449.36 449.36 0 0 0 264.22 148.613 Q 264.258 145.02 264.258 140.625 L 264.648 87.891 A 169.169 169.169 0 0 0 264.458 80.017 A 203.557 203.557 0 0 0 264.16 75 A 381.329 381.329 0 0 0 263.922 71.838 Q 263.611 67.94 263.344 65.888 A 37.396 37.396 0 0 0 263.281 65.43 L 250.781 62.695 L 250.781 57.227 L 272.852 50.977 L 275.195 53.711 L 274.414 64.063 L 275 64.063 Q 280.18 57.847 285.741 54.607 A 28.956 28.956 0 0 1 287.207 53.809 Q 293.555 50.586 300.977 50.586 A 40.027 40.027 0 0 1 311.328 51.871 A 32.241 32.241 0 0 1 320.898 56.152 Q 329.297 61.719 333.887 71.191 A 46.302 46.302 0 0 1 338.341 88.287 A 55.363 55.363 0 0 1 338.477 92.188 A 50.378 50.378 0 0 1 336.945 104.852 A 41.305 41.305 0 0 1 332.715 115.234 Q 326.953 125.195 317.188 130.859 A 42.055 42.055 0 0 1 295.703 136.523 A 56.971 56.971 0 0 1 287.225 135.868 A 65.462 65.462 0 0 1 284.766 135.449 A 64.784 64.784 0 0 1 279.078 134.115 A 49.539 49.539 0 0 1 274.609 132.617 L 274.609 148.438 Q 274.609 155.601 274.844 160.263 A 110.098 110.098 0 0 0 274.902 161.328 A 5342.645 5342.645 0 0 0 275.043 163.66 Q 275.244 166.992 275.391 169.336 L 291.406 171.484 L 291.016 178.125 Z M 274.609 73.438 L 274.609 122.07 A 30.614 30.614 0 0 0 281.256 125.943 A 37.446 37.446 0 0 0 284.766 127.246 Q 290.625 129.102 296.68 129.102 Q 305.273 129.102 311.816 124.902 A 28.107 28.107 0 0 0 320.644 115.758 A 34.76 34.76 0 0 0 322.168 112.988 A 37.331 37.331 0 0 0 325.309 103.413 A 51.417 51.417 0 0 0 326.172 94.727 A 44.532 44.532 0 0 0 326.182 93.759 A 39.055 39.055 0 0 0 322.949 77.93 A 33.364 33.364 0 0 0 317.078 68.754 A 30.609 30.609 0 0 0 313.281 65.234 A 22.999 22.999 0 0 0 299.156 60.356 A 28.549 28.549 0 0 0 298.633 60.352 A 27.145 27.145 0 0 0 289.737 61.782 A 24.965 24.965 0 0 0 285.547 63.672 A 33.355 33.355 0 0 0 279.202 68.396 A 45.337 45.337 0 0 0 274.609 73.437 Z M 476.172 135.156 L 439.844 135.156 L 439.453 128.906 L 452.148 126.367 Q 452.521 124.13 452.627 120.471 A 89.492 89.492 0 0 0 452.637 120.117 A 468.193 468.193 0 0 0 452.686 117.938 Q 452.759 114.331 452.832 108.691 Q 452.907 102.934 452.924 94.029 A 2926.645 2926.645 0 0 0 452.93 88.281 L 452.93 64.063 A 1312.037 1312.037 0 0 0 452.875 52.252 A 1490.951 1490.951 0 0 0 452.832 48.145 A 12297.196 12297.196 0 0 0 452.734 40.063 A 10398.169 10398.169 0 0 0 452.637 32.422 A 3023.08 3023.08 0 0 0 452.588 28.864 Q 452.517 23.92 452.446 20.262 A 1055.306 1055.306 0 0 0 452.441 20.02 A 2526.502 2526.502 0 0 1 452.408 18.299 Q 452.355 15.504 452.346 14.575 A 33.036 33.036 0 0 1 452.344 14.258 L 437.891 12.305 L 437.5 7.227 L 460.938 0 L 463.867 2.344 A 61087.441 61087.441 0 0 1 463.477 19.043 A 1147.823 1147.823 0 0 0 463.306 27.808 A 1551.935 1551.935 0 0 0 463.184 37.5 A 1885.684 1885.684 0 0 0 463.124 45.639 Q 463.105 49.248 463.095 53.219 A 3462.97 3462.97 0 0 0 463.086 61.523 L 462.891 94.336 A 512.159 512.159 0 0 0 462.988 104.517 A 409.902 409.902 0 0 0 463.281 113.965 A 2495.135 2495.135 0 0 0 463.454 117.906 Q 463.656 122.438 463.791 124.99 A 237.013 237.013 0 0 0 463.867 126.367 L 476.563 128.906 L 476.172 135.156 Z M 133.008 135.156 L 92.969 135.156 L 92.578 129.102 L 104.688 126.367 A 13.329 13.329 0 0 0 104.779 125.702 Q 104.907 124.585 104.98 122.754 A 203.08 203.08 0 0 0 105.029 121.411 Q 105.08 119.901 105.13 117.871 A 758.016 758.016 0 0 0 105.176 115.918 Q 105.269 111.742 105.273 105.539 A 881.336 881.336 0 0 0 105.273 104.883 L 105.273 89.258 A 204.385 204.385 0 0 0 104.785 75.293 A 398.535 398.535 0 0 0 104.554 72.098 Q 104.254 68.175 103.994 66.091 A 37.361 37.361 0 0 0 103.906 65.43 L 91.406 62.695 L 91.406 57.227 L 113.672 50.977 L 115.43 53.32 L 114.453 70.117 L 115.039 70.313 A 80.606 80.606 0 0 1 118.539 64.425 Q 122.29 58.729 125.969 55.79 A 18.945 18.945 0 0 1 127.344 54.785 A 31.797 31.797 0 0 1 131.013 52.674 Q 133.03 51.698 134.899 51.225 A 13.785 13.785 0 0 1 138.281 50.781 A 15.429 15.429 0 0 1 141.155 51.033 Q 142.85 51.355 144.196 52.086 A 8.615 8.615 0 0 1 145.215 52.734 A 6.26 6.26 0 0 1 147.805 57.297 A 8.607 8.607 0 0 1 147.852 58.203 Q 147.852 61.914 145.117 63.867 A 9.835 9.835 0 0 1 141.887 65.347 Q 140.102 65.82 137.891 65.82 A 13.383 13.383 0 0 1 131.836 64.355 A 19.838 19.838 0 0 1 127.753 61.665 A 18.006 18.006 0 0 1 126.758 60.742 L 129.102 62.305 A 26.526 26.526 0 0 0 125.701 65.102 Q 124.219 66.529 122.753 68.307 A 47.679 47.679 0 0 0 121.777 69.531 A 45.872 45.872 0 0 0 118.709 74.081 Q 117.275 76.492 115.928 79.319 A 80.279 80.279 0 0 0 115.039 81.25 L 115.234 100.781 A 747.421 747.421 0 0 1 115.424 104.795 Q 115.518 106.911 115.612 109.257 A 1211.641 1211.641 0 0 1 115.625 109.57 A 3765.75 3765.75 0 0 0 115.967 117.891 A 3429.507 3429.507 0 0 0 116.016 119.043 A 457.806 457.806 0 0 0 116.113 121.222 Q 116.26 124.316 116.406 126.367 L 133.398 128.711 L 133.008 135.156 Z M 185.91 135.394 A 37.384 37.384 0 0 1 175.781 131.25 Q 166.602 125.781 161.621 115.918 A 46.184 46.184 0 0 1 157.127 101.017 A 58.587 58.587 0 0 1 156.641 93.359 A 49.845 49.845 0 0 1 158.002 81.467 A 39.962 39.962 0 0 1 162.109 71.094 A 40.142 40.142 0 0 1 176.953 56.055 A 40.476 40.476 0 0 1 196.776 50.598 A 47.939 47.939 0 0 1 197.852 50.586 A 43.855 43.855 0 0 1 208.151 51.745 A 34.438 34.438 0 0 1 218.164 55.859 A 35.521 35.521 0 0 1 231.163 69.962 A 42.48 42.48 0 0 1 231.543 70.703 A 44.318 44.318 0 0 1 235.538 83.238 A 59.742 59.742 0 0 1 236.328 93.164 Q 236.328 105.273 231.152 115.137 Q 225.977 125 217.09 130.859 Q 208.203 136.719 197.266 136.719 A 46.703 46.703 0 0 1 185.91 135.394 Z M 199.023 129.102 A 20.351 20.351 0 0 0 212.012 124.707 A 27.411 27.411 0 0 0 218.434 117.347 A 35.67 35.67 0 0 0 220.801 112.695 A 40.527 40.527 0 0 0 223.643 101.857 A 51.379 51.379 0 0 0 224.023 95.508 A 60.925 60.925 0 0 0 223.027 84.152 Q 221.778 77.573 218.964 72.342 A 33.672 33.672 0 0 0 216.309 68.164 A 26.641 26.641 0 0 0 209.024 61.319 Q 203.413 57.84 196.207 57.813 A 30.115 30.115 0 0 0 196.094 57.812 A 24.734 24.734 0 0 0 185.606 59.989 Q 180.585 62.306 176.758 67.09 A 32.234 32.234 0 0 0 170.808 79.275 Q 169.612 83.866 169.388 89.263 A 61.045 61.045 0 0 0 169.336 91.797 A 56.836 56.836 0 0 0 170.118 101.461 A 41.243 41.243 0 0 0 173.145 111.523 A 33.917 33.917 0 0 0 177.83 119.147 A 28.02 28.02 0 0 0 183.691 124.512 A 26.54 26.54 0 0 0 198.755 129.1 A 32.024 32.024 0 0 0 199.023 129.102 Z" vector-effect="non-scaling-stroke"/></g></g>
</svg>
