<?xml version="1.0" encoding="UTF-8"?>
<!-- Created with Inkscape (http://www.inkscape.org/) -->
<svg width="407.55" height="300" version="1.1" viewBox="0 -40.68 407.55 300" xmlns="http://www.w3.org/2000/svg" xmlns:xlink="http://www.w3.org/1999/xlink">
 <path transform="matrix(.00010499 0 0 .00010499 5.3333 5.3333)" d="m1.89e6 0c217462 0 409190 110180 522406 277761l7716 14216 14401-17454c114008-114008 271508-184523 445477-184523 347939 0 6.3e5 282061 6.3e5 6.3e5l-10499 104154 3098 1682c167581 113216 277761 304944 277761 522406 0 347939-282061 6.3e5 -6.3e5 6.3e5l-360-36-13885 1794h-2497147l-8968 904c-347939 0-6.3e5 -282061-6.3e5 -6.3e5s282061-6.3e5 6.3e5 -6.3e5l8892 896 251-2491c41960-205057 223395-359309 440857-359309 62132 0 121323 12592 175160 35363l43699 23719 10650-34306c95639-226117 319537-384776 580491-384776z" fill="#fff" stroke="#22a883" stroke-miterlimit="8" stroke-width="101603"/>
 <g fill="none" stroke-linecap="round" stroke-miterlimit="8">
  <path transform="matrix(-.00010499 0 0 .00010499 384.68 32.988)" d="m0 0 7.2e5 478800" stroke="#fff" stroke-width="254000"/>
  <path transform="matrix(.00010499 0 0 .00010499 284.15 45.279)" d="m0 0 237600 3.6e5" stroke="#22a883" stroke-width="127000"/>
  <path transform="matrix(-.00010499 0 0 .00010499 384.68 32.807)" d="m0 0 7.2e5 478800" stroke="#22a883" stroke-width="127000"/>
 </g>
 <path transform="matrix(.32 0 0 .32 57.092 193.48)" d="m16.108 4.8828e-4 56.201-268.46h112.06c19.434 0 33.997 2.2339 43.701 6.6894 9.6924 4.4678 17.725 12.097 24.072 22.9 6.3476 10.815 9.5215 22.925 9.5215 36.328 0 11.133-2.2705 22.449-6.7871 33.936-4.5288 11.462-10.242 20.923-17.139 28.369-6.8726 7.4219-13.855 13.037-20.947 16.846-7.0679 3.7842-14.636 6.5796-22.705 8.3984-17.224 4.0405-34.619 6.0547-52.197 6.0547h-67.188l-22.705 108.94zm64.99-139.36h59.18c22.949 0 39.795-2.4658 50.537-7.4219 10.742-4.9438 19.336-12.476 25.781-22.607 6.4697-10.12 9.7168-20.862 9.7168-32.227 0-8.7891-1.709-15.942-5.127-21.484-3.418-5.5664-8.2398-9.6436-14.453-12.256-6.2256-2.6367-18.188-3.9551-35.889-3.9551h-68.848zm181.36 139.36 40.674-194.48h29.297l-8.252 39.746c9.9854-15.002 19.775-26.099 29.346-33.301 9.5947-7.2266 19.409-10.84 29.443-10.84 6.5674 0 14.673 2.3926 24.316 7.1777l-13.525 30.762c-5.7373-4.1626-12.012-6.25-18.848-6.25-11.621 0-23.535 6.4819-35.742 19.434-12.207 12.927-21.777 36.169-28.711 69.727l-16.504 78.027zm131.01-73.779c0-37.988 11.157-69.434 33.496-94.336 18.457-20.508 42.627-30.762 72.51-30.762 23.438 0 42.334 7.3242 56.689 21.973s21.533 34.424 21.533 59.326c0 22.363-4.5288 43.164-13.574 62.402-9.021 19.214-21.863 33.936-38.525 44.189-16.675 10.254-34.216 15.381-52.637 15.381-15.137 0-28.906-3.2471-41.309-9.7168-12.402-6.4697-21.875-15.625-28.418-27.441-6.5186-11.841-9.7656-25.513-9.7656-41.016zm33.154-3.3203c0 18.335 4.3945 32.227 13.184 41.699 8.7891 9.4482 19.946 14.16 33.496 14.16 7.0923 0 14.111-1.4282 21.045-4.2969 6.958-2.8564 13.44-7.2266 19.434-13.086 5.9814-5.8594 11.084-12.549 15.283-20.068s7.5806-15.601 10.156-24.268c3.772-12.073 5.6641-23.657 5.6641-34.766 0-17.578-4.4312-31.213-13.281-40.918-8.8257-9.729-19.958-14.6-33.398-14.6-10.388 0-19.861 2.478-28.418 7.4219-8.5327 4.956-16.248 12.195-23.145 21.729-6.8726 9.5093-11.938 20.581-15.186 33.203-3.2227 12.634-4.834 23.901-4.834 33.789z" fill="#22a883" aria-label="Pro"/>
 <path transform="matrix(.32 0 0 .32 243.76 193.48)" d="m97.215 4.8828e-4v-236.77h-88.428v-31.689h212.79v31.689h-88.818v236.77zm166.91 0v-268.46h35.547v268.46z" fill="#22a883" aria-label="TI"/>
</svg>
