<?xml version="1.0" encoding="UTF-8" standalone="no"?>
<!DOCTYPE svg PUBLIC "-//W3C//DTD SVG 1.1//EN" "http://www.w3.org/Graphics/SVG/1.1/DTD/svg11.dtd">
<svg width="160" height="67" viewBox="0 0 160 67" xmlns="http://www.w3.org/2000/svg">
  <text x="55.4" y="49.3" font-family="Exo 2" font-size="27.4" font-weight="bold" letter-spacing="-0.4" fill="none">REScala</text>
  <path fill="#3c366b" d="M 45.3326,29.935497 H 34.1953 V 9.991897 C 34.1953,7.772357 32.3927,5.971 30.1717,5.971 H 9.02361 C 6.80258,5.971 5,7.772357 5,9.991897 v 20.7478 c 0,2.2196 1.80258,4.0209 4.02361,4.0209 H 29.367 v 10.0362 h -8.0794 c -2.2211,0 -4.0236,1.8013 -4.0236,4.0209 v 8.6851 c 0,2.2196 1.8025,4.0209 4.0236,4.0209 h 8.8841 c 2.221,0 4.0236,-1.8013 4.0236,-4.0209 v -7.8809 h 11.1051 c 2.2211,0 4.0236,-1.8014 4.0236,-4.0209 v -11.6446 c 0.0322,-2.2195 -1.8025,-4.0209 -3.9914,-4.0209 z M 9.82833,10.796077 H 29.367 v 19.13942 H 9.82833 Z M 29.367,56.698597 h -7.2747 v -7.0767 h 7.2747 z m 15.1609,-11.9018 H 34.2275 v -10.0362 h 10.3004 z" />
  <path fill="#3c366b" d="m 64.7105,30.000297 c 1.6738,0 3.0257,0.1608 4.0558,0.5147 1.03,0.3538 1.8025,0.9328 2.2854,1.737 0.4828,0.8042 0.7403,1.9622 0.7403,3.4097 0,0.8685 -0.1287,1.6727 -0.3541,2.3161 -0.2253,0.6755 -0.6115,1.2223 -1.1588,1.6083 -0.5472,0.4182 -1.2553,0.6755 -2.1888,0.772 v 0.1287 c 0.3219,0.0643 0.676,0.193 1.03,0.386 0.3541,0.193 0.7082,0.5147 0.9979,0.9007 0.3219,0.386 0.5472,0.9328 0.676,1.5762 l 1.6416,5.9187 h -4.4421 l -1.4485,-5.7901 c -0.1609,-0.6111 -0.4184,-1.0615 -0.7403,-1.2866 -0.3219,-0.2252 -0.7725,-0.3539 -1.3519,-0.3539 -1.2554,0 -2.2854,0 -3.1545,0 -0.8691,0 -1.5773,-0.0321 -2.1567,-0.0321 -0.5794,-0.0322 -1.0944,-0.0322 -1.5451,-0.0644 l 0.0966,-3.0559 h 6.8562 c 0.7404,0 1.3198,-0.0643 1.7382,-0.2251 0.4185,-0.1609 0.7404,-0.4504 0.9013,-0.8364 0.161,-0.4181 0.2575,-0.965 0.2575,-1.6727 0,-0.7398 -0.0965,-1.2867 -0.2575,-1.7048 -0.1609,-0.386 -0.4828,-0.6755 -0.9013,-0.8364 -0.4184,-0.1608 -1.03,-0.2251 -1.7382,-0.2251 -1.7382,0 -3.1867,0 -4.3777,0.0321 -1.1909,0.0322 -2.0279,0.0322 -2.4463,0.0965 l -0.4185,-2.9915 c 0.7726,-0.0965 1.5129,-0.1609 2.1889,-0.193 0.6759,-0.0322 1.4163,-0.0644 2.221,-0.0644 0.8691,-0.0643 1.8348,-0.0643 2.9936,-0.0643 z m -3.1867,0.2895 v 19.0108 h -4.1524 v -19.0108 z" />
  <path fill="#3c366b" d="m 78.5516,30.193697 c 1.03,0 2.0601,0 3.1223,0 1.0622,0 2.0601,0.0321 3.0901,0.0643 0.9979,0.0322 1.9636,0.0965 2.8326,0.193 l -0.1931,3.0559 h -7.3069 c -0.4506,0 -0.8047,0.1286 -1.03,0.3538 -0.2253,0.2252 -0.3541,0.579 -0.3541,1.0615 v 9.6823 c 0,0.4504 0.1288,0.8042 0.3541,1.0616 0.2253,0.2251 0.5794,0.3538 1.03,0.3538 h 7.3069 l 0.1931,3.0559 c -0.869,0.0643 -1.8347,0.1287 -2.8326,0.193 -0.9978,0.0322 -2.0279,0.0643 -3.0901,0.0965 -1.0622,0 -2.0923,0 -3.1223,0 -1.2232,0 -2.1889,-0.3539 -2.9292,-1.0615 -0.7403,-0.7077 -1.1266,-1.6406 -1.1266,-2.7664 v -11.5159 c 0,-1.158 0.3863,-2.0908 1.1266,-2.7663 0.7403,-0.7077 1.7382,-1.0615 2.9292,-1.0615 z m -3.5408,7.7201 h 11.3949 v 2.9594 H 75.0108 Z" />
  <path fill="#3c366b" d="m 96.3199,29.935797 c 0.9335,0 1.9635,0.0644 3.058,0.1609 1.0944,0.0965 2.1888,0.3217 3.2189,0.6112 l -0.2898,2.7663 c -0.8047,-0.0321 -1.7703,-0.0321 -2.8326,-0.0643 -1.0944,-0.0322 -2.1566,-0.0322 -3.1867,-0.0322 -0.515,0 -0.9656,0 -1.3197,0.0322 -0.3541,0.0322 -0.6438,0.0965 -0.8691,0.2252 -0.2253,0.1286 -0.3863,0.2895 -0.4828,0.5468 -0.0966,0.2252 -0.1288,0.579 -0.1288,0.9972 0,0.6433 0.1609,1.1258 0.4506,1.4154 0.2897,0.2895 0.837,0.5468 1.5451,0.8041 l 3.6695,1.1902 c 1.5129,0.5147 2.5751,1.2224 3.1545,2.0909 0.5794,0.8685 0.8691,2.0265 0.8691,3.474 0,1.0937 -0.1287,1.9944 -0.3862,2.7021 -0.2575,0.7077 -0.676,1.2867 -1.2232,1.6727 -0.5472,0.4182 -1.2875,0.7077 -2.1888,0.8685 -0.9013,0.1608 -1.9958,0.2573 -3.3155,0.2573 -0.6116,0 -1.5129,-0.0321 -2.6717,-0.1286 -1.1588,-0.0965 -2.4785,-0.2895 -3.9592,-0.6112 l 0.2897,-2.9594 c 1.0944,0.0322 2.0279,0.0322 2.8326,0.0643 0.8047,0.0322 1.4807,0.0322 2.0601,0.0644 0.5794,0 1.0622,0 1.4807,0 0.7403,0 1.3197,-0.0322 1.7382,-0.1287 0.4184,-0.0965 0.7082,-0.2895 0.8691,-0.5468 0.1609,-0.2895 0.2575,-0.6755 0.2575,-1.1902 0,-0.4504 -0.0644,-0.8042 -0.1931,-1.0615 -0.1288,-0.2574 -0.3219,-0.4826 -0.5794,-0.6434 -0.2575,-0.1608 -0.6438,-0.2895 -1.0944,-0.4182 l -3.8627,-1.3188 c -1.4485,-0.5469 -2.4786,-1.2224 -3.0901,-2.0909 -0.6116,-0.8685 -0.9013,-1.9943 -0.9013,-3.4097 0,-1.0937 0.1287,-1.9944 0.3862,-2.6699 0.2575,-0.6755 0.676,-1.2223 1.2554,-1.6083 0.5472,-0.386 1.2876,-0.6434 2.1888,-0.8042 0.9335,-0.193 1.9958,-0.2574 3.2511,-0.2574 z" />
  <path fill="#3c366b" d="m 111.706,35.340097 c 0.483,0 1.03,0.0322 1.642,0.0644 0.579,0.0321 1.191,0.1286 1.77,0.2573 0.612,0.1287 1.159,0.2895 1.642,0.5147 l -0.451,2.5734 c -0.74,-0.0322 -1.448,-0.0322 -2.124,-0.0644 -0.676,-0.0321 -1.288,-0.0321 -1.803,-0.0321 -0.837,0 -1.481,0.0965 -1.963,0.3216 -0.483,0.2252 -0.837,0.6112 -1.03,1.158 -0.226,0.5469 -0.322,1.3511 -0.322,2.3161 0,0.9972 0.096,1.8013 0.322,2.3804 0.225,0.579 0.547,0.965 1.03,1.1901 0.482,0.2252 1.126,0.3217 1.963,0.3217 0.29,0 0.676,0 1.127,-0.0322 0.45,-0.0321 0.965,-0.0321 1.48,-0.0643 0.548,-0.0322 1.063,-0.0643 1.578,-0.1608 l 0.386,2.5733 c -0.74,0.3217 -1.577,0.5791 -2.511,0.7077 -0.933,0.1609 -1.867,0.2252 -2.768,0.2252 -1.706,0 -3.026,-0.2252 -4.024,-0.7077 -0.997,-0.4825 -1.738,-1.2223 -2.156,-2.2839 -0.451,-1.0615 -0.6762,-2.4447 -0.6762,-4.1817 0,-1.737 0.2252,-3.1524 0.6762,-4.1817 0.45,-1.0615 1.191,-1.8014 2.189,-2.2517 1.03,-0.4182 2.349,-0.6434 4.023,-0.6434 z" />
  <path fill="#3c366b" d="m 129.7,40.905097 -0.032,2.2838 -6.052,0.0322 c -0.483,0 -0.837,0.1287 -1.062,0.3538 -0.225,0.2252 -0.322,0.5469 -0.322,0.965 v 0.6756 c 0,0.4503 0.129,0.8041 0.386,1.0615 0.258,0.2573 0.676,0.386 1.256,0.386 0.482,0 0.997,-0.0965 1.545,-0.2895 0.547,-0.193 1.126,-0.4825 1.673,-0.8685 0.548,-0.3539 1.03,-0.8042 1.449,-1.2867 v 1.7692 c -0.161,0.2895 -0.419,0.6111 -0.74,1.0293 -0.322,0.4182 -0.741,0.8042 -1.224,1.2224 -0.482,0.386 -1.062,0.7398 -1.738,0.9972 -0.676,0.2895 -1.416,0.4181 -2.253,0.4181 -0.837,0 -1.577,-0.1608 -2.221,-0.4503 -0.676,-0.2895 -1.191,-0.7399 -1.577,-1.2867 -0.387,-0.579 -0.58,-1.2867 -0.58,-2.123 v -1.4154 c 0,-1.0937 0.354,-1.93 1.095,-2.5412 0.74,-0.6112 1.738,-0.9007 3.026,-0.9007 h 7.371 z m -3.638,-5.565 c 1.127,0 2.093,0.1609 2.897,0.4504 0.805,0.2895 1.385,0.8042 1.803,1.544 0.418,0.7399 0.612,1.737 0.612,2.9916 v 8.9746 h -3.252 l -0.579,-2.9594 -0.29,-0.4182 v -5.6614 c 0,-0.6433 -0.161,-1.1258 -0.45,-1.4153 -0.29,-0.2895 -0.869,-0.4504 -1.738,-0.4504 -0.709,0 -1.578,0.0322 -2.608,0.0644 -1.062,0.0321 -2.124,0.0965 -3.219,0.193 l -0.386,-2.7021 c 0.676,-0.1287 1.416,-0.2252 2.286,-0.3217 0.869,-0.0965 1.738,-0.1608 2.575,-0.2251 0.869,-0.0322 1.641,-0.0644 2.349,-0.0644 z" />
  <path fill="#3c366b" d="m 138.133,30.000297 -0.032,14.9256 c 0,0.4503 0.129,0.8042 0.419,1.0293 0.289,0.2252 0.675,0.3539 1.223,0.3539 h 1.094 l 0.483,2.7663 c -0.225,0.0965 -0.547,0.193 -0.934,0.2895 -0.418,0.0965 -0.804,0.1609 -1.255,0.193 -0.418,0.0322 -0.772,0.0644 -1.062,0.0644 -1.223,0 -2.221,-0.3217 -2.929,-0.965 -0.708,-0.6434 -1.063,-1.5441 -1.063,-2.7021 v -15.9549 z" />
  <path fill="#3c366b" d="m 153.326,40.905097 -0.032,2.2838 -6.051,0.0322 c -0.483,0 -0.837,0.1287 -1.063,0.3538 -0.225,0.2252 -0.321,0.5469 -0.321,0.965 v 0.6756 c 0,0.4503 0.128,0.8041 0.386,1.0615 0.257,0.2573 0.676,0.386 1.255,0.386 0.483,0 0.998,-0.0965 1.545,-0.2895 0.547,-0.193 1.127,-0.4825 1.674,-0.8685 0.547,-0.3539 1.03,-0.8042 1.449,-1.2867 v 1.7692 c -0.161,0.2895 -0.419,0.6111 -0.741,1.0293 -0.322,0.4182 -0.74,0.8042 -1.223,1.2224 -0.483,0.386 -1.062,0.7398 -1.738,0.9972 -0.676,0.2895 -1.417,0.4181 -2.253,0.4181 -0.837,0 -1.578,-0.1608 -2.221,-0.4503 -0.676,-0.2895 -1.191,-0.7399 -1.578,-1.2867 -0.386,-0.579 -0.579,-1.2867 -0.579,-2.123 v -1.4154 c 0,-1.0937 0.354,-1.93 1.094,-2.5412 0.741,-0.6112 1.739,-0.9007 3.026,-0.9007 h 7.371 z m -3.637,-5.565 c 1.127,0 2.092,0.1609 2.897,0.4504 0.805,0.2895 1.384,0.8042 1.803,1.544 0.418,0.7399 0.611,1.737 0.611,2.9916 v 8.9746 h -3.251 l -0.579,-2.9594 -0.29,-0.4182 v -5.6614 c 0,-0.6433 -0.161,-1.1258 -0.451,-1.4153 -0.289,-0.2895 -0.869,-0.4504 -1.738,-0.4504 -0.708,0 -1.577,0.0322 -2.607,0.0644 -1.062,0.0321 -2.125,0.0965 -3.219,0.193 l -0.386,-2.7021 c 0.676,-0.1287 1.416,-0.2252 2.285,-0.3217 0.869,-0.0965 1.738,-0.1608 2.575,-0.2251 0.901,-0.0322 1.674,-0.0644 2.35,-0.0644 z" />
</svg>
