<?xml version="1.0" encoding="UTF-8" standalone="no"?>
<!DOCTYPE svg PUBLIC "-//W3C//DTD SVG 1.1//EN" "http://www.w3.org/Graphics/SVG/1.1/DTD/svg11.dtd">
<svg xmlns="http://www.w3.org/2000/svg" xmlns:xlink="http://www.w3.org/1999/xlink" viewBox="0 0 620 240" width="620" height="240" version="1.1">
  <defs>
    <filter id="effect">
      <feGaussianBlur in="SourceAlpha" stdDeviation="4" />
      <feOffset result="result" dx="5" dy="5" />
      <feComposite in="SourceGraphic" in2="result" operator="xor" />
    </filter>
    <g id="logo">
      <path d="m 110.00009,20.000609 c -32.384787,1e-6 -61.222722,15.475231 -79.509868,39.418265 a 29,29 0 0 1 11.510408,-2.41949 29,29 0 0 1 9.224242,1.534271 C 66.477294,43.947605 87.169976,35.00021 110.00009,35.000209 c 15.80515,0 30.58303,4.292655 43.24387,11.770857 a 30.999998,30.999998 0 0 1 14.75673,-3.771345 30.999998,30.999998 0 0 1 6.60683,0.731738 C 157.16802,28.935784 134.60785,20.000608 110.00009,20.000609 Z m 88.98062,54.39306 a 30.999998,30.999998 0 0 1 -7.83208,20.180162 c 2.50253,8.025009 3.85144,16.564819 3.85144,25.426869 0,23.68796 -9.63353,45.07331 -25.2026,60.4697 a 37,37 0 0 1 0.20309,3.52898 37,37 0 0 1 -5.99601,20.13055 c 27.64869,-17.80996 45.99564,-48.86708 45.99564,-84.12923 0,-16.4181 -3.97789,-31.92448 -11.01948,-45.607031 z M 13.805969,92.636481 C 11.327593,101.3364 10,110.5166 10,120.0007 c -10e-7,55.13964 44.860451,99.99958 100.00009,99.99958 4.03187,0 8.00816,-0.24178 11.91659,-0.70796 a 37,37 0 0 1 -19.56987,-14.6296 C 58.915894,200.8082 25.000117,164.45385 25.000118,120.0007 c 0,-3.41592 0.201711,-6.78371 0.591178,-10.09292 A 29,29 0 0 1 13.805969,92.636481 Z" />
      <path d="m 117.05822,117.46335 -14.11522,5.07227 22.99998,64 14.11521,-5.07227 z" />
      <path d="M 45.354979,79.291473 38.646,92.707488 l 67.99993,34.000002 6.70898,-13.41602 z" />
      <path d="m 163.33894,68.123504 -57.99994,46.000006 9.3203,11.75195 57.99994,-46.000003 z" />
      <circle cx="168" cy="74" r="26" />
      <circle cx="133" cy="184" r="32" />
      <circle cx="42" cy="86" r="24" />
      <circle cx="110" cy="120" r="21" />
    </g>
  </defs>
  <use xlink:href="#logo" fill="#ffffff" />
  <use xlink:href="#logo" fill="#800000" filter="url(#effect)" />
  <text x="234.99976" y="150" font-family="'Linux Biolinum'" font-size="96px" fill="none" id="text32">ScalaLoci</text>
  <path d="m 258.24975,146.71875 q 4.5,0 7.82812,-3 3.375,-3.04688 3.375,-8.20313 0,-5.57812 -2.90625,-8.57812 -2.85937,-3.04687 -8.29687,-5.34375 -3.5625,-1.45312 -6.09375,-2.85937 -2.48438,-1.45313 -5.0625,-3.60938 -2.57813,-2.20312 -3.98438,-5.10937 -1.40625,-2.90625 -1.40625,-6.5625 0,-4.968755 3,-9.000005 3.04688,-4.078125 7.59375,-6 3.9375,-1.640625 8.25,-1.640625 4.96875,0 8.76563,1.078125 3.79687,1.03125 5.15625,2.15625 l 1.3125,1.125 0.1875,0.28125 Q 274.14037,97.5 273.76537,101.0625 l -0.9375,0.0937 q -1.92187,-4.5 -5.53125,-7.265625 -3.60937,-2.8125 -7.54687,-2.8125 -3.65625,0 -5.85938,1.125 -1.82812,0.9375 -3.14062,3.515625 -1.26563,2.53125 -1.26563,5.10938 0,2.76562 1.03125,5.01562 1.07813,2.20313 3.09375,3.65625 2.01563,1.40625 3.60938,2.25 1.59375,0.79688 3.98437,1.6875 17.20313,6.42188 17.20313,19.17187 0,8.25 -5.95313,13.3125 -5.95312,5.01563 -15,5.01563 -4.96875,0 -9.375,-1.03125 -4.35937,-1.07813 -6.23437,-2.15625 l -1.875,-1.125 -0.1875,-0.28125 q 1.92187,-7.125 2.25,-9.89063 l 0.9375,-0.0937 q 2.20312,4.21875 6.70312,7.3125 4.54688,3.04688 8.57813,3.04688 z" />
  <path d="m 307.56225,111.70313 q -4.96875,0 -8.4375,4.59375 -3.46875,4.59375 -3.46875,12.28124 0,8.15625 3.51562,12.89063 3.51563,4.6875 8.95313,4.6875 5.76562,0 10.26562,-4.03125 h 0.42188 l 1.82812,2.01562 q -5.39062,6.79688 -14.15625,6.79688 -8.8125,0 -14.0625,-5.90625 -5.20312,-5.95313 -5.20312,-15.9375 0,-9.32812 6.23437,-15.28125 6.23438,-5.95312 14.20313,-5.95312 7.59375,0 12.75,2.67187 l 0.23437,0.28125 -2.25,7.875 -1.21875,0.0937 q -4.125,-7.07812 -9.60937,-7.07812 z" />
  <path d="m 354.48412,128.39062 -8.15625,2.20313 q -5.29687,1.45312 -7.40625,3.79687 -2.10937,2.34375 -2.10937,5.8125 0,2.29688 1.96875,4.07813 1.96875,1.78125 5.15625,1.78125 3.84375,0 8.8125,-3.75 1.35937,-0.9375 1.35937,-2.48438 z m 0,17.01563 h -0.375 q -3.84375,3.28125 -6.51562,4.40625 -2.625,1.125 -6.5625,1.125 -5.57813,0 -8.8125,-2.57813 -3.1875,-2.57812 -3.1875,-7.78125 0,-4.875 4.26562,-8.57812 4.26563,-3.70313 11.67188,-5.34375 l 8.95312,-2.01562 q 0.65625,-0.1875 0.65625,-1.125 0,-3.09375 -0.70312,-5.34375 -0.65625,-2.25 -1.54688,-3.32813 -0.84375,-1.125 -2.29687,-1.73437 -1.40625,-0.65625 -2.39063,-0.79688 -0.9375,-0.14062 -2.29687,-0.14062 -5.48438,0 -10.54688,8.15625 l -1.26562,-0.0937 -1.59375,-6.42188 0.28125,-0.375 q 6.60937,-5.57812 14.10937,-5.57812 15.84375,0 15.84375,15.5625 0,0.32812 -0.0469,2.34375 -0.0469,1.96875 -0.0937,4.26562 -0.0469,2.25 -0.0937,4.59375 -0.0469,2.34375 -0.0469,3.28125 0,6.04687 1.59375,7.5 0.79688,0.70312 2.8125,0.70312 1.17188,0 2.57813,-0.51562 l 0.75,2.39062 q -2.8125,2.95313 -7.64063,2.95313 -2.71875,0 -4.73437,-1.40625 -1.96875,-1.40625 -2.76563,-4.125 z" />
  <path d="m 379.51537,130.78125 v -27.04687 q 0,-13.73438 -0.84375,-18.51563 l 0.1875,-0.328125 q 4.3125,-0.28125 8.34375,-1.921875 0.84375,0 0.89063,0.984375 -0.84375,11.625 -0.89063,18.046875 v 28.78125 q 0,12.84375 0.89063,19.21875 l -0.23438,0.28125 Q 386.12475,150 383.35912,150 q -2.76562,0 -4.5,0.28125 L 378.67162,150 q 0.84375,-6.14063 0.84375,-19.21875 z" />
  <path d="m 424.8435,128.39062 -8.15625,2.20313 q -5.29688,1.45312 -7.40625,3.79687 -2.10938,2.34375 -2.10938,5.8125 0,2.29688 1.96875,4.07813 1.96875,1.78125 5.15625,1.78125 3.84375,0 8.8125,-3.75 1.35938,-0.9375 1.35938,-2.48438 z m 0,17.01563 h -0.375 q -3.84375,3.28125 -6.51563,4.40625 -2.625,1.125 -6.5625,1.125 -5.57812,0 -8.8125,-2.57813 -3.1875,-2.57812 -3.1875,-7.78125 0,-4.875 4.26563,-8.57812 4.26562,-3.70313 11.67187,-5.34375 l 8.95313,-2.01562 q 0.65625,-0.1875 0.65625,-1.125 0,-3.09375 -0.70313,-5.34375 -0.65625,-2.25 -1.54687,-3.32813 -0.84375,-1.125 -2.29688,-1.73437 -1.40625,-0.65625 -2.39062,-0.79688 -0.9375,-0.14062 -2.29688,-0.14062 -5.48437,0 -10.54687,8.15625 l -1.26563,-0.0937 -1.59375,-6.42188 0.28125,-0.375 q 6.60938,-5.57812 14.10938,-5.57812 15.84375,0 15.84375,15.5625 0,0.32812 -0.0469,2.34375 -0.0469,1.96875 -0.0937,4.26562 -0.0469,2.25 -0.0937,4.59375 -0.0469,2.34375 -0.0469,3.28125 0,6.04687 1.59375,7.5 0.79687,0.70312 2.8125,0.70312 1.17187,0 2.57812,-0.51562 l 0.75,2.39062 q -2.8125,2.95313 -7.64062,2.95313 -2.71875,0 -4.73438,-1.40625 -1.96875,-1.40625 -2.76562,-4.125 z" />
  <path d="m 459.57787,107.29688 v 23.48437 q 0,10.73437 0.79688,13.35937 5.76562,0 12.51562,-0.51562 6.75,-0.51563 10.64063,-1.07813 l 3.89062,-0.51562 0.1875,0.375 q -0.1875,1.54687 -0.1875,3.375 0,1.54687 0.1875,4.21875 l -0.1875,0.28125 Q 485.12475,150 481.656,150 h -26.20313 l -4.96875,0.28125 L 450.39037,150 q 0.9375,-6.51563 0.9375,-19.21875 v -23.48437 q 0,-12.375005 -0.9375,-19.218755 l 0.1875,-0.28125 q 1.73438,0.28125 4.875,0.28125 3.28125,0 5.01563,-0.28125 l 0.0937,0.28125 q -0.98438,6.375 -0.98438,19.218755 z" />
  <path d="m 494.31225,130.3125 q 0,-10.17187 5.625,-16.3125 5.67187,-6.14062 15.09375,-6.14062 9.60937,0 14.76562,5.8125 5.20313,5.8125 5.20313,15.79687 0,9.60937 -5.48438,15.5625 -5.4375,5.90625 -14.85937,5.90625 -9.32813,0 -14.85938,-5.85938 -5.48437,-5.85937 -5.48437,-14.76562 z m 20.0625,-18.60937 q -4.21875,0 -6.98438,2.57812 -2.71875,2.57813 -3.70312,6.1875 -0.9375,3.60938 -0.9375,8.20312 0,4.3125 0.9375,8.15625 0.98437,3.84375 4.03125,7.07813 3.09375,3.23437 7.78125,3.23437 4.78125,0 7.92187,-4.5 3.14063,-4.54687 3.14063,-11.4375 0,-9.70312 -2.53125,-14.57812 -2.53125,-4.92187 -9.65625,-4.92187 z" />
  <path d="m 563.31225,111.70313 q -4.96875,0 -8.4375,4.59375 -3.46875,4.59375 -3.46875,12.28124 0,8.15625 3.51562,12.89063 3.51563,4.6875 8.95313,4.6875 5.76562,0 10.26562,-4.03125 h 0.42188 l 1.82812,2.01562 q -5.39062,6.79688 -14.15625,6.79688 -8.8125,0 -14.0625,-5.90625 -5.20312,-5.95313 -5.20312,-15.9375 0,-9.32812 6.23437,-15.28125 6.23438,-5.95312 14.20313,-5.95312 7.59375,0 12.75,2.67187 l 0.23437,0.28125 -2.25,7.875 -1.21875,0.0937 q -4.125,-7.07812 -9.60937,-7.07812 z" />
  <path d="m 589.60912,96.09375 q -1.45312,-1.5 -1.45312,-3.421875 0,-1.921875 1.45312,-3.375 1.5,-1.5 3.42188,-1.5 1.92187,0 3.42187,1.5 1.5,1.453125 1.5,3.375 0,1.921875 -1.5,3.421875 -1.5,1.5 -3.42187,1.5 -1.92188,0 -3.42188,-1.5 z m -0.51562,31.35938 q 0,-12.75 -0.84375,-18.65625 l 0.1875,-0.28125 q 4.125,0.28125 8.34375,-0.0937 0.5625,0 0.70312,0.14062 0.1875,0.14063 0.1875,0.84375 -0.84375,8.0625 -0.89062,16.5 v 6.79687 q 0,10.45313 0.89062,17.29688 l -0.23437,0.28125 q -1.73438,-0.2813 -4.5,-0.2813 -2.76563,0 -4.5,0.28125 L 588.24975,150 q 0.84375,-6.42188 0.84375,-17.29688 z" />
</svg>
