<svg width="150" height="57" viewBox="0 0 150 57" fill="none" xmlns="http://www.w3.org/2000/svg">
<path d="M40.3326 24.9352H29.1953V4.9916C29.1953 2.77206 27.3927 0.970703 25.1717 0.970703H4.02361C1.80258 0.970703 0 2.77206 0 4.9916V25.7394C0 27.959 1.80258 29.7603 4.02361 29.7603H24.367V39.7965H16.2876C14.0665 39.7965 12.264 41.5978 12.264 43.8174V52.5025C12.264 54.7221 14.0665 56.5234 16.2876 56.5234H25.1717C27.3927 56.5234 29.1953 54.7221 29.1953 52.5025V44.6216H40.3004C42.5215 44.6216 44.324 42.8202 44.324 40.6007V28.9561C44.3562 26.7366 42.5215 24.9352 40.3326 24.9352ZM4.82833 5.79578H24.367V24.9352H4.82833V5.79578ZM24.367 51.6983H17.0923V44.6216H24.367V51.6983ZM39.5279 39.7965H29.2275V29.7603H39.5279V39.7965Z" fill="#3C366B"/>
<path d="M59.7105 25C61.3843 25 62.7362 25.1608 63.7663 25.5147C64.7963 25.8685 65.5688 26.4475 66.0517 27.2517C66.5345 28.0559 66.792 29.2139 66.792 30.6614C66.792 31.5299 66.6633 32.3341 66.4379 32.9775C66.2126 33.653 65.8264 34.1998 65.2791 34.5858C64.7319 35.004 64.0238 35.2613 63.0903 35.3578V35.4865C63.4122 35.5508 63.7663 35.6795 64.1203 35.8725C64.4744 36.0655 64.8285 36.3872 65.1182 36.7732C65.4401 37.1592 65.6654 37.706 65.7942 38.3494L67.4358 44.2681H62.9937L61.5452 38.478C61.3843 37.8669 61.1268 37.4165 60.8049 37.1914C60.483 36.9662 60.0324 36.8375 59.453 36.8375C58.1976 36.8375 57.1676 36.8375 56.2985 36.8375C55.4294 36.8375 54.7212 36.8054 54.1418 36.8054C53.5624 36.7732 53.0474 36.7732 52.5967 36.741L52.6933 33.6851H59.5495C60.2899 33.6851 60.8693 33.6208 61.2877 33.46C61.7062 33.2991 62.0281 33.0096 62.189 32.6236C62.35 32.2055 62.4465 31.6586 62.4465 30.9509C62.4465 30.2111 62.35 29.6642 62.189 29.2461C62.0281 28.8601 61.7062 28.5706 61.2877 28.4097C60.8693 28.2489 60.2577 28.1846 59.5495 28.1846C57.8113 28.1846 56.3628 28.1846 55.1718 28.2167C53.9809 28.2489 53.1439 28.2489 52.7255 28.3132L52.307 25.3217C53.0796 25.2252 53.8199 25.1608 54.4959 25.1287C55.1718 25.0965 55.9122 25.0643 56.7169 25.0643C57.586 25 58.5517 25 59.7105 25ZM56.5238 25.2895V44.3003H52.3714V25.2895H56.5238Z" fill="#3C366B"/>
<path d="M73.5516 25.1934C74.5816 25.1934 75.6117 25.1934 76.6739 25.1934C77.7361 25.1934 78.734 25.2255 79.764 25.2577C80.7619 25.2899 81.7276 25.3542 82.5966 25.4507L82.4035 28.5066H75.0966C74.646 28.5066 74.2919 28.6352 74.0666 28.8604C73.8413 29.0856 73.7125 29.4394 73.7125 29.9219V39.6042C73.7125 40.0546 73.8413 40.4084 74.0666 40.6658C74.2919 40.8909 74.646 41.0196 75.0966 41.0196H82.4035L82.5966 44.0755C81.7276 44.1398 80.7619 44.2042 79.764 44.2685C78.7662 44.3007 77.7361 44.3328 76.6739 44.365C75.6117 44.365 74.5816 44.365 73.5516 44.365C72.3284 44.365 71.3627 44.0111 70.6224 43.3035C69.8821 42.5958 69.4958 41.6629 69.4958 40.5371V29.0212C69.4958 27.8632 69.8821 26.9304 70.6224 26.2549C71.3627 25.5472 72.3606 25.1934 73.5516 25.1934ZM70.0108 32.9135H81.4057V35.8729H70.0108V32.9135Z" fill="#3C366B"/>
<path d="M91.3199 24.9355C92.2534 24.9355 93.2834 24.9999 94.3779 25.0964C95.4723 25.1929 96.5667 25.4181 97.5968 25.7076L97.307 28.4739C96.5023 28.4418 95.5367 28.4418 94.4744 28.4096C93.38 28.3774 92.3178 28.3774 91.2877 28.3774C90.7727 28.3774 90.3221 28.3774 89.968 28.4096C89.6139 28.4418 89.3242 28.5061 89.0989 28.6348C88.8736 28.7634 88.7126 28.9243 88.6161 29.1816C88.5195 29.4068 88.4873 29.7606 88.4873 30.1788C88.4873 30.8221 88.6482 31.3046 88.9379 31.5942C89.2276 31.8837 89.7749 32.141 90.483 32.3983L94.1525 33.5885C95.6654 34.1032 96.7276 34.8109 97.307 35.6794C97.8864 36.5479 98.1761 37.7059 98.1761 39.1534C98.1761 40.2471 98.0474 41.1478 97.7899 41.8555C97.5324 42.5632 97.1139 43.1422 96.5667 43.5282C96.0195 43.9464 95.2792 44.2359 94.3779 44.3967C93.4766 44.5575 92.3821 44.654 91.0624 44.654C90.4508 44.654 89.5495 44.6219 88.3907 44.5254C87.2319 44.4289 85.9122 44.2359 84.4315 43.9142L84.7212 40.9548C85.8156 40.987 86.7491 40.987 87.5538 41.0191C88.3585 41.0513 89.0345 41.0513 89.6139 41.0835C90.1933 41.0835 90.6761 41.0835 91.0946 41.0835C91.8349 41.0835 92.4143 41.0513 92.8328 40.9548C93.2512 40.8583 93.541 40.6653 93.7019 40.408C93.8628 40.1185 93.9594 39.7325 93.9594 39.2178C93.9594 38.7674 93.895 38.4136 93.7663 38.1563C93.6375 37.8989 93.4444 37.6737 93.1869 37.5129C92.9294 37.3521 92.5431 37.2234 92.0925 37.0947L88.2298 35.7759C86.7813 35.229 85.7512 34.5535 85.1397 33.685C84.5281 32.8165 84.2384 31.6907 84.2384 30.2753C84.2384 29.1816 84.3671 28.2809 84.6246 27.6054C84.8821 26.9299 85.3006 26.3831 85.88 25.9971C86.4272 25.6111 87.1676 25.3537 88.0688 25.1929C89.0023 24.9999 90.0646 24.9355 91.3199 24.9355Z" fill="#3C366B"/>
<path d="M106.706 30.3398C107.189 30.3398 107.736 30.372 108.348 30.4042C108.927 30.4363 109.539 30.5328 110.118 30.6615C110.73 30.7902 111.277 30.951 111.76 31.1762L111.309 33.7496C110.569 33.7174 109.861 33.7174 109.185 33.6852C108.509 33.6531 107.897 33.6531 107.382 33.6531C106.545 33.6531 105.901 33.7496 105.419 33.9747C104.936 34.1999 104.582 34.5859 104.389 35.1327C104.163 35.6796 104.067 36.4838 104.067 37.4488C104.067 38.446 104.163 39.2501 104.389 39.8292C104.614 40.4082 104.936 40.7942 105.419 41.0193C105.901 41.2445 106.545 41.341 107.382 41.341C107.672 41.341 108.058 41.341 108.509 41.3088C108.959 41.2767 109.474 41.2767 109.989 41.2445C110.537 41.2123 111.052 41.1802 111.567 41.0837L111.953 43.657C111.213 43.9787 110.376 44.2361 109.442 44.3647C108.509 44.5256 107.575 44.5899 106.674 44.5899C104.968 44.5899 103.648 44.3647 102.65 43.8822C101.653 43.3997 100.912 42.6599 100.494 41.5983C100.043 40.5368 99.8178 39.1536 99.8178 37.4166C99.8178 35.6796 100.043 34.2642 100.494 33.2349C100.944 32.1734 101.685 31.4335 102.683 30.9832C103.713 30.565 105.032 30.3398 106.706 30.3398Z" fill="#3C366B"/>
<path d="M124.7 35.9048L124.668 38.1886L118.616 38.2208C118.133 38.2208 117.779 38.3495 117.554 38.5746C117.329 38.7998 117.232 39.1215 117.232 39.5396V40.2152C117.232 40.6655 117.361 41.0193 117.618 41.2767C117.876 41.534 118.294 41.6627 118.874 41.6627C119.356 41.6627 119.871 41.5662 120.419 41.3732C120.966 41.1802 121.545 40.8907 122.092 40.5047C122.64 40.1508 123.122 39.7005 123.541 39.218V40.9872C123.38 41.2767 123.122 41.5983 122.801 42.0165C122.479 42.4347 122.06 42.8207 121.577 43.2389C121.095 43.6249 120.515 43.9787 119.839 44.2361C119.163 44.5256 118.423 44.6542 117.586 44.6542C116.749 44.6542 116.009 44.4934 115.365 44.2039C114.689 43.9144 114.174 43.464 113.788 42.9172C113.401 42.3382 113.208 41.6305 113.208 40.7942V39.3788C113.208 38.2851 113.562 37.4488 114.303 36.8376C115.043 36.2264 116.041 35.9369 117.329 35.9369H124.7V35.9048ZM121.062 30.3398C122.189 30.3398 123.155 30.5007 123.959 30.7902C124.764 31.0797 125.344 31.5944 125.762 32.3342C126.18 33.0741 126.374 34.0712 126.374 35.3258V44.3004H123.122L122.543 41.341L122.253 40.9228V35.2614C122.253 34.6181 122.092 34.1356 121.803 33.8461C121.513 33.5566 120.934 33.3957 120.065 33.3957C119.356 33.3957 118.487 33.4279 117.457 33.4601C116.395 33.4922 115.333 33.5566 114.238 33.6531L113.852 30.951C114.528 30.8223 115.268 30.7258 116.138 30.6293C117.007 30.5328 117.876 30.4685 118.713 30.4042C119.582 30.372 120.354 30.3398 121.062 30.3398Z" fill="#3C366B"/>
<path d="M133.133 25L133.101 39.9256C133.101 40.3759 133.23 40.7298 133.52 40.9549C133.809 41.1801 134.195 41.3088 134.743 41.3088H135.837L136.32 44.0751C136.095 44.1716 135.773 44.2681 135.386 44.3646C134.968 44.4611 134.582 44.5255 134.131 44.5576C133.713 44.5898 133.359 44.622 133.069 44.622C131.846 44.622 130.848 44.3003 130.14 43.657C129.432 43.0136 129.077 42.1129 129.077 40.9549V25H133.133Z" fill="#3C366B"/>
<path d="M148.326 35.9048L148.294 38.1886L142.243 38.2208C141.76 38.2208 141.406 38.3495 141.18 38.5746C140.955 38.7998 140.859 39.1215 140.859 39.5396V40.2152C140.859 40.6655 140.987 41.0193 141.245 41.2767C141.502 41.534 141.921 41.6627 142.5 41.6627C142.983 41.6627 143.498 41.5662 144.045 41.3732C144.592 41.1802 145.172 40.8907 145.719 40.5047C146.266 40.1508 146.749 39.7005 147.168 39.218V40.9872C147.007 41.2767 146.749 41.5983 146.427 42.0165C146.105 42.4347 145.687 42.8207 145.204 43.2389C144.721 43.6249 144.142 43.9787 143.466 44.2361C142.79 44.5256 142.049 44.6542 141.213 44.6542C140.376 44.6542 139.635 44.4934 138.992 44.2039C138.316 43.9144 137.801 43.464 137.414 42.9172C137.028 42.3382 136.835 41.6305 136.835 40.7942V39.3788C136.835 38.2851 137.189 37.4488 137.929 36.8376C138.67 36.2264 139.668 35.9369 140.955 35.9369H148.326V35.9048ZM144.689 30.3398C145.816 30.3398 146.781 30.5007 147.586 30.7902C148.391 31.0797 148.97 31.5944 149.389 32.3342C149.807 33.0741 150 34.0712 150 35.3258V44.3004H146.749L146.17 41.341L145.88 40.9228V35.2614C145.88 34.6181 145.719 34.1356 145.429 33.8461C145.14 33.5566 144.56 33.3957 143.691 33.3957C142.983 33.3957 142.114 33.4279 141.084 33.4601C140.022 33.4922 138.959 33.5566 137.865 33.6531L137.479 30.951C138.155 30.8223 138.895 30.7258 139.764 30.6293C140.633 30.5328 141.502 30.4685 142.339 30.4042C143.24 30.372 144.013 30.3398 144.689 30.3398Z" fill="#3C366B"/>
</svg>