<?xml version="1.0" standalone="no"?>
<!DOCTYPE svg PUBLIC "-//W3C//DTD SVG 20010904//EN"
 "http://www.w3.org/TR/2001/REC-SVG-20010904/DTD/svg10.dtd">
<svg version="1.0" xmlns="http://www.w3.org/2000/svg"
 width="2000.000000pt" height="1500.000000pt" viewBox="0 0 2000.000000 1500.000000"
 preserveAspectRatio="xMidYMid meet">

<g transform="translate(0.000000,1500.000000) scale(0.100000,-0.100000)"
fill="#000000" stroke="none">
<path d="M9790 12124 c-1339 -66 -2571 -696 -3407 -1741 -287 -359 -537 -800
-709 -1248 -5 -13 9 -15 88 -15 l95 0 53 128 c183 437 446 859 756 1212 113
129 358 370 479 471 577 484 1261 811 2000 958 317 63 454 75 850 75 287 1
389 -3 505 -17 313 -39 620 -108 895 -200 217 -73 320 -115 524 -213 217 -105
314 -160 511 -289 267 -175 430 -307 674 -545 428 -419 745 -885 981 -1442
l59 -138 94 0 c79 0 93 2 88 15 -46 122 -126 303 -192 435 -711 1430 -2126
2395 -3724 2539 -127 12 -503 21 -620 15z"/>
<path d="M13360 7515 l0 -1085 89 0 88 0 18 68 c10 37 21 71 25 75 3 4 33 -8
64 -27 229 -138 502 -172 681 -86 195 94 295 338 295 720 0 243 -25 389 -91
526 -84 177 -218 254 -442 254 -140 0 -271 -36 -439 -121 -32 -16 -60 -29 -63
-29 -3 0 -5 178 -5 395 l0 395 -110 0 -110 0 0 -1085z m828 236 c107 -48 177
-164 202 -340 17 -113 8 -426 -15 -506 -27 -98 -74 -182 -127 -230 -67 -60
-130 -80 -248 -79 -110 1 -181 17 -320 75 l-100 41 0 473 0 472 88 40 c78 36
147 62 207 77 11 2 74 4 140 2 101 -2 128 -6 173 -25z"/>
<path d="M5665 8506 c-118 -29 -215 -109 -257 -215 l-23 -56 -3 -902 -3 -903
111 0 110 0 2 448 3 447 375 6 c206 3 417 7 468 8 l92 1 0 85 0 85 -222 0
c-123 0 -335 3 -471 7 l-248 6 3 321 3 321 25 45 c28 49 73 84 129 100 21 6
210 10 469 10 l432 0 0 84 c0 84 0 84 -27 90 -35 8 -615 26 -788 25 -71 0
-152 -6 -180 -13z"/>
<path d="M7255 8507 c-123 -32 -214 -108 -257 -215 l-23 -57 0 -770 c0 -873
-4 -830 81 -924 53 -59 124 -95 220 -112 68 -12 563 -6 854 10 l115 6 3 88 3
87 -428 0 c-257 0 -446 5 -473 11 -60 13 -104 45 -132 94 -22 39 -23 48 -26
341 l-3 301 218 6 c120 4 332 7 471 7 l252 0 0 83 0 84 -202 6 c-112 4 -316 7
-455 7 -138 0 -258 3 -267 6 -14 5 -16 40 -16 283 0 168 4 292 11 316 15 55
52 101 102 128 41 22 48 22 495 25 l452 3 0 88 0 88 -191 6 c-443 16 -753 17
-804 4z"/>
<path d="M8890 8505 c-109 -31 -191 -98 -235 -191 -42 -89 -47 -189 -43 -924
5 -746 3 -723 70 -824 37 -56 99 -99 178 -124 48 -15 99 -17 415 -15 198 2
419 6 490 10 l130 8 3 88 3 87 -425 0 c-265 0 -444 4 -475 11 -69 14 -110 45
-140 103 -25 49 -25 53 -29 333 -3 173 -1 288 5 294 6 6 202 12 471 16 l462 6
0 82 0 82 -197 6 c-108 4 -314 7 -457 7 -144 0 -267 4 -275 9 -11 7 -12 61 -9
292 4 245 7 290 22 327 23 54 84 107 141 121 29 7 193 11 474 11 l431 0 0 88
0 89 -187 6 c-104 4 -318 9 -478 12 -243 4 -299 3 -345 -10z"/>
<path d="M10292 7613 l3 -908 24 -60 c34 -84 107 -154 191 -185 64 -24 69 -24
533 -28 l467 -3 0 100 0 101 -403 0 c-438 0 -474 4 -529 55 -67 62 -63 -1 -66
963 l-3 872 -110 0 -110 0 3 -907z"/>
<path d="M12190 7964 c-84 -6 -320 -35 -336 -41 -10 -4 -14 -23 -14 -63 l0
-57 303 -6 c167 -3 323 -11 348 -17 26 -6 71 -26 100 -43 44 -26 60 -43 84
-92 28 -56 30 -68 34 -201 l3 -142 -323 -4 c-343 -5 -386 -10 -480 -59 -59
-30 -127 -102 -157 -167 -26 -55 -27 -63 -27 -232 0 -171 1 -176 28 -232 35
-71 110 -140 185 -169 80 -32 241 -32 367 0 95 23 291 97 364 137 24 13 45 24
46 24 1 0 8 -21 14 -47 7 -27 16 -65 22 -85 l10 -38 84 0 85 0 0 548 c0 301
-5 579 -10 618 -25 193 -118 300 -305 349 -60 16 -309 27 -425 19z m520 -1017
l0 -244 -122 -41 c-196 -65 -284 -85 -378 -86 -75 -1 -92 2 -145 29 -102 51
-144 146 -132 297 10 122 59 199 150 238 56 24 213 38 560 48 l67 2 0 -243z"/>
<path d="M5674 5875 c522 -1360 1624 -2387 3006 -2799 435 -130 843 -189 1315
-189 434 -1 788 44 1185 149 1445 382 2606 1430 3146 2839 5 13 -9 15 -88 15
l-94 0 -59 -137 c-176 -417 -406 -794 -694 -1138 -109 -130 -368 -391 -501
-506 -568 -485 -1239 -818 -1962 -974 -290 -62 -492 -85 -829 -92 -380 -8
-670 17 -1004 88 -1063 224 -1998 821 -2653 1695 -199 266 -399 617 -532 937
l-53 127 -95 0 c-79 0 -93 -2 -88 -15z"/>
</g>
</svg>
