<?xml version="1.0" encoding="UTF-8" standalone="no"?>
<svg
   xmlns:dc="http://purl.org/dc/elements/1.1/"
   xmlns:cc="http://creativecommons.org/ns#"
   xmlns:rdf="http://www.w3.org/1999/02/22-rdf-syntax-ns#"
   xmlns:svg="http://www.w3.org/2000/svg"
   xmlns="http://www.w3.org/2000/svg"
   width="105.07133mm"
   height="29.986109mm"
   viewBox="0 0 105.07133 29.986109"
   version="1.1"
   id="svg8">
  <defs
     id="defs2">
    <clipPath
       clipPathUnits="userSpaceOnUse"
       id="clipPath28">
      <path
         d="M 0,0.0400019 H 297.84 V 85.000002 H 0 Z"
         id="path26" />
    </clipPath>
  </defs>
  <metadata
     id="metadata5">
    <rdf:RDF>
      <cc:Work
         rdf:about="">
        <dc:format>image/svg+xml</dc:format>
        <dc:type
           rdf:resource="http://purl.org/dc/dcmitype/StillImage" />
        <dc:title></dc:title>
      </cc:Work>
    </rdf:RDF>
  </metadata>
  <g
     id="layer1"
     transform="translate(-35.154809,-24.316465)">
    <g
       id="g18"
       transform="matrix(0.35277777,0,0,-0.35277777,35.154809,54.302575)"
       style="opacity:1">
      <g
         id="g32"
         style="display:inline">
        <path
           d="M 0,85 H 297.625 V 2.216548e-6 H 0 Z"
           style="display:inline;fill:#ffffff;fill-opacity:1;fill-rule:nonzero;stroke:none"
           id="path34" />
        <path
           d="M 47.4096,73.55882 H 82.99992 V 12.53173 H 47.4096 Z"
           style="display:inline;fill:#4472c4;fill-opacity:1;fill-rule:nonzero;stroke:none"
           id="path36" />
        <g
           id="g38"
           transform="matrix(0.24,0,0,0.24,7.2,-54.44)"
           style="display:inline">
          <g
             aria-label="p."
             transform="matrix(1,0,0,-1,0,354)"
             id="text42"
             style="font-variant:normal;font-weight:normal;font-size:225px;font-family:'PT Sans';-inkscape-font-specification:PTSans-Regular;writing-mode:lr-tb;fill:#4472c4;fill-opacity:1;fill-rule:nonzero;stroke:none">
            <path
               d="M 17.325,-112.5 H 29.7 l 3.375,13.5 h 0.9 q 5.175,-7.875 13.275,-11.925 8.325,-4.275 18.9,-4.275 22.5,0 33.525,13.275 11.025,13.275 11.025,43.425 0,14.175 -3.825,25.65 -3.6,11.25 -10.35,19.125 Q 89.775,-5.85 80.1,-1.575 70.65,2.7 58.95,2.7 50.625,2.7 45.675,1.575 40.95,0.675 35.325,-1.8 V 45 h -18 z m 45.45,13.05 q -11.475,0 -18.225,6.075 -6.525,5.85 -9.225,18 v 55.8 q 4.05,3.15 9.225,4.95 5.175,1.575 13.725,1.575 15.525,0 24.525,-11.475 9.225,-11.7 9.225,-34.2 0,-9.225 -1.575,-16.65 -1.575,-7.65 -5.175,-12.825 -3.375,-5.4 -9,-8.325 -5.4,-2.925 -13.5,-2.925 z"
               id="path90" />
            <path
               d="m 132.9075,-10.35 q 0,-6.075 3.375,-9.45 3.6,-3.6 9.45,-3.6 6.075,0 9.675,3.6 3.6,3.375 3.6,9.45 0,5.85 -3.6,9.45 -3.6,3.6 -9.675,3.6 -5.85,0 -9.45,-3.6 -3.375,-3.6 -3.375,-9.45 z"
               id="path92" />
          </g>
        </g>
        <g
           id="g44"
           transform="matrix(0.24,0,0,0.24,47.95,-54.44)"
           style="display:inline">
          <g
             aria-label="g"
             transform="matrix(1,0,0,-1,0,354)"
             id="text48"
             style="font-variant:normal;font-weight:normal;font-size:225px;font-family:'PT Sans';-inkscape-font-specification:PTSans-Regular;writing-mode:lr-tb;fill:#ffffff;fill-opacity:1;fill-rule:nonzero;stroke:none">
            <path
               d="M 103.5,5.175 Q 103.5,27 91.8,37.35 80.325,47.7 57.6,47.7 q -13.5,0 -21.825,-1.8 -8.1,-1.575 -13.95,-4.275 l 4.725,-15.3 q 5.175,2.025 11.475,3.825 6.3,1.8 16.425,1.8 9.45,0 15.3,-1.8 6.075,-1.575 9.675,-5.625 3.6,-3.825 4.95,-10.125 1.35,-6.075 1.35,-14.625 v -10.8 h -0.9 Q 80.325,-4.5 73.35,-0.9 66.375,2.475 55.125,2.475 32.4,2.475 21.6,-11.7 11.025,-25.875 11.025,-55.8 q 0,-28.8 13.725,-43.65 13.725,-15.075 40.5,-15.075 12.825,0 21.825,2.025 9.225,2.025 16.425,4.725 z m -45.225,-18.45 q 11.475,0 18,-5.625 6.525,-5.85 9.225,-18 v -57.6 q -9,-4.275 -22.95,-4.275 -15.3,0 -24.075,10.35 -8.775,10.35 -8.775,32.4 0,9.45 1.575,17.325 1.575,7.875 4.95,13.5 3.375,5.625 8.775,8.775 5.4,3.15 13.275,3.15 z"
               id="path95" />
          </g>
        </g>
        <g
           id="g50"
           transform="matrix(7.874016e-5,0,0,-7.874016e-5,77.82724,69.23488)"
           style="display:inline">
          <path
             d="M 0,0 1,666750"
             style="fill:none;stroke:#ffffff;stroke-width:38100;stroke-linecap:butt;stroke-linejoin:miter;stroke-miterlimit:8;stroke-dasharray:none;stroke-opacity:1"
             id="path52" />
        </g>
        <g
           id="g54"
           transform="matrix(0.24,0,0,0.24,97.36654,-36.68)"
           style="display:inline">
          <g
             aria-label="Programming"
             transform="matrix(1,0,0,-1,0,354)"
             id="text58"
             style="font-variant:normal;font-weight:normal;font-size:150px;font-family:'Gill Sans';-inkscape-font-specification:GillSans;writing-mode:lr-tb;fill:#000000;fill-opacity:1;fill-rule:nonzero;stroke:none">
            <path
               d="m 10.473633,0 v -102.46582 h 32.446289 q 14.648437,0 23.364258,7.910156 Q 75,-86.645508 75,-73.31543 q 0,8.935547 -4.467773,15.820313 -4.467774,6.884765 -12.231446,10.03418 -7.763672,3.076171 -22.265625,3.076171 H 25.195312 V 0 Z M 40.356445,-89.428711 H 25.195312 v 32.006836 h 16.04004 q 8.935546,0 13.769531,-4.174805 4.833984,-4.248047 4.833984,-12.084961 0,-15.74707 -19.482422,-15.74707 z"
               id="path98" />
            <path
               d="m 100.29047,-67.382812 v 15.454101 l 0.73242,-1.171875 q 9.66797,-15.600586 19.33594,-15.600586 7.54394,0 15.74707,7.617188 l -7.03125,11.71875 q -6.95801,-6.591797 -12.89063,-6.591797 -6.44531,0 -11.20605,6.152344 -4.6875,6.152343 -4.6875,14.575195 V 0 H 86.887146 v -67.382812 z"
               id="path100" />
            <path
               d="m 173.88481,-67.529297 q 15.38086,0 25.56152,9.960938 10.18067,9.887695 10.18067,24.902343 0,14.575196 -10.32715,24.2431644 -10.32715,9.5947266 -26.00098,9.5947266 -15.16113,0 -25.34179,-9.7412109 -10.18067,-9.8144531 -10.18067,-24.4628911 0,-14.794921 10.25391,-24.609375 10.32715,-9.887695 25.85449,-9.887695 z m -0.73242,12.011719 q -9.59473,0 -15.74707,6.298828 -6.15234,6.298828 -6.15234,16.040039 0,9.667969 6.29882,15.820313 6.29883,6.079101 16.18653,6.079101 9.81445,0 16.04004,-6.152344 6.29882,-6.225586 6.29882,-15.893554 0,-9.594727 -6.51855,-15.893555 -6.51856,-6.298828 -16.40625,-6.298828 z"
               id="path102" />
            <path
               d="m 221.03085,-44.091797 q 0,-10.766601 7.83692,-16.992187 7.91015,-6.298828 21.5332,-6.298828 h 27.75879 v 10.40039 h -13.62305 q 3.95508,4.02832 5.49317,7.324219 1.53808,3.295898 1.53808,7.543945 0,5.273438 -3.00293,10.400391 -3.00293,5.053711 -7.76367,7.763672 -4.6875,2.709961 -15.4541,4.321289 -7.54395,1.098633 -7.54395,5.200195 0,2.34375 2.78321,3.881836 2.85644,1.4648437 10.2539,3.0761719 12.37793,2.7099609 15.89356,4.2480468 3.58887,1.538086 6.44531,4.3945313 4.83399,4.8339844 4.83399,12.158203 0,9.594727 -8.56934,15.307617 -8.49609,5.712891 -22.77832,5.712891 -14.42871,0 -23.07129,-5.786133 -8.56934,-5.712891 -8.56934,-15.380859 0,-13.69628931 16.91895,-17.6513674 -6.73828,-4.3212891 -6.73828,-8.5693356 0,-3.222657 2.85644,-5.859375 2.92969,-2.636719 7.83692,-3.881836 -14.86817,-6.591797 -14.86817,-21.313477 z m 25.04883,-11.71875 q -5.41992,0 -9.22851,3.66211 -3.8086,3.662109 -3.8086,8.789062 0,5.200195 3.73535,8.642578 3.73536,3.369141 9.44825,3.369141 5.63964,0 9.375,-3.442383 3.80859,-3.515625 3.80859,-8.71582 0,-5.273438 -3.80859,-8.789063 -3.8086,-3.515625 -9.52149,-3.515625 z m -3.14941,58.9599611 q -6.73828,0 -11.05957,2.8564453 -4.24805,2.8564453 -4.24805,7.3242186 0,10.400391 18.75,10.400391 8.8623,0 13.69629,-2.636719 4.90723,-2.563477 4.90723,-7.324219 0,-4.6874997 -6.15235,-7.6904294 -6.15234,-2.9296875 -15.89355,-2.9296875 z"
               id="path104" />
            <path
               d="m 302.82047,-67.382812 v 15.454101 l 0.73242,-1.171875 q 9.66797,-15.600586 19.33593,-15.600586 7.54395,0 15.74707,7.617188 l -7.03125,11.71875 q -6.958,-6.591797 -12.89062,-6.591797 -6.44531,0 -11.20605,6.152344 -4.6875,6.152343 -4.6875,14.575195 V 0 h -13.40333 v -67.382812 z"
               id="path106" />
            <path
               d="m 390.24222,-40.50293 v 28.637696 q 0,3.4423824 2.34375,3.4423824 2.41699,0 7.54394,-3.5888674 v 8.1298831 q -4.54101,2.92968746 -7.32422,3.95507809 -2.70996,1.09863281 -5.71289,1.09863281 -8.56933,0 -10.10742,-6.7382812 -8.49609,6.5917968 -18.09082,6.5917968 -7.03125,0 -11.71875,-4.6142578 -4.6875,-4.6875 -4.6875,-11.7187498 0,-6.37207 4.54102,-11.352539 4.61426,-5.053711 13.03711,-7.983399 l 17.06543,-5.859375 v -3.588867 q 0,-12.158203 -12.15821,-12.158203 -10.91308,0 -21.24023,11.279297 v -14.575195 q 7.76367,-9.155274 22.33887,-9.155274 10.91308,0 17.50488,5.712891 2.19726,1.831054 3.95508,4.907226 1.75781,3.00293 2.19726,6.079102 0.5127,3.00293 0.5127,11.499023 z m -13.11035,27.172852 v -19.995117 l -8.93555,3.442383 q -6.81152,2.70996 -9.66797,5.493164 -2.7832,2.709961 -2.7832,6.811523 0,4.174805 2.63672,6.811523 2.70996,2.6367192 6.958,2.6367192 6.37207,0 11.792,-5.2001952 z"
               id="path108" />
            <path
               d="M 467.19785,-48.925781 V 0 h -13.40332 v -37.5 q 0,-11.206055 -3.00293,-15.600586 -3.00293,-4.467773 -10.47364,-4.467773 -4.1748,0 -7.69043,1.904297 -3.44238,1.904296 -7.91015,6.738281 V 0 H 411.3873 v -67.382812 h 13.33008 v 8.862304 q 10.18066,-10.180664 19.92187,-10.180664 12.81738,0 19.84863,12.158203 10.69336,-12.304687 22.33887,-12.304687 9.81445,0 16.11328,7.177734 6.37207,7.177735 6.37207,21.899414 V 0 h -13.33007 v -39.916992 q 0,-8.422852 -3.44239,-12.890625 -3.44238,-4.467774 -9.88769,-4.467774 -8.27637,0 -15.4541,8.34961 z"
               id="path110" />
            <path
               d="M 582.81787,-48.925781 V 0 h -13.40332 v -37.5 q 0,-11.206055 -3.00293,-15.600586 -3.00293,-4.467773 -10.47363,-4.467773 -4.17481,0 -7.69043,1.904297 -3.44238,1.904296 -7.91016,6.738281 V 0 h -13.33008 v -67.382812 h 13.33008 v 8.862304 q 10.18067,-10.180664 19.92188,-10.180664 12.81738,0 19.84863,12.158203 10.69336,-12.304687 22.33887,-12.304687 9.81445,0 16.11328,7.177734 6.37207,7.177735 6.37207,21.899414 V 0 h -13.33008 v -39.916992 q 0,-8.422852 -3.44238,-12.890625 -3.44238,-4.467774 -9.8877,-4.467774 -8.27636,0 -15.4541,8.34961 z"
               id="path112" />
            <path
               d="m 650.09802,-95.727539 q 3.2959,0 5.63965,2.270508 2.34375,2.270508 2.34375,5.566406 0,3.222656 -2.34375,5.566406 -2.34375,2.34375 -5.63965,2.34375 -3.07617,0 -5.41992,-2.34375 -2.34375,-2.416992 -2.34375,-5.566406 0,-3.076172 2.34375,-5.419922 2.34375,-2.416992 5.41992,-2.416992 z m -6.59179,28.344727 H 656.8363 V 0 h -13.33007 z"
               id="path114" />
            <path
               d="m 689.34833,-67.382812 v 8.569335 q 8.93554,-9.887695 20.28808,-9.887695 6.29883,0 11.71875,3.295899 5.41993,3.222656 8.20313,8.935546 2.85644,5.639649 2.85644,17.944336 V 0 h -13.33007 v -38.378906 q 0,-10.327149 -3.14942,-14.72168 -3.14941,-4.467773 -10.54687,-4.467773 -9.44825,0 -16.04004,9.448242 V 0 h -13.62305 v -67.382812 z"
               id="path116" />
            <path
               d="m 747.57587,-44.091797 q 0,-10.766601 7.83691,-16.992187 7.91016,-6.298828 21.5332,-6.298828 h 27.75879 v 10.40039 h -13.62304 q 3.95507,4.02832 5.49316,7.324219 1.53809,3.295898 1.53809,7.543945 0,5.273438 -3.00293,10.400391 -3.00293,5.053711 -7.76368,7.763672 -4.6875,2.709961 -15.4541,4.321289 -7.54394,1.098633 -7.54394,5.200195 0,2.34375 2.7832,3.881836 2.85645,1.4648437 10.25391,3.0761719 12.37793,2.7099609 15.89355,4.2480468 3.58887,1.538086 6.44531,4.3945313 4.83399,4.8339844 4.83399,12.158203 0,9.594727 -8.56934,15.307617 -8.49609,5.712891 -22.77832,5.712891 -14.42871,0 -23.07129,-5.786133 -8.56933,-5.712891 -8.56933,-15.380859 0,-13.69628931 16.91894,-17.6513674 -6.73828,-4.3212891 -6.73828,-8.5693356 0,-3.222657 2.85645,-5.859375 2.92968,-2.636719 7.83691,-3.881836 -14.86816,-6.591797 -14.86816,-21.313477 z m 25.04882,-11.71875 q -5.41992,0 -9.22851,3.66211 -3.80859,3.662109 -3.80859,8.789062 0,5.200195 3.73535,8.642578 3.73535,3.369141 9.44824,3.369141 5.63965,0 9.375,-3.442383 3.80859,-3.515625 3.80859,-8.71582 0,-5.273438 -3.80859,-8.789063 -3.80859,-3.515625 -9.52149,-3.515625 z m -3.14941,58.9599611 q -6.73828,0 -11.05957,2.8564453 -4.24805,2.8564453 -4.24805,7.3242186 0,10.400391 18.75,10.400391 8.86231,0 13.69629,-2.636719 4.90723,-2.563477 4.90723,-7.324219 0,-4.6874997 -6.15234,-7.6904294 -6.15235,-2.9296875 -15.89356,-2.9296875 z"
               id="path118" />
          </g>
        </g>
        <g
           id="g60"
           transform="matrix(0.24,0,0,0.24,97.36654,-72.68)"
           style="display:inline">
          <g
             aria-label="Group"
             transform="matrix(1,0,0,-1,0,354)"
             id="text64"
             style="font-variant:normal;font-weight:normal;font-size:150px;font-family:'Gill Sans';-inkscape-font-specification:GillSans;writing-mode:lr-tb;fill:#000000;fill-opacity:1;fill-rule:nonzero;stroke:none">
            <path
               d="M 66.577148,-50.390625 H 100.92773 V -7.03125 q -18.89648,8.203125 -37.499996,8.203125 -25.415039,0 -40.649414,-14.794922 -15.1611325,-14.868164 -15.1611325,-36.621094 0,-22.924804 15.7470705,-38.159179 15.74707,-15.23438 39.477539,-15.23438 8.642578,0 16.40625,1.9043 7.763672,1.831056 19.628906,6.811525 v 14.941406 q -18.310547,-10.620117 -36.328125,-10.620117 -16.772461,0 -28.271484,11.425781 -11.499024,11.425782 -11.499024,28.051758 0,17.431641 11.499024,28.491211 11.499023,11.05957 29.589843,11.05957 8.789063,0 21.020508,-4.02832 l 1.391602,-0.439453 V -37.353516 H 66.577148 Z"
               id="path121" />
            <path
               d="m 134.67047,-67.382812 v 15.454101 l 0.73242,-1.171875 q 9.66797,-15.600586 19.33594,-15.600586 7.54395,0 15.74707,7.617188 l -7.03125,11.71875 q -6.95801,-6.591797 -12.89062,-6.591797 -6.44532,0 -11.20606,6.152344 -4.6875,6.152343 -4.6875,14.575195 V 0 h -13.40332 v -67.382812 z"
               id="path123" />
            <path
               d="m 208.2648,-67.529297 q 15.38086,0 25.56152,9.960938 10.18067,9.887695 10.18067,24.902343 0,14.575196 -10.32715,24.2431644 -10.32715,9.5947266 -26.00098,9.5947266 -15.16113,0 -25.34179,-9.7412109 -10.18067,-9.8144531 -10.18067,-24.4628911 0,-14.794921 10.25391,-24.609375 10.32715,-9.887695 25.85449,-9.887695 z m -0.73242,12.011719 q -9.59473,0 -15.74707,6.298828 -6.15234,6.298828 -6.15234,16.040039 0,9.667969 6.29882,15.820313 6.29883,6.079101 16.18653,6.079101 9.81445,0 16.04004,-6.152344 6.29882,-6.225586 6.29882,-15.893554 0,-9.594727 -6.51855,-15.893555 -6.51856,-6.298828 -16.40625,-6.298828 z"
               id="path125" />
            <path
               d="m 301.77316,0 v -8.5693359 q -4.24804,4.6142578 -9.74121,7.1777343 -5.41992,2.5634766 -10.83984,2.5634766 -6.37207,0 -11.79199,-3.1494141 -5.34668,-3.2226562 -8.12989,-8.6425779 -2.70996,-5.493164 -2.70996,-18.164063 v -38.598632 h 13.33008 v 38.452148 q 0,10.620117 3.00293,14.868164 3.07617,4.1748047 10.69336,4.1748047 9.52148,0 16.18652,-9.3017577 v -48.193359 h 13.33008 V 0 Z"
               id="path127" />
            <path
               d="M 332.97433,34.350586 V -67.382812 h 23.36426 q 17.94434,0 27.90528,8.935546 10.03418,8.935547 10.03418,24.975586 0,15.161133 -9.44825,24.9023441 -9.375,9.7412109 -23.95019,9.7412109 -6.44531,0 -14.28223,-2.8564453 V 34.350586 Z m 23.07129,-89.282227 h -9.44824 v 41.455078 q 6.15235,3.149415 12.89063,3.149415 9.375,0 15.30761,-6.518555 6.00586,-6.518555 6.00586,-16.772461 0,-6.591797 -2.85644,-11.645508 -2.78321,-5.053711 -7.69043,-7.324219 -4.83399,-2.34375 -14.20899,-2.34375 z"
               id="path129" />
          </g>
        </g>
      </g>
    </g>
  </g>
</svg>
