<?xml version="1.0" encoding="UTF-8"?>
<!-- Created with Inkscape (http://www.inkscape.org/) -->
<svg width="634.95" height="566.93" version="1.1" viewBox="0 0 634.95 566.93" xmlns="http://www.w3.org/2000/svg">
 <g transform="matrix(1.3333 0 0 -1.3333 -258.8 627.37)">
  <path d="m220.65 257.93c0 117.41 95.184 212.6 212.6 212.6 117.41 0 212.6-95.184 212.6-212.6 0-117.41-95.184-212.6-212.6-212.6-117.41 0-212.6 95.184-212.6 212.6z" fill="#b5b5b5" fill-rule="evenodd"/>
  <path d="m309.47 408.72c0 11.742 9.5183 21.26 21.26 21.26s21.26-9.5183 21.26-21.26-9.5184-21.26-21.26-21.26-21.26 9.5184-21.26 21.26z" fill="#fff" fill-rule="evenodd"/>
  <g transform="matrix(7.874e-5 0 0 -7.874e-5 309.47 429.98)">
   <path d="m0 2.7e5c0-149117 120883-2.7e5 2.7e5 -2.7e5s2.7e5 120883 2.7e5 2.7e5 -120883 2.7e5 -2.7e5 2.7e5 -2.7e5 -120883-2.7e5 -2.7e5z" fill="none" stroke="#fff" stroke-miterlimit="8" stroke-width="12700"/>
  </g>
  <path d="m433.25 433.38c0 11.742 9.5184 21.26 21.26 21.26 11.742 0 21.26-9.5184 21.26-21.26s-9.5184-21.26-21.26-21.26c-11.741 0-21.26 9.5183-21.26 21.26z" fill="#fff" fill-rule="evenodd"/>
  <g transform="matrix(7.874e-5 0 0 -7.874e-5 433.25 454.64)">
   <path d="m0 2.7e5c0-149117 120883-2.7e5 2.7e5 -2.7e5s2.7e5 120883 2.7e5 2.7e5 -120883 2.7e5 -2.7e5 2.7e5 -2.7e5 -120883-2.7e5 -2.7e5z" fill="none" stroke="#fff" stroke-miterlimit="8" stroke-width="12700"/>
  </g>
  <path d="m529.68 355.37c0 11.742 9.5183 21.26 21.26 21.26s21.26-9.5183 21.26-21.26-9.5184-21.26-21.26-21.26-21.26 9.5184-21.26 21.26z" fill="#fff" fill-rule="evenodd"/>
  <g transform="matrix(7.874e-5 0 0 -7.874e-5 529.68 376.63)">
   <path d="m0 2.7e5c0-149117 120883-2.7e5 2.7e5 -2.7e5s2.7e5 120883 2.7e5 2.7e5 -120883 2.7e5 -2.7e5 2.7e5 -2.7e5 -120883-2.7e5 -2.7e5z" fill="none" stroke="#fff" stroke-miterlimit="8" stroke-width="12700"/>
  </g>
  <path d="m341.91 313.1c0 11.742 9.5184 21.26 21.26 21.26s21.26-9.5184 21.26-21.26-9.5183-21.26-21.26-21.26-21.26 9.5183-21.26 21.26z" fill="#fff" fill-rule="evenodd"/>
  <g transform="matrix(7.874e-5 0 0 -7.874e-5 341.91 334.36)">
   <path d="m0 2.7e5c0-149117 120883-2.7e5 2.7e5 -2.7e5s2.7e5 120883 2.7e5 2.7e5 -120883 2.7e5 -2.7e5 2.7e5 -2.7e5 -120883-2.7e5 -2.7e5z" fill="none" stroke="#fff" stroke-miterlimit="8" stroke-width="12700"/>
  </g>
  <path d="m268.44 137.42c0 11.742 9.5184 21.26 21.26 21.26s21.26-9.5183 21.26-21.26-9.5183-21.26-21.26-21.26-21.26 9.5183-21.26 21.26z" fill="#fff" fill-rule="evenodd"/>
  <g transform="matrix(7.874e-5 0 0 -7.874e-5 268.44 158.68)">
   <path d="m0 2.7e5c0-149117 120883-2.7e5 2.7e5 -2.7e5s2.7e5 120883 2.7e5 2.7e5 -120883 2.7e5 -2.7e5 2.7e5 -2.7e5 -120883-2.7e5 -2.7e5z" fill="none" stroke="#fff" stroke-miterlimit="8" stroke-width="12700"/>
  </g>
  <path d="m366.54 94.9c0 11.741 9.5184 21.26 21.26 21.26s21.26-9.5184 21.26-21.26-9.5183-21.26-21.26-21.26-21.26 9.5184-21.26 21.26z" fill="#fff" fill-rule="evenodd"/>
  <g transform="matrix(7.874e-5 0 0 -7.874e-5 366.54 116.16)">
   <path d="m0 2.7e5c0-149117 120883-2.7e5 2.7e5 -2.7e5s2.7e5 120883 2.7e5 2.7e5 -120883 2.7e5 -2.7e5 2.7e5 -2.7e5 -120883-2.7e5 -2.7e5z" fill="none" stroke="#fff" stroke-miterlimit="8" stroke-width="12700"/>
  </g>
  <path d="m432.21 160.49c0 11.742 9.5184 21.26 21.26 21.26 11.741 0 21.26-9.5183 21.26-21.26s-9.5184-21.26-21.26-21.26c-11.742 0-21.26 9.5184-21.26 21.26z" fill="#fff" fill-rule="evenodd"/>
  <g transform="matrix(7.874e-5 0 0 -7.874e-5 432.21 181.75)">
   <path d="m0 2.7e5c0-149117 120883-2.7e5 2.7e5 -2.7e5s2.7e5 120883 2.7e5 2.7e5 -120883 2.7e5 -2.7e5 2.7e5 -2.7e5 -120883-2.7e5 -2.7e5z" fill="none" stroke="#fff" stroke-miterlimit="8" stroke-width="12700"/>
  </g>
  <path d="m508.42 103.73c0 11.742 9.5184 21.26 21.26 21.26s21.26-9.5183 21.26-21.26c0-11.742-9.5183-21.26-21.26-21.26s-21.26 9.5184-21.26 21.26z" fill="#fff" fill-rule="evenodd"/>
  <g transform="matrix(7.874e-5 0 0 -7.874e-5 508.42 124.99)">
   <path d="m0 2.7e5c0-149117 120883-2.7e5 2.7e5 -2.7e5s2.7e5 120883 2.7e5 2.7e5 -120883 2.7e5 -2.7e5 2.7e5 -2.7e5 -120883-2.7e5 -2.7e5z" fill="none" stroke="#fff" stroke-miterlimit="8" stroke-width="12700"/>
  </g>
  <g fill="#fff">
   <path d="m431.65 163.44-106.51-20.267 1.1215-5.8943 106.51 20.267zm-104.69-13.812-16-12.206 19.365-5.4769z"/>
   <path d="m436.31 147.58-24.978-24.928 4.2384-4.2468 24.978 24.928zm-27.093-18.562-6.383-19.086 19.098 6.3449z"/>
   <path d="m470.67 147.53 29.548-30.886-4.3355-4.1476-29.548 30.886zm31.809-24.571 5.9395-19.228-18.946 6.7852z"/>
   <path d="m514.41 91.689-96.851-7.6505 0.4725-5.9814 96.851 7.6505zm-94.333-1.4328-17.235-10.389 18.653-7.5546z"/>
   <path d="m292.65 158.15 38.389 214.01-5.9057 1.0594-38.389-214.01zm43.765 210-5.6806 19.306-12.037-16.128z"/>
   <path d="m380.68 326.45 52.85 77.812-4.9634 3.3712-52.85-77.812zm56.128 71.96 2.6683 19.947-17.558-9.8334z"/>
   <path d="m432.92 436.37-72.574-7.9941 0.6569-5.964 72.574 7.9942zm-70.249-1.7017-16.906-10.917 18.877-6.9751z"/>
  </g>
  <g>
   <path d="m194.1 279.08c0 11.201 9.0805 20.282 20.282 20.282h435.65c11.201 0 20.282-9.0805 20.282-20.282v-49.567c0-11.201-9.0805-20.282-20.282-20.282h-435.65c-11.201 0-20.282 9.0805-20.282 20.282z" fill="#b5b5b5" fill-rule="evenodd"/>
   <path d="m534.15 367.97-54.202 39.168 3.5143 4.8632 54.202-39.168zm-55.284 32.548-9.318 17.837 19.861-3.248z" fill="#fff"/>
   <path d="m547.95 334.41-19.743-194.19 5.9692-0.6069 19.743 194.19zm-25.408-190.6 7.1333-18.818 10.774 16.997z" fill="#fff"/>
   <path d="m214.54 311.34c0 24.1 19.537 43.636 43.637 43.636h350.15c24.1 0 43.637-19.537 43.637-43.636v-104.32c0-24.1-19.537-43.637-43.637-43.637h-350.15c-24.1 0-43.637 19.537-43.637 43.637z" fill="#b18da5" fill-rule="evenodd"/>
  </g>
  <g transform="matrix(7.874e-5 0 0 -7.874e-5 214.54 354.98)">
   <path d="m0 554184c0-306068 248117-554184 554184-554184h4446962c306067 0 554184 248117 554184 554184v1324829c0 306067-248117 554184-554184 554184h-4446962c-306068 0-554184-248117-554184-554184z" fill="none" stroke="#fff" stroke-miterlimit="8" stroke-width="76200"/>
  </g>
  <g transform="matrix(.24 0 0 .24 245.69 -312.72)">
   <text transform="matrix(1,0,0,-1,0,2250)" fill="#ffffff" font-family="'Roboto Condensed'" font-size="366.67px" xml:space="preserve"><tspan x="0 277.09003 448.98337 557.33337 732.85675 889.64343 1061.5367 1173.0034 1380.8301" y="0">MetaverCE</tspan></text>
  </g>
 </g>
</svg>
