<?xml version="1.0" encoding="UTF-8" standalone="no"?>
<!-- Created with Inkscape (http://www.inkscape.org/) -->

<svg
   width="634.95"
   height="566.93"
   version="1.1"
   viewBox="0 0 634.95 566.93"
   id="svg97"
   sodipodi:docname="MetaverCE-logo.svg"
   inkscape:version="1.2.2 (b0a8486, 2022-12-01)"
   xmlns:inkscape="http://www.inkscape.org/namespaces/inkscape"
   xmlns:sodipodi="http://sodipodi.sourceforge.net/DTD/sodipodi-0.dtd"
   xmlns="http://www.w3.org/2000/svg"
   xmlns:svg="http://www.w3.org/2000/svg">
  <defs
     id="defs101" />
  <sodipodi:namedview
     id="namedview99"
     pagecolor="#ffffff"
     bordercolor="#666666"
     borderopacity="1.0"
     inkscape:showpageshadow="2"
     inkscape:pageopacity="0.0"
     inkscape:pagecheckerboard="0"
     inkscape:deskcolor="#d1d1d1"
     showgrid="false"
     inkscape:zoom="1.8115111"
     inkscape:cx="318.24259"
     inkscape:cy="284.01702"
     inkscape:window-width="2560"
     inkscape:window-height="1281"
     inkscape:window-x="1440"
     inkscape:window-y="25"
     inkscape:window-maximized="0"
     inkscape:current-layer="svg97" />
  <g
     transform="matrix(1.3333 0 0 -1.3333 -258.8 627.37)"
     id="g95">
    <path
       d="m220.65 257.93c0 117.41 95.184 212.6 212.6 212.6 117.41 0 212.6-95.184 212.6-212.6 0-117.41-95.184-212.6-212.6-212.6-117.41 0-212.6 95.184-212.6 212.6z"
       fill="#b5b5b5"
       fill-rule="evenodd"
       id="path9" />
    <path
       d="m309.47 408.72c0 11.742 9.5183 21.26 21.26 21.26s21.26-9.5183 21.26-21.26-9.5184-21.26-21.26-21.26-21.26 9.5184-21.26 21.26z"
       fill="#fff"
       fill-rule="evenodd"
       id="path11" />
    <g
       transform="matrix(7.874e-5 0 0 -7.874e-5 309.47 429.98)"
       id="g15">
      <path
         d="m0 2.7e5c0-149117 120883-2.7e5 2.7e5 -2.7e5s2.7e5 120883 2.7e5 2.7e5 -120883 2.7e5 -2.7e5 2.7e5 -2.7e5 -120883-2.7e5 -2.7e5z"
         fill="none"
         stroke="#fff"
         stroke-miterlimit="8"
         stroke-width="12700"
         id="path13" />
    </g>
    <path
       d="m433.25 433.38c0 11.742 9.5184 21.26 21.26 21.26 11.742 0 21.26-9.5184 21.26-21.26s-9.5184-21.26-21.26-21.26c-11.741 0-21.26 9.5183-21.26 21.26z"
       fill="#fff"
       fill-rule="evenodd"
       id="path17" />
    <g
       transform="matrix(7.874e-5 0 0 -7.874e-5 433.25 454.64)"
       id="g21">
      <path
         d="m0 2.7e5c0-149117 120883-2.7e5 2.7e5 -2.7e5s2.7e5 120883 2.7e5 2.7e5 -120883 2.7e5 -2.7e5 2.7e5 -2.7e5 -120883-2.7e5 -2.7e5z"
         fill="none"
         stroke="#fff"
         stroke-miterlimit="8"
         stroke-width="12700"
         id="path19" />
    </g>
    <path
       d="m529.68 355.37c0 11.742 9.5183 21.26 21.26 21.26s21.26-9.5183 21.26-21.26-9.5184-21.26-21.26-21.26-21.26 9.5184-21.26 21.26z"
       fill="#fff"
       fill-rule="evenodd"
       id="path23" />
    <g
       transform="matrix(7.874e-5 0 0 -7.874e-5 529.68 376.63)"
       id="g27">
      <path
         d="m0 2.7e5c0-149117 120883-2.7e5 2.7e5 -2.7e5s2.7e5 120883 2.7e5 2.7e5 -120883 2.7e5 -2.7e5 2.7e5 -2.7e5 -120883-2.7e5 -2.7e5z"
         fill="none"
         stroke="#fff"
         stroke-miterlimit="8"
         stroke-width="12700"
         id="path25" />
    </g>
    <path
       d="m341.91 313.1c0 11.742 9.5184 21.26 21.26 21.26s21.26-9.5184 21.26-21.26-9.5183-21.26-21.26-21.26-21.26 9.5183-21.26 21.26z"
       fill="#fff"
       fill-rule="evenodd"
       id="path29" />
    <g
       transform="matrix(7.874e-5 0 0 -7.874e-5 341.91 334.36)"
       id="g33">
      <path
         d="m0 2.7e5c0-149117 120883-2.7e5 2.7e5 -2.7e5s2.7e5 120883 2.7e5 2.7e5 -120883 2.7e5 -2.7e5 2.7e5 -2.7e5 -120883-2.7e5 -2.7e5z"
         fill="none"
         stroke="#fff"
         stroke-miterlimit="8"
         stroke-width="12700"
         id="path31" />
    </g>
    <path
       d="m268.44 137.42c0 11.742 9.5184 21.26 21.26 21.26s21.26-9.5183 21.26-21.26-9.5183-21.26-21.26-21.26-21.26 9.5183-21.26 21.26z"
       fill="#fff"
       fill-rule="evenodd"
       id="path35" />
    <g
       transform="matrix(7.874e-5 0 0 -7.874e-5 268.44 158.68)"
       id="g39">
      <path
         d="m0 2.7e5c0-149117 120883-2.7e5 2.7e5 -2.7e5s2.7e5 120883 2.7e5 2.7e5 -120883 2.7e5 -2.7e5 2.7e5 -2.7e5 -120883-2.7e5 -2.7e5z"
         fill="none"
         stroke="#fff"
         stroke-miterlimit="8"
         stroke-width="12700"
         id="path37" />
    </g>
    <path
       d="m366.54 94.9c0 11.741 9.5184 21.26 21.26 21.26s21.26-9.5184 21.26-21.26-9.5183-21.26-21.26-21.26-21.26 9.5184-21.26 21.26z"
       fill="#fff"
       fill-rule="evenodd"
       id="path41" />
    <g
       transform="matrix(7.874e-5 0 0 -7.874e-5 366.54 116.16)"
       id="g45">
      <path
         d="m0 2.7e5c0-149117 120883-2.7e5 2.7e5 -2.7e5s2.7e5 120883 2.7e5 2.7e5 -120883 2.7e5 -2.7e5 2.7e5 -2.7e5 -120883-2.7e5 -2.7e5z"
         fill="none"
         stroke="#fff"
         stroke-miterlimit="8"
         stroke-width="12700"
         id="path43" />
    </g>
    <path
       d="m432.21 160.49c0 11.742 9.5184 21.26 21.26 21.26 11.741 0 21.26-9.5183 21.26-21.26s-9.5184-21.26-21.26-21.26c-11.742 0-21.26 9.5184-21.26 21.26z"
       fill="#fff"
       fill-rule="evenodd"
       id="path47" />
    <g
       transform="matrix(7.874e-5 0 0 -7.874e-5 432.21 181.75)"
       id="g51">
      <path
         d="m0 2.7e5c0-149117 120883-2.7e5 2.7e5 -2.7e5s2.7e5 120883 2.7e5 2.7e5 -120883 2.7e5 -2.7e5 2.7e5 -2.7e5 -120883-2.7e5 -2.7e5z"
         fill="none"
         stroke="#fff"
         stroke-miterlimit="8"
         stroke-width="12700"
         id="path49" />
    </g>
    <path
       d="m508.42 103.73c0 11.742 9.5184 21.26 21.26 21.26s21.26-9.5183 21.26-21.26c0-11.742-9.5183-21.26-21.26-21.26s-21.26 9.5184-21.26 21.26z"
       fill="#fff"
       fill-rule="evenodd"
       id="path53" />
    <g
       transform="matrix(7.874e-5 0 0 -7.874e-5 508.42 124.99)"
       id="g57">
      <path
         d="m0 2.7e5c0-149117 120883-2.7e5 2.7e5 -2.7e5s2.7e5 120883 2.7e5 2.7e5 -120883 2.7e5 -2.7e5 2.7e5 -2.7e5 -120883-2.7e5 -2.7e5z"
         fill="none"
         stroke="#fff"
         stroke-miterlimit="8"
         stroke-width="12700"
         id="path55" />
    </g>
    <g
       fill="#fff"
       id="g73">
      <path
         d="m431.65 163.44-106.51-20.267 1.1215-5.8943 106.51 20.267zm-104.69-13.812-16-12.206 19.365-5.4769z"
         id="path59" />
      <path
         d="m436.31 147.58-24.978-24.928 4.2384-4.2468 24.978 24.928zm-27.093-18.562-6.383-19.086 19.098 6.3449z"
         id="path61" />
      <path
         d="m470.67 147.53 29.548-30.886-4.3355-4.1476-29.548 30.886zm31.809-24.571 5.9395-19.228-18.946 6.7852z"
         id="path63" />
      <path
         d="m514.41 91.689-96.851-7.6505 0.4725-5.9814 96.851 7.6505zm-94.333-1.4328-17.235-10.389 18.653-7.5546z"
         id="path65" />
      <path
         d="m292.65 158.15 38.389 214.01-5.9057 1.0594-38.389-214.01zm43.765 210-5.6806 19.306-12.037-16.128z"
         id="path67" />
      <path
         d="m380.68 326.45 52.85 77.812-4.9634 3.3712-52.85-77.812zm56.128 71.96 2.6683 19.947-17.558-9.8334z"
         id="path69" />
      <path
         d="m432.92 436.37-72.574-7.9941 0.6569-5.964 72.574 7.9942zm-70.249-1.7017-16.906-10.917 18.877-6.9751z"
         id="path71" />
    </g>
    <g
       id="g83">
      <path
         d="m194.1 279.08c0 11.201 9.0805 20.282 20.282 20.282h435.65c11.201 0 20.282-9.0805 20.282-20.282v-49.567c0-11.201-9.0805-20.282-20.282-20.282h-435.65c-11.201 0-20.282 9.0805-20.282 20.282z"
         fill="#b5b5b5"
         fill-rule="evenodd"
         id="path75" />
      <path
         d="m534.15 367.97-54.202 39.168 3.5143 4.8632 54.202-39.168zm-55.284 32.548-9.318 17.837 19.861-3.248z"
         fill="#fff"
         id="path77" />
      <path
         d="m547.95 334.41-19.743-194.19 5.9692-0.6069 19.743 194.19zm-25.408-190.6 7.1333-18.818 10.774 16.997z"
         fill="#fff"
         id="path79" />
      <path
         d="m214.54 311.34c0 24.1 19.537 43.636 43.637 43.636h350.15c24.1 0 43.637-19.537 43.637-43.636v-104.32c0-24.1-19.537-43.637-43.637-43.637h-350.15c-24.1 0-43.637 19.537-43.637 43.637z"
         fill="#b18da5"
         fill-rule="evenodd"
         id="path81" />
    </g>
    <g
       transform="matrix(7.874e-5 0 0 -7.874e-5 214.54 354.98)"
       id="g87">
      <path
         d="m0 554184c0-306068 248117-554184 554184-554184h4446962c306067 0 554184 248117 554184 554184v1324829c0 306067-248117 554184-554184 554184h-4446962c-306068 0-554184-248117-554184-554184z"
         fill="none"
         stroke="#fff"
         stroke-miterlimit="8"
         stroke-width="76200"
         id="path85" />
    </g>
    <g
       transform="matrix(.24 0 0 .24 245.69 -312.72)"
       id="g93">
      <g
         aria-label="MetaverCE"
         transform="matrix(1,0,0,-1,0,2250)"
         id="text91"
         style="font-size:366.67px;font-family:'Roboto Condensed';fill:#ffffff">
        <path
           d="m 70.36197,-260.67946 68.03448,212.697251 68.03447,-212.697251 h 42.25299 V 0 H 215.91994 V -101.5146 L 218.96359,-203.20823 150.75007,0 H 125.68474 L 57.829304,-202.49208 60.872951,-101.5146 V 0 h -32.76397 v -260.67946 z"
           id="path387" />
        <path
           d="m 370.0108,3.5807618 q -17.3667,0 -31.33167,-5.1921046 -13.96497,-5.1921047 -23.81207,-15.7553522 -9.66805,-10.742286 -14.86016,-27.034752 -5.1921,-16.292466 -5.1921,-38.49319 v -21.842643 q 0,-25.60245 6.08729,-43.14818 6.0873,-17.72478 15.93439,-28.6461 10.02614,-11.10036 22.91688,-15.93439 12.89074,-4.83403 26.67668,-4.83403 18.26188,0 31.15262,6.0873 12.89075,5.90825 21.1265,17.54573 8.23575,11.63748 11.99555,28.6461 3.7598,17.00861 3.7598,39.20934 v 18.440921 H 326.3255 v 4.475952 q 0,31.152628 11.63748,45.296638 11.81651,14.144009 33.8382,14.144009 8.05671,0 14.50208,-1.611343 6.44537,-1.611343 11.81652,-4.475952 5.37114,-3.043648 9.84709,-6.982486 4.47595,-4.117876 8.41479,-8.951904 l 16.47151,20.052266 q -3.93884,5.550181 -9.48902,10.742285 -5.55018,5.1921051 -13.24882,9.3099812 -7.69864,3.9388381 -17.72477,6.4453714 -9.8471,2.5065332 -22.37976,2.5065332 z M 366.43004,-170.08619 q -8.23576,0 -15.21824,2.50654 -6.98249,2.50653 -12.35363,8.9519 -5.19211,6.26633 -8.41479,17.00862 -3.22269,10.74228 -3.93884,27.03475 h 76.27023 v -4.29691 q -0.53712,-11.2794 -2.50654,-20.58938 -1.79038,-9.48902 -5.90825,-16.29247 -3.93884,-6.80345 -10.74229,-10.56325 -6.80345,-3.7598 -17.18765,-3.7598 z"
           id="path389" />
        <path
           d="m 514.15323,-240.6272 v 46.90798 h 29.18321 v 25.60245 h -29.18321 v 120.134561 q 0,7.5196 1.43231,12.174591 1.4323,4.475952 3.7598,6.982485 2.32749,2.506533 5.1921,3.401724 3.04365,0.716152 6.26634,0.716152 3.22268,0 7.16152,-0.716152 3.93884,-0.895191 5.55018,-1.432305 L 543.1574,0 q -3.22268,1.0742286 -8.59382,2.3274952 -5.19211,1.2532666 -13.42786,1.2532666 -7.69864,0 -14.68112,-2.68557134 -6.98249,-2.50653326 -12.35363,-8.59382846 -5.19211,-6.087295 -8.41479,-15.93439 -3.04365,-10.026133 -3.04365,-24.528219 V -168.11677 h -29.54129 v -25.60245 h 29.54129 v -46.90798 z"
           id="path391" />
        <path
           d="m 680.69062,0 q -1.61134,-3.5807618 -2.68557,-9.1309427 -0.89519,-5.7292193 -1.43231,-11.9955523 -3.40172,5.013067 -7.87767,9.489019 -4.29692,4.4759523 -9.8471,7.8776761 -5.37114,3.40172372 -11.81651,5.3711427 -6.26633,1.969419 -13.42786,1.969419 -12.7117,0 -23.09591,-3.5807618 -10.20517,-3.5807618 -17.54574,-10.742286 -7.34056,-7.161523 -11.2794,-17.545733 -3.93883,-10.563247 -3.93883,-24.528218 0,-13.964972 4.83403,-25.781486 4.83402,-11.816514 14.32304,-20.410342 9.48902,-8.593825 23.81207,-13.427855 14.32305,-5.01307 33.30108,-5.01307 h 22.02169 v -20.58938 q 0,-17.36669 -7.69864,-24.70726 -7.69864,-7.34056 -23.45399,-7.34056 -7.69864,0 -13.78593,2.50654 -5.90826,2.32749 -10.02614,6.44537 -4.11787,4.11787 -6.26633,9.66805 -2.14846,5.37115 -2.14846,11.45844 H 580.9664 q 0,-10.38421 4.47595,-20.58938 4.65499,-10.38421 13.06979,-18.44092 8.59382,-8.23575 20.76841,-13.24882 12.17459,-5.01307 27.21379,-5.01307 13.42786,0 24.52822,3.22269 11.2794,3.22268 19.33612,10.38421 8.23575,7.16152 12.7117,18.44092 4.47595,11.2794 4.47595,27.57187 v 95.4273 q 0,4.834029 0.35808,10.205171 0.35808,5.371143 1.07423,10.563248 0.89519,5.192105 1.96942,10.026133 1.25326,4.6549905 2.68557,8.5938285 V 0 Z m -42.25299,-25.244371 q 6.62441,0 12.53267,-1.969419 5.90825,-1.969419 10.74228,-5.013067 4.83403,-3.222685 8.41479,-7.161523 3.7598,-4.117876 5.90826,-8.414791 v -46.191828 h -16.65054 q -11.45844,0 -20.76842,2.506534 -9.13094,2.506533 -15.75535,7.340562 -6.44538,4.65499 -10.02614,11.637476 -3.40172,6.982485 -3.40172,15.93439 0,8.772866 1.79038,14.860161 1.79038,5.908258 5.37114,9.668057 3.58076,3.580762 8.95191,5.192105 5.55018,1.611343 12.89074,1.611343 z"
           id="path393" />
        <path
           d="m 811.45447,-48.161247 36.70281,-145.557973 h 32.22686 L 822.91291,0 H 799.27988 L 741.0925,-193.71922 h 32.22686 z"
           id="path395" />
        <path
           d="m 982.5642,3.5807618 q -17.36669,0 -31.33166,-5.1921046 -13.96497,-5.1921047 -23.81207,-15.7553522 -9.66806,-10.742286 -14.86016,-27.034752 -5.19211,-16.292466 -5.19211,-38.49319 v -21.842643 q 0,-25.60245 6.0873,-43.14818 6.08729,-17.72478 15.93439,-28.6461 10.02613,-11.10036 22.91687,-15.93439 12.89075,-4.83403 26.67668,-4.83403 18.26189,0 31.15266,6.0873 12.8907,5.90825 21.1265,17.54573 8.2357,11.63748 11.9955,28.6461 3.7598,17.00861 3.7598,39.20934 v 18.440921 H 938.87891 v 4.475952 q 0,31.152628 11.63747,45.296638 11.81652,14.144009 33.8382,14.144009 8.05672,0 14.50209,-1.611343 6.44533,-1.611343 11.81653,-4.475952 5.3711,-3.043648 9.8471,-6.982486 4.4759,-4.117876 8.4148,-8.951904 l 16.4715,20.052266 q -3.9389,5.550181 -9.489,10.742285 -5.5502,5.1921051 -13.2489,9.3099812 -7.6986,3.9388381 -17.7247,6.4453714 -9.84713,2.5065332 -22.3798,2.5065332 z M 978.98344,-170.08619 q -8.23575,0 -15.21824,2.50654 -6.98248,2.50653 -12.35363,8.9519 -5.1921,6.26633 -8.41479,17.00862 -3.22268,10.74228 -3.93883,27.03475 h 76.27025 v -4.29691 q -0.5371,-11.2794 -2.5066,-20.58938 -1.7903,-9.48902 -5.9082,-16.29247 -3.9389,-6.80345 -10.7423,-10.56325 -6.80345,-3.7598 -17.18766,-3.7598 z"
           id="path397" />
        <path
           d="m 1165.1998,-163.99889 q -3.7598,-0.71616 -6.9825,-0.89519 -3.2227,-0.35808 -7.3405,-0.35808 -12.8908,0 -21.3056,7.16152 -8.2357,7.16153 -12.7117,19.51516 V 0 h -31.6897 v -193.71922 h 30.7945 l 0.5371,19.69419 q 5.9083,-10.74228 14.6812,-17.00861 8.9519,-6.26634 21.3055,-6.26634 1.4323,0 3.2227,0.35808 1.9694,0.17904 3.7598,0.53711 1.7904,0.35808 3.2227,0.89519 1.6113,0.35808 2.3275,0.71616 z"
           id="path399" />
        <path
           d="m 1364.5742,-82.715599 q -1.0743,20.231305 -6.8035,36.165695 -5.5502,15.93439 -15.9344,27.21379 -10.3842,11.1003617 -25.7814,17.0086188 -15.2183,5.908257 -35.4496,5.908257 -19.6942,0 -35.4495,-7.6986379 -15.7554,-7.6986379 -26.8557,-22.0216859 -11.1004,-14.323047 -17.1877,-34.554351 -5.9083,-20.231305 -5.9083,-45.475677 v -48.16125 q 0,-25.06533 5.9083,-45.29663 6.0873,-20.41035 17.3667,-34.73339 11.4584,-14.32305 27.9299,-22.02169 16.4715,-7.87767 37.24,-7.87767 18.978,0 33.4801,5.72921 14.6811,5.72922 24.8863,16.82959 10.2051,11.10036 15.9344,27.39282 5.7292,16.29247 6.6244,37.41896 h -33.1221 q -1.0742,-15.39727 -4.1178,-26.49763 -3.0437,-11.10036 -8.7729,-18.26189 -5.7292,-7.34056 -14.3231,-10.74228 -8.5938,-3.58077 -20.5893,-3.58077 -14.3231,0 -24.7073,5.90826 -10.3842,5.72922 -17.1877,16.29247 -6.8034,10.56325 -10.2051,25.60244 -3.2227,15.0392 -3.2227,33.48013 v 48.51932 q 0,17.187658 2.6856,32.04782 2.8646,14.860161 8.9519,25.960523 6.2663,11.100362 16.2924,17.545733 10.0262,6.266333 24.3492,6.266333 13.4279,0 22.5588,-3.222685 9.31,-3.401724 15.0392,-10.38421 5.9083,-7.161523 8.9519,-18.082847 3.0437,-11.100362 4.2969,-26.676676 z"
           id="path401" />
        <path
           d="m 1533.9076,-120.49264 h -92.2046 v 92.383659 h 107.4229 V 0 h -140.1868 v -260.67946 h 138.3964 v 28.28802 H 1441.703 v 83.78982 h 92.2046 z"
           id="path403" />
      </g>
    </g>
  </g>
</svg>
