<?xml version="1.0" encoding="UTF-8" standalone="no"?>
<!DOCTYPE svg PUBLIC "-//W3C//DTD SVG 1.1//EN" "http://www.w3.org/Graphics/SVG/1.1/DTD/svg11.dtd">
<svg width="210" height="60" viewBox="0 0 210 60" xmlns="http://www.w3.org/2000/svg">
  <circle fill="#232221" cx="50.341736" cy="28.620461" r="3.8895092" />
  <circle fill="#9e9d9d" cx="35.413223" cy="28.620461" r="3.8895092" />
  <circle fill="#9e9d9d" cx="20.484001" cy="28.620461" r="3.8895092" />
  <circle fill="#232221" cx="43.007816" cy="40.582817" r="3.8895092" />
  <circle fill="#9e9d9d" cx="28.079306" cy="40.582817" r="3.8895092" />
  <circle fill="#9e9d9d" cx="13.150084" cy="40.582817" r="3.8895092" />
  <circle fill="#232221" cx="43.007816" cy="16.658461" r="3.8895092" />
  <circle fill="#9e9d9d" cx="28.079306" cy="16.658461" r="3.8895092" />
  <circle fill="#9e9d9d" cx="13.150084" cy="16.658461" r="3.8895092" />
  <circle fill="#232221" cx="35.673733" cy="52.54446" r="3.8895092" />
  <circle fill="#9e9d9d" cx="20.745224" cy="52.54446" r="3.8895092" />
  <circle fill="#9e9d9d" cx="5.8160014" cy="52.54446" r="3.8895092" />
  <circle fill="#232221" cx="35.673733" cy="4.6964612" r="3.8895092" />
  <circle fill="#9e9d9d" cx="20.745224" cy="4.6964612" r="3.8895092" />
  <circle fill="#9e9d9d" cx="5.8160014" cy="4.6964612" r="3.8895092" />
  <path fill="#242322" d="M 79.389357,1.3107191 69.244826,25.177906 h 4.261719 l 2.542969,-5.908203 h 9.93164 l 2.279297,5.908203 h 4.648438 L 83.32881,1.3107191 Z m 1.775391,4.982422 3.494141,9.3730469 h -7.179688 z" />
  <path fill="#242322" d="m 92.737,1.3107191 v 3.74414 h 7.58008 V 25.177906 h 4.05469 V 5.0548591 h 7.61133 v -3.74414 z" />
  <path fill="#242322" d="M 117.018,1.3107191 V 25.177906 h 4.11719 V 14.789235 h 10.23828 v 10.388671 h 4.03907 V 1.3107191 h -4.03907 V 11.060719 H 121.13519 V 1.3107191 Z" />
  <path fill="#242322" d="M 142.368,1.3107191 V 25.177906 l 16.94921,-0.002 v -3.728515 l -12.89453,0.0019 V 14.666088 H 158.0887 V 10.968922 H 146.42268 V 5.0236091 h 12.63086 v -3.71289 z" />
  <path fill="#242322" d="M 165.01241,1.3107191 V 25.177906 h 3.82226 V 7.1251721 l 10.57617,18.0527339 h 4.53907 V 1.3107191 h -3.75977 V 18.603688 L 170.15694,1.3107191 Z" />
  <path fill="#242322" d="M 189.18623,1.3107191 V 25.177906 l 16.94922,-0.002 v -3.728515 l -12.89648,0.0019 v -6.783203 h 11.66797 V 10.968922 H 193.23897 V 5.0236091 h 12.63281 v -3.71289 z" />
  <path fill="#242322" d="m 75.325468,41.230334 q -0.02756,-0.489203 -0.04134,-0.950846 -0.01378,-0.468532 -0.01378,-0.909504 v -7.131342 h 1.240234 v 10.163023 h -1.819011 l -3.906735,-9.239738 q 0.05512,0.654567 0.08268,1.1231 0.02756,0.468532 0.02756,0.792371 v 7.324267 h -1.21267 V 32.238642 h 1.908581 z" />
  <path fill="#242322" d="m 79.578036,37.165124 h -1.302245 v -0.137803 q 0,-0.923285 0.633897,-1.398708 0.640788,-0.482313 1.881021,-0.482313 1.226453,0 1.805229,0.502983 0.578775,0.496094 0.578775,1.557182 v 3.30729 q 0,0.489203 0.02756,0.964626 0.03445,0.468532 0.09646,0.923284 H 82.08606 l -0.08268,-0.888834 q -0.35829,0.461643 -0.833713,0.70969 -0.475423,0.248046 -0.999077,0.248046 -0.902614,0 -1.467609,-0.599446 -0.564996,-0.599446 -0.564996,-1.570962 0,-1.219563 0.785482,-1.83968 0.792371,-0.620116 2.356443,-0.620116 h 0.682129 v -0.3514 q 0,-0.833712 -0.248047,-1.150661 -0.241157,-0.316948 -0.840603,-0.316948 -0.640787,0 -0.971516,0.275607 -0.323839,0.268717 -0.323839,0.799261 z m 2.397785,1.522731 q -1.46761,0 -2.046385,0.34451 -0.578776,0.337619 -0.578776,1.150661 0,0.523654 0.316949,0.875053 0.316948,0.34451 0.799261,0.34451 0.71658,0 1.10932,-0.558106 0.399631,-0.564995 0.399631,-1.605413 z" />
  <path fill="#242322" d="m 86.503997,33.313511 v 2.005044 h 1.412488 v 0.875053 h -1.412488 v 4.244355 q 0,0.571885 0.172254,0.792371 0.179145,0.213596 0.647678,0.213596 0.165364,0 0.551215,-0.02756 h 0.04134 l -0.0069,0.916395 q -0.282498,0.06201 -0.530545,0.08957 -0.248046,0.03445 -0.461642,0.03445 -0.895724,0 -1.260904,-0.3514 -0.36518,-0.351399 -0.36518,-1.240233 v -4.671546 h -1.074869 v -0.875053 h 1.074869 v -1.426267 z" />
  <path fill="#242322" d="m 89.199382,33.540887 v -1.302245 h 1.171332 v 1.302245 z m 0,8.860778 v -7.08311 h 1.171332 v 7.08311 z" />
  <path fill="#242322" d="m 92.032573,38.84633 q 0,-1.936143 0.633897,-2.811196 0.640787,-0.875054 2.032605,-0.875054 1.398707,0 2.025714,0.875054 0.627007,0.868163 0.627007,2.824976 0,1.956813 -0.633897,2.838756 -0.627007,0.875054 -2.018824,0.875054 -1.405598,0 -2.039495,-0.875054 -0.627007,-0.881943 -0.627007,-2.852536 z m 2.666502,-2.652722 q -0.757921,0 -1.09554,0.620117 -0.330729,0.620117 -0.330729,2.046385 0,1.453829 0.330729,2.067056 0.330729,0.613226 1.09554,0.613226 0.75792,0 1.081759,-0.613226 0.330729,-0.613227 0.330729,-2.053276 0,-1.460719 -0.330729,-2.067055 -0.323839,-0.613227 -1.081759,-0.613227 z" />
  <path fill="#242322" d="m 102.6999,42.401665 v -4.526852 q 0,-1.033527 -0.26871,-1.412488 -0.26183,-0.38585 -0.90262,-0.38585 -0.72347,0 -1.0542,0.537434 -0.33073,0.530545 -0.33073,1.694986 v 4.09277 h -1.212668 v -5.9669 q 0,-0.227376 -0.02067,-0.502984 -0.01378,-0.275607 -0.04823,-0.613226 h 1.240228 l 0.0551,0.819932 q 0.37207,-0.516764 0.81994,-0.751031 0.45475,-0.241156 1.05419,-0.241156 0.87506,0 1.38493,0.516764 0.50988,0.509874 0.50988,1.391817 v 5.346784 z" />
  <path fill="#242322" d="m 107.02089,37.165124 h -1.30225 v -0.137803 q 0,-0.923285 0.6339,-1.398708 0.64079,-0.482313 1.88102,-0.482313 1.22645,0 1.80523,0.502983 0.57877,0.496094 0.57877,1.557182 v 3.30729 q 0,0.489203 0.0276,0.964626 0.0344,0.468532 0.0965,0.923284 h -1.21267 l -0.0827,-0.888834 q -0.35829,0.461643 -0.83371,0.70969 -0.47542,0.248046 -0.99908,0.248046 -0.90261,0 -1.46761,-0.599446 -0.56499,-0.599446 -0.56499,-1.570962 0,-1.219563 0.78548,-1.83968 0.79237,-0.620116 2.35644,-0.620116 h 0.68213 v -0.3514 q 0,-0.833712 -0.24804,-1.150661 -0.24116,-0.316948 -0.84061,-0.316948 -0.64078,0 -0.97151,0.275607 -0.32384,0.268717 -0.32384,0.799261 z m 2.39778,1.522731 q -1.46761,0 -2.04638,0.34451 -0.57878,0.337619 -0.57878,1.150661 0,0.523654 0.31695,0.875053 0.31695,0.34451 0.79926,0.34451 0.71658,0 1.10932,-0.558106 0.39963,-0.564995 0.39963,-1.605413 z" />
  <path fill="#242322" d="m 113.54033,42.401665 h -1.21268 V 32.238642 h 1.21268 z" />
  <path fill="#242322" d="m 120.15158,36.655251 h 0.9853 q 1.10243,0 1.59852,-0.427192 0.50299,-0.427191 0.50299,-1.378037 0,-0.778591 -0.39274,-1.164441 -0.39274,-0.385851 -1.18512,-0.385851 h -1.50895 z m 1.32292,-4.416609 q 1.62608,0 2.36333,0.585665 0.74414,0.585666 0.74414,1.86035 0,1.012858 -0.43408,1.626084 -0.42719,0.606337 -1.31602,0.854383 0.81993,0.08957 1.16444,0.571886 0.34451,0.475423 0.34451,1.557182 0,0.213595 -0.007,0.558105 -0.007,0.337619 -0.007,0.475423 0,0.578775 0.062,1.095539 0.0689,0.509874 0.2067,0.978406 h -1.38492 q -0.20671,-0.682128 -0.22049,-2.266871 -0.007,-0.571885 -0.0207,-0.881943 -0.0207,-0.833713 -0.29628,-1.164442 -0.26872,-0.330729 -0.91639,-0.330729 h -1.60542 v 4.643985 H 118.808 V 32.238642 Z" />
  <path fill="#242322" d="m 127.29114,38.226213 h 2.7354 v -0.606336 q 0,-0.799262 -0.33073,-1.212673 -0.33073,-0.413411 -0.97151,-0.413411 -0.71658,0 -1.06798,0.537434 -0.34451,0.537435 -0.36518,1.694986 z m 3.93429,1.956813 q -0.0551,1.1231 -0.73036,1.756997 -0.66834,0.633897 -1.81212,0.633897 -1.41937,0 -2.03949,-0.868163 -0.61323,-0.868164 -0.61323,-2.900768 0,-1.908582 0.6339,-2.776745 0.6339,-0.868164 2.01882,-0.868164 1.31603,0 1.92926,0.695909 0.61322,0.689019 0.61322,2.184189 v 1.10243 h -3.94118 v 0.406521 q 0,1.047308 0.33073,1.522731 0.33762,0.468532 1.06797,0.468532 0.55811,0 0.89573,-0.351399 0.34451,-0.3514 0.43408,-1.005967 z" />
  <path fill="#242322" d="m 132.46699,40.245037 h 1.32291 q 0.0207,0.647678 0.32384,0.985297 0.30317,0.337619 0.87506,0.337619 0.52365,0 0.8406,-0.254937 0.31695,-0.261827 0.31695,-0.689018 0,-0.316949 -0.24116,-0.578776 -0.23426,-0.261827 -0.78548,-0.551215 l -1.28846,-0.661458 q -0.69591,-0.36518 -0.9853,-0.73725 -0.2825,-0.37896 -0.2825,-0.930175 0,-0.909504 0.67524,-1.467609 0.67524,-0.564995 1.77767,-0.564995 1.07487,0 1.70187,0.509873 0.62701,0.509874 0.62701,1.384928 v 0.124023 h -1.29535 q 0,-0.523654 -0.30317,-0.819932 -0.30317,-0.296278 -0.84061,-0.296278 -0.47542,0 -0.77859,0.254937 -0.29627,0.248046 -0.29627,0.633897 0,0.268717 0.16536,0.468532 0.16536,0.199816 0.55811,0.392741 l 1.17133,0.578776 q 1.00596,0.502983 1.37114,0.950845 0.36518,0.440972 0.36518,1.09554 0,0.985296 -0.68901,1.577852 -0.68213,0.585666 -1.8259,0.585666 -1.21957,0 -1.84657,-0.592556 -0.62701,-0.592556 -0.6339,-1.736327 z" />
  <path fill="#242322" d="m 140.03374,38.226213 h 2.7354 v -0.606336 q 0,-0.799262 -0.33072,-1.212673 -0.33073,-0.413411 -0.97152,-0.413411 -0.71658,0 -1.06798,0.537434 -0.34451,0.537435 -0.36518,1.694986 z m 3.9343,1.956813 q -0.0551,1.1231 -0.73036,1.756997 -0.66835,0.633897 -1.81212,0.633897 -1.41938,0 -2.0395,-0.868163 -0.61322,-0.868164 -0.61322,-2.900768 0,-1.908582 0.63389,-2.776745 0.6339,-0.868164 2.01883,-0.868164 1.31602,0 1.92925,0.695909 0.61323,0.689019 0.61323,2.184189 v 1.10243 h -3.94119 v 0.406521 q 0,1.047308 0.33073,1.522731 0.33762,0.468532 1.06798,0.468532 0.5581,0 0.89572,-0.351399 0.34451,-0.3514 0.43408,-1.005967 z" />
  <path fill="#242322" d="m 146.64964,37.165124 h -1.30224 v -0.137803 q 0,-0.923285 0.63389,-1.398708 0.64079,-0.482313 1.88102,-0.482313 1.22646,0 1.80523,0.502983 0.57878,0.496094 0.57878,1.557182 v 3.30729 q 0,0.489203 0.0276,0.964626 0.0345,0.468532 0.0965,0.923284 h -1.21267 l -0.0827,-0.888834 q -0.35829,0.461643 -0.83372,0.70969 -0.47542,0.248046 -0.99907,0.248046 -0.90262,0 -1.46761,-0.599446 -0.565,-0.599446 -0.565,-1.570962 0,-1.219563 0.78548,-1.83968 0.79238,-0.620116 2.35645,-0.620116 h 0.68213 v -0.3514 q 0,-0.833712 -0.24805,-1.150661 -0.24116,-0.316948 -0.8406,-0.316948 -0.64079,0 -0.97152,0.275607 -0.32384,0.268717 -0.32384,0.799261 z m 2.39779,1.522731 q -1.46761,0 -2.04639,0.34451 -0.57877,0.337619 -0.57877,1.150661 0,0.523654 0.31694,0.875053 0.31695,0.34451 0.79927,0.34451 0.71657,0 1.10932,-0.558106 0.39963,-0.564995 0.39963,-1.605413 z" />
  <path fill="#242322" d="m 153.0795,35.304774 0.11714,0.930175 q 0.19292,-0.530544 0.64767,-0.813042 0.45476,-0.289387 1.12999,-0.289387 0.0344,0 0.10336,0.0069 0.0758,0.0069 0.12402,0.0069 v 1.247124 q -0.062,0 -0.16536,-0.0069 -0.10336,-0.0069 -0.1447,-0.0069 -0.91639,0 -1.30913,0.399631 -0.38585,0.392741 -0.38585,1.329806 v 4.292585 h -1.21268 v -5.897998 q 0,-0.08268 -0.0758,-0.813042 -0.0276,-0.248047 -0.0413,-0.385851 z" />
  <path fill="#242322" d="m 160.52992,40.003881 h 1.21956 q -0.0207,1.219563 -0.69591,1.894801 -0.66835,0.675238 -1.85346,0.675238 -1.39871,0 -2.02571,-0.868163 -0.62701,-0.868164 -0.62701,-2.831867 0,-1.963703 0.62701,-2.838756 0.627,-0.875054 2.02571,-0.875054 1.12999,0 1.81901,0.606337 0.69591,0.599446 0.69591,1.584742 v 0.151584 h -1.19889 q 0,-0.620116 -0.33073,-0.964626 -0.32384,-0.344509 -0.9164,-0.344509 -0.80615,0 -1.14377,0.592556 -0.33762,0.592556 -0.33762,2.087726 0,1.45383 0.32384,2.060166 0.33073,0.606336 1.08865,0.606336 0.59256,0 0.95085,-0.413411 0.35828,-0.420301 0.37896,-1.1231 z" />
  <path fill="#242322" d="m 167.02179,42.401665 v -4.526852 q 0,-1.033527 -0.26871,-1.412488 -0.26183,-0.38585 -0.90262,-0.38585 -0.72347,0 -1.0542,0.537434 -0.33073,0.530545 -0.33073,1.694986 v 4.09277 h -1.21267 V 32.238642 h 1.21267 v 3.899845 q 0.39274,-0.523654 0.84061,-0.757921 0.44786,-0.234266 1.0473,-0.234266 0.87506,0 1.38493,0.516764 0.50988,0.509874 0.50988,1.391817 v 5.346784 z" />
  <path fill="#242322" d="m 179.19013,39.266631 v 0.227376 q 0,1.446939 -0.76481,2.259981 -0.76481,0.806152 -2.12907,0.806152 -0.64768,0 -1.21267,-0.186035 -0.55811,-0.186035 -0.90262,-0.509874 -0.57877,-0.530544 -0.81993,-1.529621 -0.23426,-0.999077 -0.23426,-3.238388 0,-1.564072 0.14469,-2.404674 0.15158,-0.840603 0.50298,-1.405598 0.34451,-0.564995 0.99219,-0.868164 0.65457,-0.303168 1.51584,-0.303168 1.38493,0 2.1084,0.778591 0.73036,0.771701 0.73036,2.253091 h -1.42627 v -0.151584 q 0,-0.909505 -0.36518,-1.357367 -0.35829,-0.447862 -1.08865,-0.447862 -0.46164,0 -0.81304,0.179145 -0.34451,0.179145 -0.55811,0.523654 -0.21359,0.344509 -0.30317,1.047308 -0.0896,0.695909 -0.0896,2.652722 0,2.308212 0.38585,3.093693 0.39274,0.785481 1.37804,0.785481 0.78548,0 1.15755,-0.509873 0.37896,-0.516764 0.37896,-1.577853 v -0.117133 z" />
  <path fill="#242322" d="m 181.98887,38.226213 h 2.73541 v -0.606336 q 0,-0.799262 -0.33073,-1.212673 -0.33073,-0.413411 -0.97152,-0.413411 -0.71658,0 -1.06798,0.537434 -0.34451,0.537435 -0.36518,1.694986 z m 3.9343,1.956813 q -0.0551,1.1231 -0.73036,1.756997 -0.66835,0.633897 -1.81212,0.633897 -1.41938,0 -2.0395,-0.868163 -0.61322,-0.868164 -0.61322,-2.900768 0,-1.908582 0.6339,-2.776745 0.63389,-0.868164 2.01882,-0.868164 1.31603,0 1.92925,0.695909 0.61323,0.689019 0.61323,2.184189 v 1.10243 h -3.94119 v 0.406521 q 0,1.047308 0.33073,1.522731 0.33762,0.468532 1.06798,0.468532 0.5581,0 0.89572,-0.351399 0.34451,-0.3514 0.43409,-1.005967 z" />
  <path fill="#242322" d="m 191.20237,42.401665 v -4.526852 q 0,-1.033527 -0.26871,-1.412488 -0.26183,-0.38585 -0.90262,-0.38585 -0.72347,0 -1.0542,0.537434 -0.33073,0.530545 -0.33073,1.694986 v 4.09277 h -1.21267 v -5.9669 q 0,-0.227376 -0.0207,-0.502984 -0.0138,-0.275607 -0.0482,-0.613226 h 1.24023 l 0.0551,0.819932 q 0.37207,-0.516764 0.81994,-0.751031 0.45475,-0.241156 1.05419,-0.241156 0.87506,0 1.38493,0.516764 0.50988,0.509874 0.50988,1.391817 v 5.346784 z" />
  <path fill="#242322" d="m 195.72365,33.313511 v 2.005044 h 1.41249 v 0.875053 h -1.41249 v 4.244355 q 0,0.571885 0.17226,0.792371 0.17914,0.213596 0.64767,0.213596 0.16537,0 0.55122,-0.02756 h 0.0413 l -0.007,0.916395 q -0.2825,0.06201 -0.53054,0.08957 -0.24805,0.03445 -0.46165,0.03445 -0.89572,0 -1.2609,-0.3514 -0.36518,-0.351399 -0.36518,-1.240233 v -4.671546 h -1.07487 v -0.875053 h 1.07487 v -1.426267 z" />
  <path fill="#242322" d="m 199.41123,38.226213 h 2.7354 v -0.606336 q 0,-0.799262 -0.33073,-1.212673 -0.33073,-0.413411 -0.97151,-0.413411 -0.71658,0 -1.06798,0.537434 -0.34451,0.537435 -0.36518,1.694986 z m 3.93429,1.956813 q -0.0551,1.1231 -0.73036,1.756997 -0.66834,0.633897 -1.81211,0.633897 -1.41938,0 -2.0395,-0.868163 -0.61323,-0.868164 -0.61323,-2.900768 0,-1.908582 0.6339,-2.776745 0.6339,-0.868164 2.01883,-0.868164 1.31602,0 1.92925,0.695909 0.61322,0.689019 0.61322,2.184189 v 1.10243 h -3.94118 v 0.406521 q 0,1.047308 0.33073,1.522731 0.33762,0.468532 1.06798,0.468532 0.5581,0 0.89572,-0.351399 0.34451,-0.3514 0.43408,-1.005967 z" />
  <path fill="#242322" d="m 205.95134,35.304774 0.11713,0.930175 q 0.19292,-0.530544 0.64768,-0.813042 0.45475,-0.289387 1.12999,-0.289387 0.0345,0 0.10335,0.0069 0.0758,0.0069 0.12402,0.0069 v 1.247124 q -0.062,0 -0.16536,-0.0069 -0.10335,-0.0069 -0.14469,-0.0069 -0.9164,0 -1.30914,0.399631 -0.38585,0.392741 -0.38585,1.329806 v 4.292585 h -1.21267 v -5.897998 q 0,-0.08268 -0.0758,-0.813042 -0.0276,-0.248047 -0.0413,-0.385851 z" />
  <path fill="#242322" d="M 69.799539,48.216982 V 47.76223 q 0,-0.502984 0.110243,-0.757921 0.117133,-0.254936 0.37896,-0.440971 0.282498,-0.186035 0.695909,-0.275608 0.413411,-0.08957 1.026638,-0.08957 h 0.310058 v 0.957736 q -0.799262,0.02067 -1.061089,0.248046 -0.261827,0.227376 -0.261827,1.178222 v 0.847493 h 1.322916 v 0.875053 h -1.322916 v 6.208058 H 69.799539 V 50.30471 h -0.992187 v -0.875053 h 0.992187 z" />
  <path fill="#242322" d="m 73.149493,52.95743 q 0,-1.936142 0.633897,-2.811196 0.640787,-0.875053 2.032605,-0.875053 1.398707,0 2.025714,0.875053 0.627007,0.868163 0.627007,2.824976 0,1.956813 -0.633897,2.838757 -0.627007,0.875053 -2.018824,0.875053 -1.405598,0 -2.039495,-0.875053 -0.627007,-0.881944 -0.627007,-2.852537 z m 2.666502,-2.652722 q -0.757921,0 -1.09554,0.620117 -0.330729,0.620117 -0.330729,2.046385 0,1.453829 0.330729,2.067056 0.330729,0.613226 1.09554,0.613226 0.75792,0 1.081759,-0.613226 0.330729,-0.613227 0.330729,-2.053275 0,-1.46072 -0.330729,-2.067056 -0.323839,-0.613227 -1.081759,-0.613227 z" />
  <path fill="#242322" d="m 81.143432,49.415874 0.117133,0.930175 q 0.192925,-0.530544 0.647678,-0.813041 0.454752,-0.289388 1.12999,-0.289388 0.03445,0 0.103353,0.0069 0.07579,0.0069 0.124023,0.0069 v 1.247124 q -0.06201,0 -0.165364,-0.0069 -0.103353,-0.0069 -0.144694,-0.0069 -0.916395,0 -1.309136,0.399631 -0.38585,0.392741 -0.38585,1.329806 v 4.292586 h -1.212673 v -5.897999 q 0,-0.08268 -0.07579,-0.813042 -0.02756,-0.248047 -0.04134,-0.385851 z" />
  <path fill="#242322" d="m 89.225701,52.847187 h 2.907658 l -1.426268,-4.912703 z m 3.941186,3.665579 -0.682128,-2.466687 h -3.596677 l -0.702799,2.466687 h -1.453829 l 3.190155,-10.163024 h 1.605414 l 3.107473,10.163024 z" />
  <path fill="#242322" d="m 96.999154,52.998771 q 0,1.378037 0.351399,2.018824 0.3514,0.633897 1.10243,0.633897 0.682128,0 0.992187,-0.640787 0.316948,-0.647677 0.316948,-2.067056 0,-1.577852 -0.316948,-2.184188 -0.316949,-0.613227 -1.08176,-0.613227 -0.716579,0 -1.040418,0.668348 -0.323838,0.668348 -0.323838,2.184189 z m -1.212673,6.194277 v -8.509379 q 0,-0.544325 -0.01378,-0.799262 -0.01378,-0.254937 -0.04823,-0.454752 h 1.247122 l 0.0689,0.675238 q 0.330729,-0.434082 0.73725,-0.647677 0.413411,-0.213596 0.930175,-0.213596 1.192002,0 1.750102,0.875053 0.55811,0.875054 0.55811,2.756075 0,1.949922 -0.565,2.880097 -0.564991,0.930175 -1.743212,0.930175 -0.544325,0 -0.971517,-0.241156 -0.420301,-0.248047 -0.723469,-0.73725 v 3.486434 z" />
  <path fill="#242322" d="m 103.78731,52.998771 q 0,1.378037 0.3514,2.018824 0.3514,0.633897 1.10243,0.633897 0.68213,0 0.99219,-0.640787 0.31694,-0.647677 0.31694,-2.067056 0,-1.577852 -0.31694,-2.184188 -0.31695,-0.613227 -1.08176,-0.613227 -0.71658,0 -1.04042,0.668348 -0.32384,0.668348 -0.32384,2.184189 z m -1.21267,6.194277 v -8.509379 q 0,-0.544325 -0.0138,-0.799262 -0.0138,-0.254937 -0.0482,-0.454752 h 1.24712 l 0.0689,0.675238 q 0.33073,-0.434082 0.73725,-0.647677 0.41341,-0.213596 0.93017,-0.213596 1.19201,0 1.75011,0.875053 0.55811,0.875054 0.55811,2.756075 0,1.949922 -0.565,2.880097 -0.56499,0.930175 -1.74322,0.930175 -0.54432,0 -0.97151,-0.241156 -0.4203,-0.248047 -0.72347,-0.73725 v 3.486434 z" />
  <path fill="#242322" d="m 110.56169,56.512766 h -1.21268 V 46.349742 h 1.21268 z" />
  <path fill="#242322" d="m 112.38891,47.651987 v -1.302245 h 1.17133 v 1.302245 z m 0,8.860779 v -7.083111 h 1.17133 v 7.083111 z" />
  <path fill="#242322" d="m 116.49678,52.337313 h 2.73542 v -0.606336 q 0,-0.799262 -0.33073,-1.212673 -0.33074,-0.413411 -0.97152,-0.413411 -0.71658,0 -1.06798,0.537434 -0.34452,0.537435 -0.36519,1.694986 z m 3.93431,1.956813 q -0.0551,1.1231 -0.73036,1.756997 -0.66835,0.633897 -1.81213,0.633897 -1.41938,0 -2.03949,-0.868163 -0.61323,-0.868164 -0.61323,-2.900768 0,-1.908582 0.6339,-2.776745 0.63389,-0.868163 2.01882,-0.868163 1.31603,0 1.92926,0.695908 0.61323,0.689019 0.61323,2.184189 v 1.10243 h -3.9412 v 0.406521 q 0,1.047308 0.33074,1.522731 0.33761,0.468532 1.06797,0.468532 0.55811,0 0.89573,-0.351399 0.34451,-0.3514 0.43408,-1.005967 z" />
  <path fill="#242322" d="m 125.75163,50.208246 v -3.858504 h 1.22646 v 8.895229 q 0,0.544325 0.0138,0.799262 0.0138,0.254937 0.0413,0.454752 h -1.19889 l -0.0689,-0.689018 q -0.33762,0.440972 -0.75103,0.654567 -0.41341,0.206706 -0.94395,0.206706 -1.19889,0 -1.76389,-0.875054 -0.56499,-0.875053 -0.56499,-2.742294 0,-1.949922 0.56499,-2.880097 0.565,-0.930175 1.75011,-0.930175 0.54432,0 0.96462,0.241156 0.4272,0.241157 0.73036,0.72347 z m -1.42627,0.0689 q -0.68212,0 -1.01285,0.654567 -0.33073,0.654568 -0.33073,2.011934 0,1.584743 0.31695,2.20486 0.32384,0.613226 1.09554,0.613226 0.70969,0 1.03352,-0.654567 0.32384,-0.654568 0.32384,-2.122177 0,-1.446939 -0.33762,-2.073946 -0.33761,-0.633897 -1.08865,-0.633897 z" />
  <path fill="#242322" d="m 137.8382,53.377731 v 0.227376 q 0,1.446939 -0.76481,2.259981 -0.76481,0.806152 -2.12907,0.806152 -0.64768,0 -1.21267,-0.186035 -0.55811,-0.186035 -0.90262,-0.509874 -0.57877,-0.530544 -0.81993,-1.529621 -0.23426,-0.999077 -0.23426,-3.238387 0,-1.564072 0.14469,-2.404675 0.15158,-0.840603 0.50298,-1.405598 0.34451,-0.564995 0.99219,-0.868163 0.65457,-0.303169 1.51584,-0.303169 1.38493,0 2.1084,0.778591 0.73036,0.771701 0.73036,2.253091 h -1.42627 v -0.151584 q 0,-0.909504 -0.36518,-1.357367 -0.35829,-0.447862 -1.08865,-0.447862 -0.46164,0 -0.81304,0.179145 -0.34451,0.179145 -0.55811,0.523654 -0.21359,0.34451 -0.30316,1.047309 -0.0896,0.695908 -0.0896,2.652721 0,2.308212 0.38585,3.093693 0.39274,0.785482 1.37804,0.785482 0.78548,0 1.15755,-0.509874 0.37896,-0.516764 0.37896,-1.577853 v -0.117133 z" />
  <path fill="#242322" d="m 141.74626,59.193048 h -1.1989 l 0.77859,-2.680282 -2.43223,-7.083111 h 1.42627 l 1.69498,5.601721 1.68121,-5.601721 h 1.30913 z" />
  <path fill="#242322" d="m 148.74801,50.277148 q -0.75103,0 -1.09554,0.633897 -0.34451,0.627007 -0.34451,2.005044 0,1.515841 0.32384,2.184189 0.32384,0.661457 1.04042,0.661457 0.7717,0 1.08176,-0.599446 0.31695,-0.606336 0.31695,-2.177298 0,-1.405598 -0.31695,-2.053276 -0.31695,-0.654567 -1.00597,-0.654567 z m -2.72162,6.235618 q 0.0344,-0.248047 0.0482,-0.551215 0.0207,-0.303168 0.0207,-0.71658 v -8.895229 h 1.22645 v 3.858504 q 0.30317,-0.482313 0.72347,-0.72347 0.4203,-0.241156 0.97152,-0.241156 1.17822,0 1.74321,0.930175 0.565,0.930175 0.565,2.880097 0,1.867241 -0.57878,2.756075 -0.57188,0.888834 -1.79145,0.888834 -0.5581,0 -0.97151,-0.206706 -0.40652,-0.213596 -0.64768,-0.627007 l -0.15847,0.647678 z" />
  <path fill="#242322" d="m 153.99965,52.337313 h 2.73541 v -0.606336 q 0,-0.799262 -0.33073,-1.212673 -0.33073,-0.413411 -0.97152,-0.413411 -0.71658,0 -1.06798,0.537434 -0.34451,0.537435 -0.36518,1.694986 z m 3.9343,1.956813 q -0.0551,1.1231 -0.73036,1.756997 -0.66835,0.633897 -1.81212,0.633897 -1.41938,0 -2.03949,-0.868163 -0.61323,-0.868164 -0.61323,-2.900768 0,-1.908582 0.6339,-2.776745 0.63389,-0.868163 2.01882,-0.868163 1.31603,0 1.92925,0.695908 0.61323,0.689019 0.61323,2.184189 v 1.10243 h -3.94119 v 0.406521 q 0,1.047308 0.33073,1.522731 0.33762,0.468532 1.06798,0.468532 0.55811,0 0.89572,-0.351399 0.34451,-0.3514 0.43409,-1.005967 z" />
  <path fill="#242322" d="m 160.53976,49.415874 0.11713,0.930175 q 0.19293,-0.530544 0.64768,-0.813041 0.45475,-0.289388 1.12999,-0.289388 0.0344,0 0.10335,0.0069 0.0758,0.0069 0.12403,0.0069 v 1.247124 q -0.062,0 -0.16537,-0.0069 -0.10335,-0.0069 -0.14469,-0.0069 -0.91639,0 -1.30914,0.399631 -0.38585,0.392741 -0.38585,1.329806 v 4.292586 h -1.21267 v -5.897999 q 0,-0.08268 -0.0758,-0.813042 -0.0276,-0.248047 -0.0413,-0.385851 z" />
  <path fill="#242322" d="m 163.42119,54.356138 h 1.32291 q 0.0207,0.647677 0.32384,0.985296 0.30317,0.337619 0.87505,0.337619 0.52366,0 0.84061,-0.254937 0.31695,-0.261827 0.31695,-0.689018 0,-0.316949 -0.24116,-0.578776 -0.23427,-0.261827 -0.78548,-0.551215 l -1.28847,-0.661458 q -0.69591,-0.365179 -0.98529,-0.737249 -0.2825,-0.378961 -0.2825,-0.930175 0,-0.909505 0.67524,-1.46761 0.67524,-0.564995 1.77766,-0.564995 1.07487,0 1.70188,0.509874 0.62701,0.509873 0.62701,1.384927 v 0.124023 h -1.29536 q 0,-0.523654 -0.30317,-0.819932 -0.30316,-0.296278 -0.8406,-0.296278 -0.47542,0 -0.77859,0.254937 -0.29628,0.248047 -0.29628,0.633897 0,0.268717 0.16537,0.468533 0.16536,0.199815 0.5581,0.39274 l 1.17133,0.578776 q 1.00597,0.502983 1.37115,0.950845 0.36518,0.440972 0.36518,1.09554 0,0.985297 -0.68902,1.577852 -0.68213,0.585666 -1.8259,0.585666 -1.21956,0 -1.84657,-0.592556 -0.627,-0.592556 -0.63389,-1.736326 z" />
  <path fill="#242322" d="m 170.98793,52.337313 h 2.73541 v -0.606336 q 0,-0.799262 -0.33073,-1.212673 -0.33073,-0.413411 -0.97152,-0.413411 -0.71658,0 -1.06798,0.537434 -0.34451,0.537435 -0.36518,1.694986 z m 3.9343,1.956813 q -0.0551,1.1231 -0.73036,1.756997 -0.66835,0.633897 -1.81212,0.633897 -1.41938,0 -2.03949,-0.868163 -0.61323,-0.868164 -0.61323,-2.900768 0,-1.908582 0.6339,-2.776745 0.63389,-0.868163 2.01882,-0.868163 1.31603,0 1.92925,0.695908 0.61323,0.689019 0.61323,2.184189 v 1.10243 h -3.94119 v 0.406521 q 0,1.047308 0.33073,1.522731 0.33762,0.468532 1.06798,0.468532 0.55811,0 0.89573,-0.351399 0.3445,-0.3514 0.43408,-1.005967 z" />
  <path fill="#242322" d="m 180.46278,54.114981 h 1.21956 q -0.0207,1.219563 -0.69591,1.894801 -0.66835,0.675238 -1.85346,0.675238 -1.39871,0 -2.02571,-0.868163 -0.62701,-0.868164 -0.62701,-2.831866 0,-1.963703 0.62701,-2.838757 0.627,-0.875053 2.02571,-0.875053 1.12999,0 1.81901,0.606336 0.69591,0.599446 0.69591,1.584743 v 0.151584 H 180.449 q 0,-0.620117 -0.33073,-0.964626 -0.32384,-0.34451 -0.9164,-0.34451 -0.80615,0 -1.14377,0.592556 -0.33762,0.592556 -0.33762,2.087727 0,1.453829 0.32384,2.060165 0.33073,0.606336 1.08865,0.606336 0.59256,0 0.95085,-0.413411 0.35829,-0.420301 0.37896,-1.1231 z" />
  <path fill="#242322" d="m 184.35705,49.429655 v 4.513071 q 0,1.026638 0.26183,1.412488 0.26183,0.378961 0.90951,0.378961 0.71657,0 1.0473,-0.523654 0.33073,-0.530545 0.33073,-1.688096 v -4.09277 h 1.21268 v 5.966901 q 0.007,0.234266 0.0207,0.509873 0.0207,0.275608 0.0482,0.606337 h -1.23335 l -0.062,-0.833713 q -0.37207,0.516764 -0.82682,0.764811 -0.45475,0.241156 -1.04731,0.241156 -0.87505,0 -1.38493,-0.509873 -0.50987,-0.516764 -0.50987,-1.398708 v -5.346784 z" />
  <path fill="#242322" d="m 190.97985,49.415874 0.11713,0.930175 q 0.19293,-0.530544 0.64768,-0.813041 0.45475,-0.289388 1.12999,-0.289388 0.0344,0 0.10335,0.0069 0.0758,0.0069 0.12402,0.0069 v 1.247124 q -0.062,0 -0.16536,-0.0069 -0.10335,-0.0069 -0.14469,-0.0069 -0.9164,0 -1.30914,0.399631 -0.38585,0.392741 -0.38585,1.329806 v 4.292586 h -1.21267 v -5.897999 q 0,-0.08268 -0.0758,-0.813042 -0.0276,-0.248047 -0.0414,-0.385851 z" />
  <path fill="#242322" d="m 194.63645,47.651987 v -1.302245 h 1.17133 v 1.302245 z m 0,8.860779 v -7.083111 h 1.17133 v 7.083111 z" />
  <path fill="#242322" d="m 199.24731,47.424611 v 2.005044 h 1.41249 v 0.875053 h -1.41249 v 4.244355 q 0,0.571885 0.17226,0.792371 0.17914,0.213596 0.64767,0.213596 0.16537,0 0.55122,-0.02756 h 0.0413 l -0.007,0.916395 q -0.2825,0.06201 -0.53055,0.08957 -0.24804,0.03445 -0.46164,0.03445 -0.89572,0 -1.2609,-0.351399 -0.36518,-0.3514 -0.36518,-1.240234 v -4.671546 h -1.07487 v -0.875053 h 1.07487 v -1.426269 z" />
  <path fill="#242322" d="m 204.1742,59.193048 h -1.19889 l 0.77859,-2.680282 -2.43223,-7.083111 h 1.42627 l 1.69498,5.601721 1.68121,-5.601721 h 1.30913 z" />
</svg>
