<?xml version="1.0" encoding="UTF-8" standalone="no"?>
<!DOCTYPE svg PUBLIC "-//W3C//DTD SVG 1.1//EN" "http://www.w3.org/Graphics/SVG/1.1/DTD/svg11.dtd">
<svg width="475" height="280" viewBox="0 0 475 280" xmlns="http://www.w3.org/2000/svg">
  <path fill="#009881" d="M 60.832031,0 V 170 H 108.5254 V 0 Z" />
  <path fill="#94c120" d="M 323.01171,0 0,84.259766 V 133.54883 L 475,9.640626 V 0 Z" />
  <path fill="#94c120" d="m 182.80274,0 44.01366,170 h 49.26564 L 232.06835,0 Z" />
  <path fill="#1b60ab" d="M 380.53515,0 156.2871,170 h 78.94532 L 459.48046,0 Z" />
  <path fill="#009881" d="M 475,58.699219 254.89649,170 H 360.58398 L 475,112.14258 Z" />
  <path fill="#1b60ab" d="M 475,80.146485 422.83984,170 H 475 Z" />
  <path fill="#005c67" d="M 475,80.144532 448.70704,125.4375 475,112.14258 Z" />
  <path fill="#009640" d="M 273.63085,160.52735 254.89648,170 h 21.1875 z" />
  <path fill="#1b5d39" d="M 256.42773,94.083985 215.24414,125.30469 226.8164,170 h 8.41602 l 34.14843,-25.88672 z" />
  <path fill="#1b5d39" d="M 380.5332,0 311.58593,52.269532 431.94921,20.871094 459.48046,0 Z" />
  <path fill="#3baa34" d="m 237.82226,22.222657 -46.15039,12.037109 11.95508,46.171875 46.14844,-12.039062 z" />
  <path fill="#00963f" d="M 108.5254,55.949219 60.832031,68.390626 V 117.67969 L 108.5254,105.23828 Z" />
  <path d="m 53.609978,260.1182 q -0.185677,9.00535 -6.916474,14.29714 -6.730797,5.2918 -18.103522,5.2918 -13.879368,0 -21.2136154,-8.95892 -7.28782841,-9.00534 -7.28782841,-26.04122 0,-17.03588 7.65918271,-26.31974 7.6591831,-9.33027 21.7242271,-9.33027 11.001372,0 17.360814,5.0597 6.359443,5.0597 6.591539,13.92578 H 43.72267 q -0.464193,-5.24537 -4.641929,-8.49472 -4.131317,-3.24936 -10.490759,-3.24936 -8.819665,0 -13.786529,7.42709 -4.9204448,7.38067 -4.9204448,20.703 0,13.09024 4.8740258,20.23881 4.874025,7.14857 13.832948,7.14857 6.4987,0 10.39792,-3.11009 3.94564,-3.11009 4.456252,-8.58757 z" />
  <path d="m 88.099511,239.27594 q 7.89128,0 11.233468,-2.4138 3.342191,-2.4138 3.342191,-7.9377 0,-5.57031 -3.017256,-7.84486 -2.970834,-2.32096 -11.558403,-2.32096 H 74.730756 v 20.51732 z m -22.513355,39.27072 v -68.46845 h 24.138031 q 11.326303,0 17.035883,4.50267 5.70957,4.50267 5.70957,13.36876 0,6.12734 -3.34219,10.39792 -3.29577,4.22415 -9.237439,5.80241 4.502669,1.02122 6.591539,3.20293 2.13529,2.13529 3.20293,7.00931 0.32494,1.53184 1.39258,9.84089 1.11406,8.26263 2.878,14.34356 h -9.79447 q -1.439,-5.80241 -2.41381,-13.87937 -0.92838,-8.07695 -1.67109,-10.07298 -1.392581,-3.94564 -4.363415,-5.43106 -2.924415,-1.53184 -9.515954,-1.53184 H 74.730756 v 30.91525 z" />
  <path d="m 134.5188,244.05713 q 0,13.32234 5.5239,20.56374 5.57031,7.19499 15.82897,7.19499 10.39792,0 15.8754,-7.05573 5.5239,-7.10215 5.5239,-20.51732 0,-13.41518 -5.5239,-20.51733 -5.5239,-7.14857 -15.8754,-7.14857 -10.30508,0 -15.82897,7.10215 -5.5239,7.10215 -5.5239,20.37807 z m -9.79447,0.46419 q 0,-17.03588 8.12338,-26.2269 8.16979,-9.23743 23.16322,-9.23743 14.99343,0 23.07039,9.19102 8.07695,9.14459 8.07695,26.27331 0,16.8502 -8.12337,26.04122 -8.12338,9.1446 -23.02397,9.1446 -14.85417,0 -23.07039,-9.23743 -8.21621,-9.23744 -8.21621,-25.94839 z" />
  <path d="m 207.67561,258.49353 q 0.2321,6.68438 4.03848,9.88731 3.8528,3.20293 11.7905,3.20293 7.7056,0 12.16185,-3.15651 4.45625,-3.20293 4.45625,-8.72683 0,-7.84486 -15.96823,-11.83692 -1.85678,-0.46419 -2.78516,-0.69629 -0.88197,-0.23209 -2.69232,-0.69629 -9.05176,-2.22812 -12.57963,-4.31699 -3.48144,-2.08887 -5.47747,-5.70957 -1.94961,-3.66713 -1.94961,-8.07696 0,-8.9125 6.91647,-14.11146 6.91647,-5.19896 18.93907,-5.19896 10.63002,0 16.71094,4.54909 6.12735,4.50267 6.12735,12.34753 v 1.06764 h -9.23744 q -0.23209,-5.01328 -3.99206,-7.7056 -3.71354,-2.73874 -10.44434,-2.73874 -7.00931,0 -11.18705,3.06367 -4.13131,3.01726 -4.13131,8.12338 0,6.7308 15.36478,10.5836 2.18171,0.55703 3.34219,0.83554 13.74011,3.52787 18.14994,7.79844 4.40984,4.22416 4.40984,11.88334 0,9.79447 -6.87006,15.31837 -6.82363,5.52389 -18.98549,5.52389 -13.18308,0 -19.54252,-4.96686 -6.31302,-4.96686 -6.31302,-15.31837 v -0.92838 z" />
  <path d="m 270.0167,258.49353 q 0.2321,6.68438 4.03848,9.88731 3.8528,3.20293 11.7905,3.20293 7.7056,0 12.16185,-3.15651 4.45626,-3.20293 4.45626,-8.72683 0,-7.84486 -15.96824,-11.83692 -1.85677,-0.46419 -2.78516,-0.69629 -0.88196,-0.23209 -2.69231,-0.69629 -9.05177,-2.22812 -12.57963,-4.31699 -3.48145,-2.08887 -5.47748,-5.70957 -1.94961,-3.66713 -1.94961,-8.07696 0,-8.9125 6.91648,-14.11146 6.91647,-5.19896 18.93907,-5.19896 10.63001,0 16.71094,4.54909 6.12735,4.50267 6.12735,12.34753 v 1.06764 h -9.23744 q -0.2321,-5.01328 -3.99206,-7.7056 -3.71354,-2.73874 -10.44434,-2.73874 -7.00931,0 -11.18705,3.06367 -4.13132,3.01726 -4.13132,8.12338 0,6.7308 15.36479,10.5836 2.1817,0.55703 3.34219,0.83554 13.74011,3.52787 18.14994,7.79844 4.40983,4.22416 4.40983,11.88334 0,9.79447 -6.87005,15.31837 -6.82364,5.52389 -18.98549,5.52389 -13.18308,0 -19.54252,-4.96686 -6.31303,-4.96686 -6.31303,-15.31837 v -0.92838 z" />
  <path d="m 334.30744,278.54666 h -9.1446 v -68.46845 h 9.1446 z" />
  <path d="m 350.27567,278.54666 v -68.46845 h 13.04382 l 32.40066,55.8424 v -55.8424 h 8.26263 v 68.46845 h -11.23346 l -34.02534,-58.07053 v 58.07053 z" />
  <path d="m 474.91145,275.39015 q -6.73079,2.22813 -12.67246,3.29577 -5.94167,1.11406 -11.37273,1.11406 -15.73614,0 -24.64864,-9.23744 -8.9125,-9.23743 -8.9125,-25.48419 0,-16.80378 8.95892,-26.41257 8.95892,-9.60879 24.60222,-9.60879 10.95496,0 17.36082,4.8276 6.40586,4.82761 6.68437,13.2295 h -9.98014 q -0.18568,-4.78119 -4.50267,-7.89128 -4.27058,-3.15651 -10.8157,-3.15651 -10.63001,0 -16.6181,7.61276 -5.98809,7.56635 -5.98809,21.02794 0,13.09024 6.31302,20.28523 6.35944,7.19499 17.91785,7.19499 2.87799,0 6.22018,-0.60345 3.38861,-0.60345 7.75202,-1.85677 V 249.34893 H 450.9591 v -7.7056 h 23.95235 z" />
</svg>
