<?xml version="1.0" encoding="UTF-8" standalone="no"?>
<!DOCTYPE svg PUBLIC "-//W3C//DTD SVG 1.1//EN" "http://www.w3.org/Graphics/SVG/1.1/DTD/svg11.dtd">
<svg width="1200" height="600" viewBox="0 0 1200 600" xmlns="http://www.w3.org/2000/svg">
  <path fill="#2056ae" d="M 180.77146,441.73998 V 275.20483 H 282.4824 v 100.34375 h 29.89112 c 20.09699,0.11721 33.59718,-7.1793 41.11718,-20.8003 7.531,-13.547 9.63997,-32.5903 9.66797,-56.8213 -0.028,-25.06599 -2.33606,-44.32387 -10.03906,-57.85887 -7.68,-13.64098 -21.26993,-20.69095 -41.14893,-20.58595 H 180.77146 v -61.21922 h 154.90186 v 0.008 c 39.879,-0.008 73.29721,7.031 96.63721,27.99999 23.34,20.945 37.36281,56.3166 37.38281,114.55861 -0.031,54.226 -15.05883,89.1485 -39.56982,110.75389 -24.512,21.6094 -59.08208,30.15625 -98.87208,30.15625 z" />
  <path fill="#2056ae" d="M 491.78367,441.73998 V 158.26294 h 228.42188 v 61.21922 H 593.4907 v 55.72267 h 126.71485 v 63.70313 H 593.4907 v 102.83202 z" />
  <path fill="#2056ae" d="m 906.1035,446.70873 c -46.074,0 -87.34418,-12.50779 -116.99218,-37.5 -29.629,-25 -47.90975,-62.43356 -47.94875,-113.35157 0.039,-47.703 19.03505,-83.043 49.08205,-106.812 30.058,-23.74299 71.38583,-35.7539 115.83982,-35.7539 h 0.0191 c 51.04699,0.019 70.60607,3.86695 96.30906,10.14795 v 70.52392 c -15.60599,-8.219 -37.53907,-14.48097 -65.37107,-14.48097 -27.21499,0 -50.16472,7.08197 -66.38672,21.21095 -16.231,14.12102 -25.3911,35.24202 -25.3711,62.20702 0.019,20.281 3.94495,39.49979 13.71095,53.92578 9.746,14.441 25.62515,23.76173 47.91015,23.69923 7.656,-0.0351 16.71888,0.0782 23.98387,-2.69139 l 1.91409,-0.74221 v -76.18358 h 86.42573 v 130.80077 c -35.87896,10.64461 -69.97296,14.99221 -113.12495,15 z" />
</svg>
