<?xml version="1.0" encoding="UTF-8" standalone="no"?>
<svg
   xmlns:dc="http://purl.org/dc/elements/1.1/"
   xmlns:cc="http://creativecommons.org/ns#"
   xmlns:rdf="http://www.w3.org/1999/02/22-rdf-syntax-ns#"
   xmlns:svg="http://www.w3.org/2000/svg"
   xmlns="http://www.w3.org/2000/svg"
   xmlns:sodipodi="http://sodipodi.sourceforge.net/DTD/sodipodi-0.dtd"
   xmlns:inkscape="http://www.inkscape.org/namespaces/inkscape"
   width="439.22852"
   height="166.7088"
   id="svg2"
   version="1.1"
   inkscape:version="1.0.2 (e86c8708, 2021-01-15)"
   sodipodi:docname="dfg.svg"
   viewBox="0 0 109.80713 41.6772">
  <defs
     id="defs4">
    <clipPath
       id="clipPath26"
       clipPathUnits="userSpaceOnUse">
      <path
         id="path28"
         d="M 0,0 H 2537 V 323.707 H 0 Z"
         inkscape:connector-curvature="0" />
    </clipPath>
  </defs>
  <sodipodi:namedview
     id="base"
     pagecolor="#ffffff"
     bordercolor="#666666"
     borderopacity="1.0"
     inkscape:pageopacity="0.0"
     inkscape:pageshadow="2"
     inkscape:zoom="2.786611"
     inkscape:cx="131.48507"
     inkscape:cy="24.794658"
     inkscape:document-units="px"
     inkscape:current-layer="g22"
     showgrid="false"
     fit-margin-top="10"
     fit-margin-left="10"
     fit-margin-right="10"
     fit-margin-bottom="10"
     inkscape:window-width="2560"
     inkscape:window-height="1317"
     inkscape:window-x="1440"
     inkscape:window-y="25"
     inkscape:window-maximized="0"
     inkscape:document-rotation="0"
     units="px" />
  <metadata
     id="metadata7">
    <rdf:RDF>
      <cc:Work
         rdf:about="">
        <dc:format>image/svg+xml</dc:format>
        <dc:type
           rdf:resource="http://purl.org/dc/dcmitype/StillImage" />
        <dc:title></dc:title>
      </cc:Work>
    </rdf:RDF>
  </metadata>
  <g
     inkscape:label="Ebene 1"
     inkscape:groupmode="layer"
     id="layer1"
     transform="translate(-224.65179,-687.17086)">
    <g
       id="g22"
       transform="matrix(0.125,0,0,-0.125,227.15179,729.73673)">
      <g
         clip-path="url(#clipPath26)"
         id="g24">
        <path
           id="path30"
           style="fill:#2056ae;fill-opacity:1;fill-rule:nonzero;stroke:none"
           d="m 0,32.0781 h 150.48 c 39.79,0 74.36,8.5469 98.872,30.1563 24.511,21.6054 39.539,56.5276 39.57,110.7536 -0.02,58.242 -14.043,93.614 -37.383,114.559 -23.34,20.969 -56.758,28.008 -96.637,28 v 0.008 H 0 v -61.219 h 131.199 c 19.879,0.105 33.469,-6.945 41.149,-20.586 7.703,-13.535 10.011,-32.793 10.039,-57.859 -0.028,-24.231 -2.137,-43.274 -9.668,-56.821 -7.52,-13.621 -21.02,-20.9177 -41.117,-20.8005 H 101.711 V 198.613 H 0 V 32.0781"
           inkscape:connector-curvature="0" />
        <path
           id="path32"
           style="fill:#2056ae;fill-opacity:1;fill-rule:nonzero;stroke:none"
           d="M 311.012,32.0781 H 412.719 V 134.91 h 126.715 v 63.703 H 412.719 v 55.723 h 126.715 v 61.219 H 311.012 V 32.0781"
           inkscape:connector-curvature="0" />
        <path
           id="path34"
           style="fill:#2056ae;fill-opacity:1;fill-rule:nonzero;stroke:none"
           d="m 609.473,284.773 c -30.047,-23.769 -49.043,-59.109 -49.082,-106.812 0.039,-50.918 18.32,-88.3516 47.949,-113.3516 29.648,-24.9922 70.918,-37.5 116.992,-37.5 43.152,0.0078 77.246,4.3554 113.125,15 V 172.91 H 752.031 V 96.7266 l -1.914,-0.7422 c -7.265,-2.7696 -16.328,-2.6563 -23.984,-2.6914 -22.285,-0.0625 -38.164,9.258 -47.91,23.699 -9.766,14.426 -13.692,33.645 -13.711,53.926 -0.02,26.965 9.14,48.086 25.371,62.207 16.222,14.129 39.172,21.211 66.387,21.211 27.832,0 49.765,-6.262 65.371,-14.481 v 70.524 c -25.703,6.281 -45.262,10.129 -96.309,10.148 h -0.019 c -44.454,0 -85.782,-12.011 -115.84,-35.754"
           inkscape:connector-curvature="0" />
      </g>
    </g>
  </g>
</svg>
