<?xml version="1.0" encoding="UTF-8" standalone="no"?>
<svg
   xmlns:dc="http://purl.org/dc/elements/1.1/"
   xmlns:cc="http://creativecommons.org/ns#"
   xmlns:rdf="http://www.w3.org/1999/02/22-rdf-syntax-ns#"
   xmlns:svg="http://www.w3.org/2000/svg"
   xmlns="http://www.w3.org/2000/svg"
   xmlns:sodipodi="http://sodipodi.sourceforge.net/DTD/sodipodi-0.dtd"
   xmlns:inkscape="http://www.inkscape.org/namespaces/inkscape"
   width="175.18262"
   height="73.711678"
   viewBox="0 0 175.18262 73.711677"
   fill="none"
   version="1.1"
   id="svg24"
   sodipodi:docname="emergencity.svg"
   inkscape:version="1.0.2 (e86c8708, 2021-01-15)">
  <metadata
     id="metadata30">
    <rdf:RDF>
      <cc:Work
         rdf:about="">
        <dc:format>image/svg+xml</dc:format>
        <dc:type
           rdf:resource="http://purl.org/dc/dcmitype/StillImage" />
      </cc:Work>
    </rdf:RDF>
  </metadata>
  <defs
     id="defs28" />
  <sodipodi:namedview
     pagecolor="#ffffff"
     bordercolor="#666666"
     borderopacity="1"
     objecttolerance="10"
     gridtolerance="10"
     guidetolerance="10"
     inkscape:pageopacity="0"
     inkscape:pageshadow="2"
     inkscape:window-width="2560"
     inkscape:window-height="1318"
     id="namedview26"
     showgrid="false"
     inkscape:zoom="2.8256228"
     inkscape:cx="157.43495"
     inkscape:cy="42.278434"
     inkscape:window-x="1440"
     inkscape:window-y="25"
     inkscape:window-maximized="0"
     inkscape:current-layer="svg24"
     inkscape:document-rotation="0" />
  <path
     d="m 94.796753,71.96083 c 0.3448,0 0.5861,-0.3408 0.4716,-0.666 l -2.5252,-7.1751 c -0.075,-0.2134 -0.1134,-0.4379 -0.1134,-0.664 v -45.9949 c 0.8601,-0.60149 1.4191,-1.58964 1.4191,-2.72815 0,-1.82593 -1.4836,-3.30815 -3.3113,-3.30815 -1.8276,0 -3.3113,1.48222 -3.3113,3.30815 0,1.11704 0.5591,2.12666 1.4192,2.72815 v 46.0636 c 0,0.1811 0.0246,0.3614 0.0731,0.5359 l 1.9531,7.022 c 0.1444,0.5192 0.6172,0.8785 1.1561,0.8785 z"
     fill="#005b94"
     id="path12" />
  <path
     d="m 106.41505,71.96083 c 0.3427,0 0.5267,-0.4029 0.3023,-0.6619 l -6.3753,-7.3601 c -0.0787,-0.0909 -0.1221,-0.2071 -0.1221,-0.3274 v -30.0979 c 0.8601,-0.6015 1.4191,-1.5897 1.4191,-2.7282 -0.0215,-1.8259 -1.5051,-3.3081 -3.332797,-3.3081 -1.8276,0 -3.3113,1.4822 -3.3113,3.3081 0,1.117 0.5591,2.1267 1.4192,2.7282 v 29.9799 c 0,0.1985 0.059,0.3925 0.1696,0.5573 l 4.713997,7.0245 c 0.3714,0.5535 0.9942,0.8856 1.6607,0.8856 z"
     fill="#009edb"
     id="path14" />
  <path
     d="m 115.70045,71.96093 c -0.6565,0 -1.2949,-0.2153 -1.8172,-0.613 l -9.5191,-7.2468 c -0.2484,-0.1892 -0.3943,-0.4835 -0.3943,-0.7957 v -39.3912 c -0.86,-0.58 -1.4191,-1.5897 -1.4191,-2.7067 0,-1.82592 1.4836,-3.30815 3.3113,-3.30815 1.8277,0 3.3113,1.48223 3.3113,3.30815 0,1.117 -0.559,2.1052 -1.4191,2.7067 v 39.6252 c 0,0.1638 0.0803,0.3172 0.2148,0.4107 l 10.7513,7.4644 c 0.2414,0.1676 0.1228,0.5464 -0.1711,0.5464 z"
     fill="#2a854e"
     id="path16" />
  <path
     d="m 67.469953,71.96083 c -0.3427,0 -0.5267,-0.4028 -0.3023,-0.6619 l 6.3753,-7.36 c 0.0787,-0.0909 0.1221,-0.2072 0.1221,-0.3274 v -39.2289 c -0.8601,-0.6015 -1.4192,-1.5897 -1.4192,-2.7282 0.0215,-1.82592 1.5052,-3.30815 3.3329,-3.30815 1.8276,0 3.3112,1.48223 3.3112,3.30815 0,1.117 -0.559,2.1267 -1.4191,2.7282 v 39.1109 c 0,0.1985 -0.059,0.3924 -0.1696,0.5572 l -4.714,7.0246 c -0.3714,0.5535 -0.9942,0.8855 -1.6607,0.8855 z"
     fill="#f37021"
     id="path18" />
  <path
     d="m 79.088253,71.96083 c -0.3448,0 -0.5861,-0.3408 -0.4716,-0.666 l 2.5252,-7.1751 c 0.075,-0.2133 0.1134,-0.4378 0.1134,-0.664 v -19.2964 c -0.8601,-0.6015 -1.4191,-1.5897 -1.4191,-2.7282 0,-1.8259 1.4836,-3.3081 3.3113,-3.3081 1.8276,0 3.3113,1.4822 3.3113,3.3081 0,1.1171 -0.5591,2.1267 -1.4192,2.7282 v 19.3651 c 0,0.1812 -0.0246,0.3615 -0.0731,0.536 l -1.9531,7.0219 c -0.1444,0.5192 -0.6172,0.8785 -1.1561,0.8785 z"
     fill="#b82837"
     id="path20" />
  <path
     d="m 58.184573,71.96063 c 0.65649,0 1.29485,-0.2153 1.8172,-0.613 l 9.51908,-7.2468 c 0.2484,-0.1892 0.3943,-0.4835 0.3943,-0.7957 v -27.7114 c 0.86,-0.58 1.4191,-1.5897 1.4191,-2.7067 0,-1.8259 -1.4836,-3.3082 -3.3113,-3.3082 -1.8277,0 -3.3113,1.4823 -3.3113,3.3082 0,1.117 0.559,2.1052 1.4191,2.7067 v 27.9454 c 0,0.1638 -0.0803,0.3172 -0.2148,0.4107 l -10.75125,7.4644 c -0.24142,0.1676 -0.12281,0.5464 0.17109,0.5464 z"
     fill="#f3c937"
     id="path22" />
</svg>
