<?xml version="1.0" encoding="UTF-8" standalone="no"?>
<!-- Created with Inkscape (http://www.inkscape.org/) -->

<svg
   width="1200"
   height="600"
   id="svg2891"
   sodipodi:version="0.32"
   inkscape:version="1.1.1 (c3084ef, 2021-09-22)"
   version="1.0"
   sodipodi:docname="hsg.svg"
   inkscape:output_extension="org.inkscape.output.svg.inkscape"
   xmlns:inkscape="http://www.inkscape.org/namespaces/inkscape"
   xmlns:sodipodi="http://sodipodi.sourceforge.net/DTD/sodipodi-0.dtd"
   xmlns="http://www.w3.org/2000/svg"
   xmlns:svg="http://www.w3.org/2000/svg"
   xmlns:rdf="http://www.w3.org/1999/02/22-rdf-syntax-ns#"
   xmlns:cc="http://creativecommons.org/ns#"
   xmlns:dc="http://purl.org/dc/elements/1.1/">
  <defs
     id="defs2893">
    <clipPath
       clipPathUnits="userSpaceOnUse"
       id="clipPath33">
      <path
         d="m 70.495,497.869 h 210.771 v 44.419 H 70.495 Z"
         id="path35" />
    </clipPath>
    <clipPath
       clipPathUnits="userSpaceOnUse"
       id="clipPath45">
      <path
         d="M 64.072,496.496 H 294.04 v 45.792 H 64.072 Z"
         id="path47" />
    </clipPath>
    <clipPath
       clipPathUnits="userSpaceOnUse"
       id="clipPath61">
      <path
         d="m 70.495,497.869 h 210.771 v 44.419 H 70.495 Z"
         id="path63" />
    </clipPath>
    <clipPath
       clipPathUnits="userSpaceOnUse"
       id="clipPath77">
      <path
         d="M 64.072,496.496 H 294.04 v 45.792 H 64.072 Z"
         id="path79" />
    </clipPath>
    <inkscape:perspective
       sodipodi:type="inkscape:persp3d"
       inkscape:vp_x="0 : 1070.1811 : 1"
       inkscape:vp_y="0 : 1000 : 0"
       inkscape:vp_z="744.09448 : 1070.1811 : 1"
       inkscape:persp3d-origin="372.04724 : 894.78739 : 1"
       id="perspective2899" />
  </defs>
  <sodipodi:namedview
     id="base"
     pagecolor="#ffffff"
     bordercolor="#666666"
     borderopacity="1.0"
     inkscape:pageopacity="0.0"
     inkscape:pageshadow="2"
     inkscape:zoom="0.4665165"
     inkscape:cx="590.54718"
     inkscape:cy="26.794337"
     inkscape:document-units="px"
     inkscape:current-layer="layer1"
     showgrid="false"
     inkscape:window-width="1920"
     inkscape:window-height="929"
     inkscape:window-x="1440"
     inkscape:window-y="225"
     inkscape:pagecheckerboard="0"
     inkscape:window-maximized="0" />
  <metadata
     id="metadata2896">
    <rdf:RDF>
      <cc:Work
         rdf:about="">
        <dc:format>image/svg+xml</dc:format>
        <dc:type
           rdf:resource="http://purl.org/dc/dcmitype/StillImage" />
      </cc:Work>
    </rdf:RDF>
  </metadata>
  <g
     inkscape:label="Calque 1"
     inkscape:groupmode="layer"
     id="layer1"
     transform="translate(343.16032,95.39935)">
    <g
       transform="matrix(5.6933883,0,0,-5.6933883,-744.51574,3168.0565)"
       id="g29">
      <g
         id="g31"
         clip-path="url(#clipPath33)">
        <g
           id="g37"
           transform="translate(84.597702,531.32651)">
          <path
             d="m 0,0 c 0.227,-0.011 0.326,-0.037 0.563,-0.002 0.102,-0.089 0.238,-0.148 0.372,-0.183 0.023,-0.031 0,-0.025 0.078,-0.003 0.067,-0.046 0.141,-0.05 0.221,-0.084 0.1,-0.057 0.109,-0.19 0.206,-0.265 0.066,-0.046 0.055,-0.053 0.126,-0.13 0.09,-0.017 0.057,-0.101 0.057,-0.101 C 1.628,-0.782 1.683,-1.051 1.58,-1.143 1.424,-1.367 1.392,-1.452 1.258,-1.678 1.133,-1.801 1.064,-1.991 1.008,-2.17 1.029,-2.181 1.029,-2.216 1.029,-2.24 0.907,-2.283 0.94,-2.441 0.838,-2.508 0.826,-2.665 0.77,-2.801 0.781,-2.971 0.68,-3.049 0.737,-3.172 0.657,-3.25 0.58,-3.488 0.58,-3.813 0.715,-3.996 0.793,-4.152 0.781,-4.32 0.893,-4.479 0.94,-4.625 1.085,-4.702 1.176,-4.815 1.187,-4.94 1.433,-5.153 1.433,-5.153 l 0.222,-0.103 0.032,0.035 C 1.745,-5.265 1.883,-5.313 1.918,-5.402 2.073,-5.492 2.295,-5.55 2.407,-5.687 2.497,-5.766 2.497,-5.912 2.523,-6.036 2.679,-6.093 2.639,-6.241 2.742,-6.364 2.786,-6.567 2.281,-6.921 2.113,-7.046 1.898,-7.157 1.728,-7.314 1.525,-7.462 L 1.47,-7.609 C 1.21,-7.664 1.042,-7.901 0.828,-8.025 0.728,-8.15 0.557,-8.137 0.435,-8.227 0.367,-8.205 0.311,-8.126 0.22,-8.15 0.018,-8.217 0.029,-8.431 -0.116,-8.554 -0.129,-8.632 -0.208,-8.667 -0.274,-8.713 -0.333,-8.7 -0.388,-8.748 -0.423,-8.79 c -0.123,0.01 -0.246,0.01 -0.325,-0.078 -0.1,-0.194 -0.294,-0.238 -0.473,-0.317 -0.046,-0.078 -0.147,0 -0.202,-0.047 -0.102,-0.031 -0.214,-0.077 -0.317,-0.099 -0.1,-0.056 -0.224,-0.069 -0.327,-0.102 -0.099,-0.057 -0.178,-0.214 -0.313,-0.201 -0.033,-0.103 -0.171,-0.093 -0.215,-0.183 -0.123,-0.055 -0.283,-0.091 -0.394,-0.179 -0.101,-0.033 -0.204,-0.112 -0.303,-0.112 -0.113,-0.078 -0.225,-0.157 -0.361,-0.168 -0.068,-0.08 -0.102,-0.194 -0.224,-0.205 -0.194,-0.011 -0.295,-0.192 -0.452,-0.235 -0.135,-0.068 -0.27,-0.136 -0.348,-0.271 -0.102,-0.022 -0.125,-0.112 -0.19,-0.157 -0.285,-0.337 -0.596,-0.496 -0.911,-0.81 -0.09,-0.057 -0.148,-0.148 -0.225,-0.214 -0.069,-0.013 -0.059,-0.091 -0.112,-0.113 -0.125,-0.068 -0.215,-0.172 -0.327,-0.227 -0.024,-0.101 -0.148,-0.101 -0.169,-0.19 -0.125,-0.081 -0.215,-0.192 -0.283,-0.315 l -0.022,0.033 c -0.022,-0.065 -0.084,-0.108 -0.113,-0.089 -0.067,-0.013 -0.135,-0.066 -0.168,-0.125 -0.079,-0.043 -0.213,-0.1 -0.192,-0.212 -0.079,-0.102 -0.18,-0.215 -0.305,-0.215 -0.088,-0.101 -0.214,-0.17 -0.28,-0.282 -0.26,-0.079 -0.426,-0.228 -0.618,-0.398 -0.044,-0.125 -0.204,-0.17 -0.304,-0.238 -0.09,0 -0.179,-0.022 -0.236,-0.101 -0.092,0 -0.174,-0.033 -0.234,-0.122 -0.202,-0.044 -0.366,-0.236 -0.568,-0.19 -0.248,-0.068 -0.485,0.067 -0.642,0.247 -0.024,0.124 -0.058,0.182 -0.148,0.285 -0.078,0.236 -0.057,0.493 -0.012,0.731 -0.066,0.146 0.079,0.283 0.012,0.417 0.023,0.124 0,0.248 -0.012,0.373 -0.066,0.055 0,0.19 -0.056,0.27 -0.067,0.099 -0.01,0.245 -0.01,0.348 -0.07,0.146 0.055,0.338 -0.079,0.46 -0.137,0.059 -0.125,0.203 -0.227,0.282 0.011,0.091 -0.09,0.102 -0.077,0.181 -0.058,0.133 -0.148,0.259 -0.148,0.406 -0.054,0.203 0,0.417 -0.123,0.583 0.012,0.069 -0.056,0.126 -0.022,0.183 -0.079,0.325 -0.193,0.665 -0.248,1.001 -0.056,0.123 -0.113,0.247 -0.136,0.395 -0.122,0.158 -0.192,0.372 -0.201,0.585 -0.157,0.158 -0.238,0.372 -0.327,0.585 -0.056,0.101 -0.034,0.225 -0.101,0.315 -0.024,0.212 -0.068,0.384 -0.203,0.55 0.01,0.081 -0.08,0.081 -0.08,0.157 -0.124,0.207 -0.18,0.441 -0.268,0.655 -0.158,0.227 -0.249,0.484 -0.362,0.733 -0.238,0.236 -0.089,0.607 -0.192,0.877 -0.1,0.249 0,0.496 -0.023,0.755 0,0.282 -0.011,0.587 -0.055,0.88 -0.056,0.111 -0.011,0.292 -0.16,0.358 -0.02,0.148 -0.146,0.272 -0.166,0.417 -0.068,0.058 -0.034,0.17 -0.08,0.249 -0.067,0.179 0.033,0.336 0.057,0.517 0.043,0.078 -0.045,0.179 0.043,0.259 0.035,0.046 0.07,0.134 0.126,0.169 0.124,0.283 0.246,0.561 0.428,0.788 0.032,0.067 0.09,0.135 0.1,0.224 0.306,0.428 0.811,-0.02 1.151,0.273 0.076,0.022 0.146,0.022 0.201,0.098 0.54,0.07 1.102,-0.396 1.621,-0.532 0.294,-0.1 0.552,-0.338 0.891,-0.294 0.11,0.035 0.235,0.026 0.325,0.093 0.316,0.031 0.596,-0.022 0.924,-0.022 0.156,-0.012 0.315,0.101 0.473,0.035 l 0.033,0.02 c 0.473,-0.02 0.925,-0.179 1.374,-0.044 0.089,0.011 0.191,-0.023 0.27,0.033 0.451,-0.009 0.856,0.214 1.306,0.214 0.08,-0.022 0.179,-0.022 0.272,-0.011 0.224,-0.1 0.471,-0.247 0.697,-0.259 0.19,0.034 0.405,0.168 0.608,0.067 0.146,-0.033 0.292,0.009 0.44,0.035 0.169,0.022 0.29,-0.09 0.46,-0.068 l 0.035,-0.034 c 0.238,-0.022 0.46,0.076 0.696,0.089 0.306,0.013 0.586,0.07 0.89,0.137 C -0.41,0.102 -0.248,0.068 0,0"
             style="fill:#098439;fill-opacity:1;fill-rule:nonzero;stroke:none"
             id="path39" />
        </g>
      </g>
    </g>
    <g
       transform="matrix(5.6933883,0,0,-5.6933883,-744.51574,3168.0565)"
       id="g41">
      <g
         id="g43"
         clip-path="url(#clipPath45)">
        <g
           id="g49"
           transform="translate(107.29289,523.7525)">
          <path
             d="m 0,0 c -0.192,-0.09 -0.361,0.031 -0.564,0.009 l -0.517,-0.111 -0.046,0.012 c -0.26,-0.202 -0.608,-0.113 -0.9,-0.226 -0.091,-0.101 -0.215,-0.011 -0.305,-0.101 -0.192,-0.045 -0.383,-0.045 -0.575,-0.124 -0.37,0.1 -0.718,-0.068 -1.079,-0.112 l -0.349,-0.191 c -0.203,-0.013 -0.396,-0.07 -0.576,-0.103 -0.19,0.068 -0.381,-0.011 -0.562,-0.068 -0.404,-0.111 -0.652,0.293 -1.024,0.26 -0.07,0.079 -0.191,0.046 -0.27,0.079 -0.035,0 -0.081,-0.057 -0.091,0 -0.103,0 -0.201,0 -0.303,0.033 -0.09,0.056 -0.158,0.17 -0.269,0.146 -0.093,-0.011 -0.069,0.126 -0.159,0.08 -0.114,0.077 -0.272,0.046 -0.385,0.101 l -0.572,-0.035 -0.022,0.018 c -0.009,0.013 -0.117,0.006 -0.117,0.006 -0.166,-0.013 -0.336,-0.068 -0.504,-0.035 -0.27,-0.055 -0.506,-0.179 -0.788,-0.225 -0.203,-0.089 -0.361,-0.257 -0.584,-0.303 -0.183,0.046 -0.385,-0.035 -0.565,-0.068 -0.18,-0.057 -0.382,-0.078 -0.573,-0.078 -0.113,0 -0.193,-0.079 -0.294,-0.079 -0.281,-0.17 -0.665,-0.037 -0.877,-0.305 -0.158,-0.068 -0.283,-0.169 -0.44,-0.247 -0.1,-0.09 -0.246,0.025 -0.338,-0.075 -0.134,0 -0.225,-0.053 -0.36,-0.031 -0.13,-0.024 -0.168,-0.064 -0.249,-0.04 -0.094,0.031 -0.096,-0.039 -0.213,-0.013 -0.168,0.115 -0.371,0.024 -0.496,-0.077 -0.1,0.011 -0.044,-0.113 -0.134,-0.124 -0.246,-0.114 -0.338,-0.384 -0.473,-0.609 -0.157,-0.09 -0.046,-0.291 -0.124,-0.415 l 0.023,-0.395 c -0.203,-0.327 0.247,-0.473 0.191,-0.81 0.067,-0.067 0.034,-0.194 0.101,-0.236 l 0.113,-0.27 c 0.055,-0.136 0.011,-0.293 0.103,-0.43 0.054,-0.144 0.214,-0.247 0.248,-0.404 l 0.416,-0.124 0.156,-0.201 c 0.204,-0.037 0.405,-0.092 0.619,-0.104 0.034,-0.022 0.058,-0.068 0.111,-0.055 0.17,-0.057 0.341,-0.114 0.508,-0.156 0.08,-0.036 0.159,-0.08 0.238,-0.058 0.314,-0.114 0.654,-0.157 0.968,-0.271 l 0.034,-0.045 c 0.147,-0.044 0.259,-0.123 0.405,-0.158 0.102,-0.111 0.27,-0.1 0.371,-0.201 0.125,0 0.203,-0.115 0.326,-0.126 0.205,0 0.294,-0.212 0.497,-0.212 0.147,-0.069 0.268,-0.157 0.438,-0.194 0.068,-0.1 0.203,-0.066 0.295,-0.157 0.168,-0.079 0.259,-0.214 0.438,-0.281 0.057,-0.09 0.147,-0.158 0.257,-0.191 0.057,-0.078 0.182,-0.124 0.216,-0.235 l 0.01,0.022 0.069,-0.046 c 0.113,-0.066 0.235,-0.09 0.326,-0.157 0.27,-0.066 0.54,-0.158 0.811,-0.212 l 0.022,-0.037 c 0.113,-0.011 0.246,0 0.316,-0.088 0.664,-0.259 1.361,-0.565 2.116,-0.676 0.405,-0.09 0.877,-0.125 1.272,-0.271 0.349,-0.124 0.676,-0.27 1.036,-0.384 0.171,-0.023 0.328,-0.109 0.507,-0.135 0.055,-0.112 0.225,-0.044 0.338,-0.066 0.022,0 0.045,-0.034 0.032,-0.069 0.237,-0.11 0.508,-0.179 0.745,-0.304 0.066,0.035 0.1,-0.078 0.169,-0.022 0.066,-0.044 0.159,-0.124 0.281,-0.091 0,-0.009 0.032,-0.033 0.058,-0.009 0.054,-0.103 0.21,-0.092 0.301,-0.148 l 0.476,-0.136 c 0.15,-0.045 0.3,-0.084 0.453,-0.117 V 0.188 C 0.463,0.159 0.216,0.159 0,0"
             style="fill:#098439;fill-opacity:1;fill-rule:nonzero;stroke:none"
             id="path51" />
        </g>
        <g
           id="g53"
           transform="translate(81.537399,505.35249)">
          <path
             d="M 0,0 C 0.079,0.135 0.045,0.258 0.089,0.406 0.124,0.506 0.19,0.596 0.214,0.709 0.303,0.81 0.303,0.967 0.406,1.068 0.417,1.101 0.396,1.181 0.463,1.17 0.486,1.36 0.598,1.473 0.676,1.644 0.687,1.676 0.665,1.722 0.709,1.722 0.754,1.936 0.901,2.091 0.991,2.261 L 1.024,2.249 c 0.056,0.104 0.09,0.215 0.183,0.285 0.065,0.157 0.201,0.258 0.201,0.428 0.046,0.065 0.113,0.12 0.1,0.201 -0.088,0.246 0.136,0.404 0.17,0.641 V 3.85 c 0.09,0.123 0.125,0.269 0.203,0.393 0.045,0.057 0.045,0.146 0.1,0.181 0.091,0.181 0.205,0.327 0.282,0.517 0.045,0.011 0.035,0.057 0.057,0.079 0.067,0.057 0.124,0.148 0.146,0.238 0.202,0.203 0.226,0.517 0.438,0.709 0.08,0.223 0.26,0.371 0.394,0.572 0.069,0.068 0.115,0.181 0.18,0.238 0.047,0.124 0.136,0.225 0.226,0.338 0.09,0.336 0.439,0.596 0.586,0.923 0.078,0 0.047,0.114 0.113,0.134 0.113,0.215 0.304,0.384 0.379,0.623 0.071,0.106 0.165,0.13 0.221,0.265 0.021,0.013 0.072,0.017 0.076,0.07 0.069,0.055 0.095,0.067 0.151,0.135 0.085,0.02 0.064,0.057 0.13,0.077 l 0.048,0.029 c 0.011,0.007 0.02,0.015 0.029,0.022 H 5.44 c 0,0 0.257,0.119 0.302,0.234 0.192,0.133 0.226,0.358 0.338,0.526 0.047,0.149 0.169,0.238 0.238,0.373 0.066,0.136 0.151,0.313 0.191,0.417 -0.024,0.097 -0.03,0.119 -0.052,0.198 0.161,0.274 0.073,0.643 -0.029,0.937 -0.035,0.225 -0.169,0.461 -0.395,0.574 -0.157,0.079 -0.161,0.234 -0.307,0.313 -0.015,0.018 0.016,0.038 -0.007,0.046 -0.02,0.018 -0.045,0.022 -0.072,0.033 -0.009,0.007 -0.017,0.014 -0.025,0.025 -0.016,0 -0.031,0.006 -0.043,0.013 -0.004,0.004 -0.007,0.007 -0.011,0.011 -0.006,0 -0.012,0.002 -0.018,0.006 -0.057,0.042 -0.045,0.133 -0.11,0.175 -0.047,0.19 -0.228,0.304 -0.307,0.495 -0.059,0.244 -0.255,0.485 -0.504,0.595 -0.09,0.045 -0.187,0.078 -0.289,0.084 -0.171,0.02 -0.338,0.15 -0.516,0.155 -0.015,0.004 -0.029,0.006 -0.04,0.009 L 3.777,14.627 C 3.572,14.683 3.461,14.649 3.258,14.683 3.155,14.64 3.033,14.683 2.92,14.662 2.876,14.616 2.786,14.683 2.762,14.616 L 2.75,14.627 C 2.637,14.57 2.538,14.592 2.424,14.559 2.313,14.513 2.199,14.537 2.111,14.448 1.717,14.391 1.333,14.234 0.994,14.077 0.847,14.077 0.715,13.996 0.58,13.94 0.545,13.918 0.545,13.85 0.489,13.896 0.093,13.669 -0.356,13.557 -0.706,13.243 -0.829,13.221 -0.919,13.152 -1.033,13.13 -1.201,13.018 -1.371,12.896 -1.538,12.78 -1.617,12.758 -1.641,12.658 -1.708,12.645 -1.763,12.501 -1.909,12.422 -2.035,12.342 -2.101,12.186 -2.282,12.241 -2.383,12.139 -2.633,12.047 -2.811,11.835 -3.081,11.779 -3.656,11.362 -4.309,11.071 -4.86,10.609 -4.917,10.585 -4.883,10.506 -4.951,10.519 -5.14,10.285 -5.345,10.031 -5.576,9.823 -5.813,9.638 -6.06,9.462 -6.258,9.323 -6.366,9.258 -6.504,9.181 -6.642,9.181 -6.742,9.152 -6.813,9.064 -6.891,8.996 -7.079,8.94 -7.053,8.83 -7.208,8.742 -7.333,8.552 -7.518,8.373 -7.646,8.216 -7.631,8.146 -7.561,8.069 -7.611,7.976 -7.6,7.738 -7.55,7.673 -7.528,7.437 -7.574,7.393 -7.595,7.314 -7.574,7.256 -7.483,7.201 -7.586,7.042 -7.473,6.987 -7.44,6.75 -7.3,6.614 -7.288,6.367 -7.196,6.197 -7.208,5.996 -7.072,5.861 -6.736,5.388 -6.651,4.841 -6.279,4.4 -6.178,4.278 -6.188,4.132 -6.188,3.973 l 0.067,-0.417 c 0.18,-0.386 0.388,-0.71 0.564,-1.07 0.043,-0.139 0.085,-0.281 0.135,-0.424 0.066,-0.36 0.111,-0.698 0.246,-1.035 C -5.232,0.969 -5.208,0.87 -5.186,0.801 -5.208,0.656 -5.12,0.508 -5.12,0.362 -5.108,0.318 -5.04,0.294 -5.076,0.24 c -0.156,-0.622 0.114,-1.172 0.487,-1.644 0.123,-0.261 0,-0.563 0.056,-0.823 -0.056,-0.283 0.089,-0.468 0.146,-0.738 0.151,-0.152 0.42,-0.046 0.595,-0.176 0.037,-0.012 0.063,-0.038 0.085,-0.066 h 0.029 -0.011 c 0.009,-0.007 0.018,-0.016 0.025,-0.025 0.11,-0.044 0.339,-0.119 0.435,-0.029 0.139,0.011 0.257,-0.033 0.411,0.018 0.185,-0.209 0.478,-0.084 0.723,-0.11 0,0 0.311,0.154 0.32,0.154 0.021,0.113 0.192,0.128 0.258,0.205 -0.01,0.135 0.169,0.113 0.193,0.237 0.063,0.103 0.088,0.033 0.12,0.084 0.055,0.092 0.092,0.084 0.171,0.163 -0.004,0.059 0.017,0.102 0.042,0.143 0.075,0.054 0.157,0.104 0.169,0.171 0.068,0.112 0.091,0.247 0.18,0.348 -0.012,0.124 0.079,0.203 0.125,0.316 0.033,0.033 0.012,0.102 0.067,0.135 0.033,0.101 0.125,0.19 0.1,0.306 0.013,0.009 0.025,0.009 0.035,0.009 l 0.09,0.236 c 0.057,0.213 0.136,0.429 0.179,0.608 C 0.034,-0.181 0,-0.069 0,0"
             style="fill:#098439;fill-opacity:1;fill-rule:nonzero;stroke:none"
             id="path55" />
        </g>
      </g>
    </g>
    <g
       transform="matrix(5.6933883,0,0,-5.6933883,-744.51574,3168.0565)"
       id="g57">
      <g
         id="g59"
         clip-path="url(#clipPath61)">
        <g
           id="g65"
           transform="translate(82.165405,502.2428)">
          <path
             d="M 0,0 0.193,-0.068 C 0.529,-0.115 0.957,0.13 1.269,0.174 1.378,0.095 1.56,0.07 1.68,0.081 1.905,0.037 2.08,0.161 2.301,0.079 2.496,0.09 2.717,0.144 2.885,0.033 c 0.181,0.018 0.396,-0.194 0.586,-0.197 0.813,0.023 1.495,0.484 2.27,0.159 0.72,-0.004 1.32,-0.523 2.04,-0.529 0.012,-0.045 0.117,0 0.106,-0.055 0.384,-0.029 0.806,-0.027 1.166,-0.206 0.723,-0.102 1.417,-0.449 2.138,-0.592 0.259,-0.084 0.528,-0.015 0.792,0.016 0.464,0.119 0.909,-0.182 1.377,-0.126 l 0.111,-0.044 c 0.562,-0.051 1.148,-0.036 1.76,0.121 0.286,0 0.554,-0.212 0.857,-0.181 0.355,0.196 0.79,-0.137 1.196,-0.086 l 0.482,-0.23 c 0.15,-0.044 0.311,-0.05 0.454,-0.031 0.316,-0.017 0.629,-0.349 0.976,-0.306 0.221,-0.08 0.802,-0.223 1.01,-0.221 0.168,0.026 0.329,-0.064 0.477,0.033 0.181,0.156 0.373,-0.049 0.575,0.039 0.257,-0.085 0.514,-0.194 0.759,-0.233 l 0.85,-0.016 c 0.617,0.19 1.091,-0.477 1.679,-0.135 0.505,0.076 1.008,0.234 1.291,0.201 l 0.001,5.484 c -0.018,0.005 -0.085,0.056 -0.085,0.056 -0.036,0.013 -0.084,0.02 -0.12,0.028 -0.192,0.069 -0.259,0.108 -0.451,0.119 -0.078,0.045 -0.18,0.067 -0.27,0.078 -0.196,0.104 -0.394,0.13 -0.586,0.221 -0.018,0.013 -0.039,0.02 -0.059,0.035 -0.088,0.033 -0.102,0.146 -0.201,0.168 -0.002,0 -0.005,0.004 -0.005,0.004 -0.102,0.088 -0.233,0.135 -0.31,0.223 -0.014,0.002 -0.022,0.004 -0.031,0.007 -0.009,0.006 -0.017,0.011 -0.023,0.019 -0.058,0.007 -0.113,0.021 -0.163,0.047 -0.095,0.048 -0.177,0.115 -0.257,0.174 -0.009,-0.002 -0.015,0 -0.02,0 -0.01,0.009 -0.021,0.018 -0.033,0.025 -0.019,-0.001 -0.039,0 -0.059,0.008 -0.017,0.009 -0.034,0.023 -0.046,0.034 -0.012,0.002 -0.022,0.008 -0.034,0.01 -0.007,0.005 -0.014,0.012 -0.02,0.016 -0.015,0.004 -0.032,0.007 -0.044,0.013 -0.063,0.035 -0.114,0.084 -0.18,0.108 -0.022,0.014 -0.047,0.025 -0.073,0.031 -0.081,0.066 -0.175,0.117 -0.273,0.164 -0.149,0.073 -0.31,0.13 -0.458,0.2 C 22.03,4.731 21.991,4.751 21.949,4.766 21.927,4.781 21.898,4.792 21.867,4.803 21.856,4.85 21.824,4.868 21.784,4.879 21.746,4.912 21.685,4.912 21.629,4.921 21.613,4.987 21.551,4.982 21.52,5.046 21.505,5.047 21.491,5.055 21.474,5.06 21.473,5.064 21.469,5.066 21.469,5.069 21.39,5.09 21.314,5.132 21.246,5.157 c -0.49,0.377 -1.002,0.713 -1.438,1.181 -0.2,0.203 -0.37,0.464 -0.562,0.666 -0.147,0.192 -0.371,0.281 -0.508,0.462 -0.125,0.057 -0.246,0.135 -0.303,0.269 -0.018,0.002 -0.032,0.007 -0.047,0.014 0,0.004 -0.003,0.008 -0.005,0.013 C 18.375,7.764 18.367,7.766 18.358,7.768 18.303,7.806 18.26,7.87 18.193,7.887 18.178,7.899 18.161,7.907 18.145,7.912 18.12,7.958 18.103,8.009 18.05,8.011 18.038,8.026 18.023,8.036 18.001,8.038 17.989,8.058 17.965,8.073 17.94,8.073 17.932,8.082 17.922,8.089 17.911,8.093 17.855,8.141 17.81,8.216 17.737,8.238 17.719,8.25 17.7,8.26 17.679,8.263 c -0.103,0.064 -0.175,0.168 -0.29,0.214 -0.02,0.009 -0.043,0.018 -0.066,0.028 -0.121,0.104 -0.28,0.169 -0.419,0.268 H 16.893 C 16.879,8.781 16.864,8.788 16.851,8.797 16.788,8.788 16.725,8.802 16.663,8.828 16.604,8.861 16.549,8.901 16.497,8.941 16.485,8.945 16.472,8.951 16.459,8.954 16.454,8.96 16.449,8.962 16.443,8.967 16.041,9.124 15.679,9.203 15.284,9.38 15.263,9.393 15.238,9.402 15.214,9.406 15.21,9.409 15.207,9.411 15.203,9.413 l 0.012,0.013 c -0.012,0.022 -0.022,0.044 -0.033,0.055 -0.019,0.005 -0.036,0.014 -0.051,0.022 -0.002,0 -0.002,0.003 -0.004,0.003 -0.004,0.002 -0.008,0.006 -0.015,0.008 -0.12,0.067 -0.207,0.188 -0.315,0.281 -0.01,0.002 -0.022,0.006 -0.031,0.007 -0.008,0.008 -0.012,0.013 -0.019,0.019 -0.013,0.002 -0.024,0.005 -0.035,0.009 -0.061,0.042 -0.097,0.117 -0.162,0.157 -0.096,0.044 -0.119,0.145 -0.207,0.165 -0.008,0.007 -0.018,0.012 -0.028,0.016 -0.184,0.212 -0.265,0.453 -0.485,0.631 -0.034,0.011 -0.012,0.078 -0.067,0.078 0.011,0.066 -0.033,0.112 -0.091,0.137 0.024,0.079 -0.114,0.066 -0.101,0.156 -0.042,0.051 -0.085,0.11 -0.151,0.128 -0.009,0.007 -0.019,0.015 -0.03,0.018 -0.252,0.258 -0.431,0.521 -0.719,0.709 -0.11,0.064 -0.221,0.172 -0.343,0.224 -0.044,0.023 -0.09,0.042 -0.139,0.051 -0.003,0 -0.005,10e-4 -0.009,10e-4 -0.026,0.021 -0.045,0.046 -0.039,0.085 -0.026,0.018 -0.032,-0.011 -0.038,-0.037 -0.013,0.018 -0.018,0.038 -0.014,0.062 -0.035,0.022 -0.035,-0.033 -0.044,-0.056 -0.031,10e-4 -0.055,0.012 -0.08,0.023 -0.096,0.053 -0.17,0.139 -0.27,0.178 -0.013,0.007 -0.025,0.014 -0.038,0.018 -0.005,0.004 -0.007,0.004 -0.011,0.005 -0.01,0.004 -0.02,0.01 -0.03,0.011 -0.014,0.02 -0.038,0.017 -0.055,0.011 l -0.047,0.015 c 0,0.004 -0.002,0.005 -0.002,0.011 l -0.196,0.064 c -0.026,0.027 -0.061,0.047 -0.098,0.06 -0.063,0.037 -0.139,0.05 -0.208,0.079 -0.062,0.047 -0.134,0.086 -0.207,0.117 -0.075,0.04 -0.152,0.067 -0.224,0.097 -0.168,0 -0.308,0.097 -0.454,0.146 -0.053,0.04 -0.103,0.099 -0.164,0.117 C 9.926,13.329 9.646,13.274 9.604,13.263 9.303,13.168 9.318,13.139 9.072,12.945 9.035,12.91 8.966,12.949 8.966,12.885 8.875,12.802 8.875,12.813 8.699,12.786 8.672,12.769 8.645,12.733 8.622,12.738 8.589,12.76 8.557,12.66 8.521,12.669 8.484,12.693 8.444,12.649 8.395,12.627 8.26,12.548 8.204,12.4 8.057,12.342 7.99,12.312 7.932,12.208 7.865,12.163 7.731,11.905 7.459,11.748 7.279,11.534 7.192,11.353 6.942,11.285 6.898,11.06 6.841,11.073 6.828,11.005 6.786,10.993 6.763,10.925 6.695,10.916 6.674,10.835 6.48,10.689 6.289,10.532 6.154,10.34 5.951,10.069 5.749,9.821 5.568,9.519 5.547,9.495 5.558,9.428 5.502,9.417 5.119,8.83 4.77,8.201 4.319,7.627 L 4.104,7.322 C 4.07,7.289 4.083,7.221 4.026,7.21 3.993,7.099 3.913,7.018 3.846,6.94 3.813,6.793 3.7,6.68 3.633,6.567 3.587,6.4 3.498,6.274 3.428,6.13 3.271,5.713 3.025,5.375 2.845,4.969 2.765,4.788 2.663,4.62 2.617,4.419 2.527,4.238 2.553,3.991 2.429,3.832 2.248,3.607 2.112,3.393 1.954,3.157 1.932,3.077 1.819,3.055 1.831,2.967 1.617,2.775 1.469,2.539 1.312,2.313 1.335,2.201 1.211,2.144 1.211,2.053 1.111,1.963 1.031,1.828 0.908,1.726 0.919,1.66 0.841,1.636 0.827,1.579 0.647,1.084 0.311,0.669 0.063,0.198"
             style="fill:#098439;fill-opacity:1;fill-rule:nonzero;stroke:none"
             id="path67" />
        </g>
        <g
           id="g69"
           transform="translate(107.9968,533.11259)">
          <path
             d="M 0,0 V 9.112 C -0.172,9.127 -0.298,9.185 -0.472,9.174 -0.754,9.139 -0.856,9.094 -1.081,8.991 -1.283,9.004 -1.282,8.879 -1.462,8.935 -1.564,8.978 -1.734,8.86 -1.824,8.914 -2.026,8.927 -2.217,8.892 -2.409,8.813 -2.489,8.78 -2.556,8.735 -2.612,8.713 -2.69,8.691 -2.792,8.679 -2.859,8.634 -3.062,8.565 -3.005,8.318 -3.208,8.284 -3.535,8.159 -3.826,7.991 -4.109,7.768 -4.357,7.677 -4.539,7.416 -4.718,7.273 -5.089,6.933 -5.573,6.856 -5.944,6.528 -6.136,6.463 -6.303,6.326 -6.451,6.212 -6.541,6.191 -6.597,6.112 -6.675,6.077 -6.745,5.987 -6.847,5.955 -6.902,5.865 -7.093,5.774 -7.295,5.706 -7.464,5.584 -7.701,5.403 -7.972,5.324 -8.208,5.189 -8.455,4.997 -8.759,4.861 -9.053,4.794 -9.187,4.75 -9.312,4.637 -9.447,4.624 -9.659,4.536 -9.863,4.389 -10.032,4.232 -10.222,3.994 -10.471,3.737 -10.674,3.51 -10.855,3.442 -11.012,3.32 -11.17,3.206 -11.258,3.174 -11.339,3.104 -11.416,3.071 -11.553,2.914 -11.767,2.879 -11.9,2.735 c -0.102,0.009 -0.158,-0.113 -0.26,-0.102 -0.158,-0.044 -0.282,-0.112 -0.417,-0.181 -0.202,-0.158 -0.472,-0.191 -0.709,-0.225 -0.146,0 -0.292,-0.103 -0.428,-0.046 -0.146,-0.113 -0.349,-0.009 -0.494,-0.134 -0.104,-0.069 -0.216,-0.124 -0.316,-0.168 -0.213,-0.113 -0.372,-0.237 -0.564,-0.349 -0.428,-0.113 -0.844,-0.272 -1.306,-0.296 -0.223,-0.015 -0.219,0.046 -0.395,0.015 -0.076,0.043 -0.221,0.025 -0.277,-0.01 V 1.238 c -0.237,0.022 -0.237,-0.172 -0.439,-0.231 -0.337,-0.066 -0.6,-0.395 -0.916,-0.554 -0.201,-0.192 -0.513,-0.159 -0.726,-0.327 -0.272,-0.079 -0.658,-0.27 -0.709,-0.27 -0.129,0.049 -0.305,-0.134 -0.44,-0.134 -0.068,-0.046 -0.172,-0.177 -0.241,-0.21 -0.057,0.046 -0.101,-0.033 -0.156,-0.013 -0.103,-0.066 -0.258,-0.06 -0.327,-0.174 -0.168,-0.133 -0.3,-0.049 -0.266,-0.263 -0.092,-0.067 -0.046,-0.19 -0.067,-0.256 0.181,-0.168 0.166,-0.415 0.37,-0.539 0,-0.092 0.1,-0.079 0.146,-0.123 0.192,-0.011 0.28,-0.181 0.462,-0.192 0.079,-0.091 0.237,-0.069 0.304,-0.192 0.069,-0.089 0.16,-0.208 0.249,-0.263 0.203,0.031 0.302,-0.055 0.459,-0.135 0.047,-0.044 0.125,-0.011 0.171,-0.079 0.1,0.011 0.199,-0.069 0.308,-0.034 0.081,-0.148 0.262,-0.141 0.318,-0.3 0.102,0 0.127,-0.121 0.205,-0.176 0.09,0.011 0.104,-0.067 0.172,-0.124 0.173,-0.168 0.325,-0.239 0.359,-0.442 0.033,-0.101 0.094,-0.138 0.104,-0.249 -0.045,-0.077 0.15,-0.146 0.128,-0.203 0.022,-0.122 0.138,-0.236 0.117,-0.36 0.034,-0.099 -0.015,-0.212 0.042,-0.314 0.126,-0.163 -0.067,-0.249 0.002,-0.372 0.01,-0.058 -0.054,-0.005 -0.024,-0.1 0.125,-0.183 0.016,-0.384 0.096,-0.574 l -0.098,-0.37 c -0.123,-0.109 -0.088,-0.217 -0.224,-0.318 -0.073,-0.164 -0.363,-0.281 -0.339,-0.44 0.032,-0.168 -0.063,-0.28 0.029,-0.393 0.189,-0.046 0.085,-0.249 0.231,-0.338 0.238,-0.101 0.871,-0.417 1.151,-0.428 0.079,0.067 0.147,-0.035 0.237,-0.011 0.068,-0.137 0.191,-0.013 0.302,-0.035 l 0.026,0.035 c 0.156,0.011 0.325,0.055 0.494,0.033 0.193,-0.057 0.416,0 0.563,0.045 l 0.134,0.022 c 0.214,0.079 0.409,0.179 0.575,0.304 0.09,-0.009 0.125,0.069 0.19,0.113 0.146,0.046 0.293,0.135 0.452,0.157 0.114,0.07 0.225,0.169 0.361,0.159 0.1,0.068 0.236,0.044 0.349,0.099 0.472,0.271 0.788,0.722 1.352,0.779 0.427,0.225 0.843,0.303 1.27,0.53 0.024,-0.022 0.091,0 0.103,-0.035 0.235,0.103 0.482,0.236 0.753,0.249 0.461,0.168 0.811,0.495 1.283,0.64 0.182,0.035 0.316,0.159 0.463,0.261 0.236,0.21 0.597,0.181 0.855,0.357 l 0.08,0.014 c 0.346,0.147 0.73,0.313 0.99,0.642 0.168,0.088 0.326,0.179 0.495,0.291 0.147,0.226 0.429,0.316 0.653,0.473 l 0.226,0.262 c 0.1,0.022 0.17,0.12 0.247,0.177 0.192,0.091 0.35,0.238 0.54,0.373 0.157,0.02 0.271,0.201 0.394,0.27 0.091,0.068 0.215,0.068 0.271,0.169 0.056,0.146 0.236,0.089 0.327,0.203 0.18,0.033 0.281,0.201 0.44,0.259 l 0.505,0.258 c 0.306,0.305 0.743,0.172 0.981,0.554 0.274,0.203 0.362,0.413 0.675,0.565"
             style="fill:#098439;fill-opacity:1;fill-rule:nonzero;stroke:none"
             id="path71" />
        </g>
      </g>
    </g>
    <g
       transform="matrix(5.6933883,0,0,-5.6933883,-744.51574,3168.0565)"
       id="g73">
      <g
         id="g75"
         clip-path="url(#clipPath77)">
        <g
           id="g81"
           transform="translate(163.7765,510.73489)">
          <path
             d="m 0,0 c -0.786,0 -1.591,-0.618 -2.434,-2.096 h -0.038 v 1.928 h -1.666 v -8.406 h 1.666 v 4.399 c 0,1.442 0.9,2.584 2.041,2.584 0.351,0 0.911,-0.269 1.386,-0.672 l 0.882,1.44 C 1.208,-0.27 0.62,0 0,0"
             style="fill:#231f20;fill-opacity:1;fill-rule:nonzero;stroke:none"
             id="path83" />
        </g>
        <g
           id="g85"
           transform="translate(127.47591,507.192)">
          <path
             d="m 0,0 c 0,-3.127 -1.872,-5.186 -5.672,-5.186 -2.696,0 -5.317,1.516 -5.317,4.999 V 7.75 h 1.835 V 0.206 c 0,-1.442 0.187,-2.04 0.767,-2.621 0.73,-0.73 1.648,-1.086 2.752,-1.086 1.404,0 2.415,0.449 2.996,1.03 0.655,0.655 0.805,1.591 0.805,2.789 V 7.75 H 0 V 0"
             style="fill:#231f20;fill-opacity:1;fill-rule:nonzero;stroke:none"
             id="path87" />
        </g>
        <g
           id="g89"
           transform="translate(131.12669,509.4758)">
          <path
             d="M 0,0 H 0.037 C 0.674,0.805 1.61,1.273 2.546,1.273 4.137,1.273 5.41,0.187 5.41,-2.116 V -7.301 H 3.744 v 5.204 c 0,1.236 -0.637,2.041 -1.648,2.041 -0.729,0 -1.31,-0.337 -2.096,-1.217 V -7.301 H -1.666 V 1.105 H 0 V 0"
             style="fill:#231f20;fill-opacity:1;fill-rule:nonzero;stroke:none"
             id="path91" />
        </g>
        <g
           id="g93"
           transform="translate(139.5507,512.13429)">
          <path
             d="m 0,0 c -0.543,0 -0.992,0.449 -0.992,0.992 0,0.543 0.449,0.992 0.992,0.992 0.543,0 0.992,-0.449 0.992,-0.992 C 0.992,0.449 0.543,0 0,0 m 0.824,-9.96 h -1.666 v 8.406 h 1.666 z"
             style="fill:#231f20;fill-opacity:1;fill-rule:nonzero;stroke:none"
             id="path95" />
        </g>
        <g
           id="g97"
           transform="translate(141.5538,510.58051)">
          <path
             d="M 0,0 H 1.816 L 4.081,-5.167 6.29,0 H 8.069 L 4.362,-8.574 H 3.8 Z"
             style="fill:#231f20;fill-opacity:1;fill-rule:nonzero;stroke:none"
             id="path99" />
        </g>
        <g
           id="g101"
           transform="translate(157.4288,504.6084)">
          <path
             d="m 0,0 c -0.974,-0.637 -1.928,-1.011 -2.939,-1.011 -1.61,0 -2.565,0.861 -2.827,2.527 H 0.15 c 0,3.108 -1.423,4.625 -3.651,4.625 -2.321,0 -3.931,-1.723 -3.931,-4.269 0,-2.321 1.46,-4.474 4.081,-4.474 1.423,0 2.34,0.318 3.351,0.992 z m -5.728,2.621 c 0.224,1.329 0.992,2.078 2.265,2.078 1.179,0 1.909,-0.805 1.965,-2.078 h -4.23"
             style="fill:#231f20;fill-opacity:1;fill-rule:nonzero;stroke:none"
             id="path103" />
        </g>
        <g
           id="g105"
           transform="translate(171.15199,508.40871)">
          <path
             d="m 0,0 c -0.936,0.618 -1.817,0.88 -2.435,0.88 -0.673,0 -1.104,-0.318 -1.104,-0.768 0,-0.374 0.562,-0.823 2.04,-1.684 1.386,-0.918 1.892,-1.498 1.892,-2.359 0,-1.479 -1.18,-2.472 -2.77,-2.472 -1.031,0 -1.836,0.206 -2.922,0.768 v 1.797 c 1.086,-0.748 2.078,-1.104 2.752,-1.104 0.675,0.037 1.236,0.356 1.236,0.954 0,1.161 -3.932,1.779 -3.932,4.044 0,1.423 1.086,2.284 2.771,2.284 C -1.686,2.34 -0.88,2.116 0,1.648 V 0"
             style="fill:#231f20;fill-opacity:1;fill-rule:nonzero;stroke:none"
             id="path107" />
        </g>
        <g
           id="g109"
           transform="translate(174.25861,512.13429)">
          <path
             d="m 0,0 c -0.543,0 -0.992,0.449 -0.992,0.992 0,0.543 0.449,0.992 0.992,0.992 0.543,0 0.992,-0.449 0.992,-0.992 C 0.992,0.449 0.543,0 0,0 m 0.824,-9.96 h -1.665 v 8.406 h 1.665 z"
             style="fill:#231f20;fill-opacity:1;fill-rule:nonzero;stroke:none"
             id="path111" />
        </g>
        <g
           id="g113"
           transform="translate(179.6134,510.58051)">
          <path
             d="M 0,0 H 2.658 V -1.498 H 0 v -4.305 c 0,-0.993 0.711,-1.274 1.197,-1.274 0.6,0 1.218,0.206 1.892,0.618 V -8.013 C 2.508,-8.331 1.61,-8.574 1.067,-8.574 c -1.816,0 -2.734,1.123 -2.734,2.639 v 4.437 h -1.46 V -1.31 L 0,1.741 V 0"
             style="fill:#231f20;fill-opacity:1;fill-rule:nonzero;stroke:none"
             id="path115" />
        </g>
        <g
           id="g117"
           transform="translate(185.24809,497.86951)">
          <path
             d="m 0,0 h -1.853 l 2.864,6.102 -3.258,6.609 h 1.891 l 2.265,-4.736 2.172,4.736 h 1.872 z"
             style="fill:#231f20;fill-opacity:1;fill-rule:nonzero;stroke:none"
             id="path119" />
        </g>
        <g
           id="g121"
           transform="translate(200.5808,510.7491)">
          <path
             d="m 0,0 c -2.509,0 -4.438,-1.872 -4.438,-4.287 0,-2.584 1.854,-4.456 4.438,-4.456 2.695,0 4.549,1.798 4.549,4.456 C 4.549,-1.798 2.64,0 0,0 m -0.02,-1.498 c 1.666,0 2.865,-1.179 2.865,-2.808 0,-1.816 -1.105,-2.939 -2.865,-2.939 -1.61,0 -2.713,1.179 -2.713,2.958 0,1.61 1.141,2.789 2.713,2.789"
             style="fill:#231f20;fill-opacity:1;fill-rule:nonzero;stroke:none"
             id="path123" />
        </g>
        <g
           id="g125"
           transform="translate(211.3448,513.31351)">
          <path
             d="m 0,0 c -0.281,0.112 -0.45,0.15 -0.749,0.15 -1.349,0 -1.779,-0.786 -1.779,-2.078 v -0.805 h 1.516 v -1.498 h -1.516 v -6.908 h -1.666 v 6.908 h -1.18 v 1.498 h 1.18 v 0.618 c 0,1.647 0.393,2.434 1.068,3.107 C -2.416,1.704 -1.46,2.041 0,1.629 V 0"
             style="fill:#231f20;fill-opacity:1;fill-rule:nonzero;stroke:none"
             id="path127" />
        </g>
        <g
           id="g129"
           transform="translate(223.1571,512.13429)">
          <path
             d="m 0,0 c -1.086,1.03 -2.133,1.329 -2.995,1.329 -1.18,0 -2.022,-0.618 -2.022,-1.516 0,-2.453 5.522,-2.415 5.522,-6.478 0,-2.003 -1.516,-3.463 -3.575,-3.463 -1.385,0 -2.509,0.375 -3.576,1.179 v 2.322 c 0.936,-1.198 2.116,-1.854 3.37,-1.854 1.423,0 2.079,0.899 2.079,1.61 0,2.64 -5.523,2.94 -5.523,6.441 0,2.077 1.535,3.407 3.874,3.407 0.974,0 1.947,-0.3 2.846,-0.899 V 0"
             style="fill:#231f20;fill-opacity:1;fill-rule:nonzero;stroke:none"
             id="path131" />
        </g>
        <g
           id="g133"
           transform="translate(227.3878,510.58051)">
          <path
             d="M 0,0 H 2.657 V -1.498 H 0 v -4.305 c 0,-0.993 0.71,-1.274 1.199,-1.274 0.598,0 1.216,0.206 1.89,0.618 V -8.013 C 2.508,-8.331 1.61,-8.574 1.067,-8.574 c -1.815,0 -2.733,1.123 -2.733,2.639 v 4.437 h -1.46 V -1.31 L 0,1.741 V 0"
             style="fill:#231f20;fill-opacity:1;fill-rule:nonzero;stroke:none"
             id="path135" />
        </g>
        <g
           id="g137"
           transform="translate(233.75259,503.1295)">
          <path
             d="m 0,0 c 0,-0.618 -0.506,-1.123 -1.122,-1.123 -0.618,0 -1.124,0.505 -1.124,1.123 0,0.618 0.506,1.123 1.124,1.123 C -0.506,1.123 0,0.618 0,0"
             style="fill:#231f20;fill-opacity:1;fill-rule:nonzero;stroke:none"
             id="path139" />
        </g>
        <g
           id="g141"
           transform="translate(247.2881,503.0545)">
          <path
             d="m 0,0 c -1.704,-0.749 -3.089,-1.048 -4.868,-1.048 -3.913,0 -6.795,2.733 -6.795,6.477 0,3.763 2.958,6.628 6.852,6.628 1.497,0 2.546,-0.244 4.548,-1.086 V 9.117 c -1.498,0.824 -3.051,1.254 -4.586,1.254 -2.77,0 -4.924,-2.115 -4.924,-4.886 0,-2.845 2.135,-4.848 5.168,-4.848 0.991,0 1.891,0.224 2.77,0.505 V 3.763 H -4.287 V 5.41 H 0 V 0"
             style="fill:#231f20;fill-opacity:1;fill-rule:nonzero;stroke:none"
             id="path143" />
        </g>
        <g
           id="g145"
           transform="translate(256.3308,503.6725)">
          <path
             d="m 0,0 c -0.375,-0.281 -0.711,-0.449 -0.882,-0.449 -0.205,0 -0.318,0.112 -0.318,0.43 v 4.325 c 0,1.909 -1.347,2.771 -3.051,2.771 -1.215,0 -2.133,-0.375 -2.79,-1.142 V 4.119 c 0.806,0.954 1.742,1.385 2.661,1.385 1.009,0 1.515,-0.431 1.515,-1.479 V 3.576 L -4.344,3.052 C -5.692,2.565 -7.209,2.059 -7.209,0.393 c 0,-1.086 0.825,-2.059 2.061,-2.059 0.768,0 1.533,0.281 2.264,0.861 0.151,-0.599 0.544,-0.861 1.273,-0.861 0.524,0 0.843,0.15 1.611,0.655 z m -2.865,0.206 c -0.45,-0.431 -0.936,-0.693 -1.461,-0.693 -0.693,0 -1.197,0.487 -1.197,1.18 0,0.992 1.235,1.479 2.658,1.966 V 0.206"
             style="fill:#231f20;fill-opacity:1;fill-rule:nonzero;stroke:none"
             id="path147" />
        </g>
        <path
           d="m 259.325,502.175 h -1.666 v 12.768 h 1.666 z"
           style="fill:#231f20;fill-opacity:1;fill-rule:nonzero;stroke:none"
           id="path149" />
        <path
           d="m 263.237,502.175 h -1.665 v 12.768 h 1.665 z"
           style="fill:#231f20;fill-opacity:1;fill-rule:nonzero;stroke:none"
           id="path151" />
        <g
           id="g153"
           transform="translate(272.2793,504.6084)">
          <path
             d="m 0,0 c -0.972,-0.637 -1.927,-1.011 -2.938,-1.011 -1.611,0 -2.565,0.861 -2.829,2.527 H 0.15 c 0,3.108 -1.423,4.625 -3.652,4.625 -2.319,0 -3.93,-1.723 -3.93,-4.269 0,-2.321 1.461,-4.474 4.08,-4.474 1.425,0 2.34,0.318 3.352,0.992 z m -5.728,2.621 c 0.225,1.329 0.993,2.078 2.265,2.078 1.179,0 1.908,-0.805 1.965,-2.078 h -4.23"
             style="fill:#231f20;fill-opacity:1;fill-rule:nonzero;stroke:none"
             id="path155" />
        </g>
        <g
           id="g157"
           transform="translate(275.8548,509.4758)">
          <path
             d="m 0,0 h 0.038 c 0.637,0.805 1.573,1.273 2.509,1.273 1.59,0 2.864,-1.086 2.864,-3.389 V -7.301 H 3.744 v 5.204 c 0,1.236 -0.636,2.041 -1.647,2.041 C 1.368,-0.056 0.786,-0.393 0,-1.273 V -7.301 H -1.665 V 1.105 H 0 V 0"
             style="fill:#231f20;fill-opacity:1;fill-rule:nonzero;stroke:none"
             id="path159" />
        </g>
      </g>
    </g>
  </g>
</svg>
