<?xml version="1.0" encoding="UTF-8" standalone="no"?>
<!DOCTYPE svg PUBLIC "-//W3C//DTD SVG 1.1//EN" "http://www.w3.org/Graphics/SVG/1.1/DTD/svg11.dtd">
<svg width="1200" height="252" viewBox="0 0 1200 252" xmlns="http://www.w3.org/2000/svg">
  <path fill="#098439" d="M 80.2933 62.4072 C 81.5853 62.4702 82.1493 62.6182 83.4983 62.4192 C 84.0793 62.9252 84.8533 63.2612 85.6163 63.4602 C 85.7473 63.6372 85.6163 63.6032 86.0603 63.4782 C 86.4423 63.7392 86.8633 63.7622 87.3183 63.9562 C 87.8883 64.2802 87.9393 65.0382 88.4913 65.4652 C 88.8673 65.7262 88.8043 65.7662 89.2093 66.2052 C 89.7213 66.3012 89.5333 66.7802 89.5333 66.7802 C 89.5623 66.8592 89.8753 68.3912 89.2883 68.9152 C 88.4003 70.1902 88.2183 70.6742 87.4553 71.9612 C 86.7433 72.6612 86.3503 73.7432 86.0323 74.7622 C 86.1513 74.8242 86.1513 75.0242 86.1513 75.1602 C 85.4573 75.4052 85.6443 76.3052 85.0643 76.6862 C 84.9953 77.5802 84.6773 78.3542 84.7393 79.3222 C 84.1643 79.7662 84.4893 80.4672 84.0333 80.9112 C 83.5953 82.2662 83.5953 84.1162 84.3633 85.1582 C 84.8083 86.0462 84.7393 87.0032 85.3773 87.9082 C 85.6443 88.7392 86.4703 89.1772 86.9883 89.8212 C 87.0513 90.5332 88.4513 91.7452 88.4513 91.7452 L 89.7153 92.3322 L 89.8973 92.1322 C 90.2283 92.3832 91.0133 92.6562 91.2133 93.1632 C 92.0953 93.6752 93.3593 94.0052 93.9973 94.7852 C 94.5093 95.2352 94.5093 96.0662 94.6573 96.7722 C 95.5453 97.0972 95.3183 97.9402 95.9043 98.6402 C 96.1543 99.7962 93.2793 101.811 92.3233 102.523 C 91.0993 103.155 90.1313 104.049 88.9753 104.891 L 88.6623 105.728 C 87.1823 106.041 86.2253 107.391 85.0073 108.097 C 84.4373 108.808 83.4643 108.734 82.7693 109.247 C 82.3823 109.121 82.0633 108.672 81.5453 108.808 C 80.3953 109.19 80.4583 110.408 79.6323 111.108 C 79.5583 111.553 79.1083 111.752 78.7333 112.014 C 78.3973 111.94 78.0843 112.213 77.8843 112.452 C 77.1843 112.395 76.4843 112.395 76.0343 112.896 C 75.4653 114.001 74.3603 114.251 73.3413 114.701 C 73.0793 115.145 72.5043 114.701 72.1913 114.969 C 71.6103 115.145 70.9733 115.407 70.3863 115.532 C 69.8173 115.851 69.1113 115.925 68.5243 116.113 C 67.9613 116.437 67.5113 117.331 66.7423 117.257 C 66.5553 117.844 65.7693 117.787 65.5183 118.299 C 64.8183 118.612 63.9073 118.817 63.2753 119.318 C 62.7003 119.506 62.1143 119.956 61.5503 119.956 C 60.9073 120.4 60.2693 120.85 59.4953 120.912 C 59.1083 121.368 58.9143 122.017 58.2193 122.08 C 57.1153 122.142 56.5403 123.173 55.6463 123.418 C 54.8773 123.805 54.1093 124.192 53.6653 124.96 C 53.0843 125.086 52.9533 125.598 52.5833 125.854 C 50.9603 127.773 49.1903 128.678 47.3963 130.466 C 46.8843 130.79 46.5543 131.309 46.1153 131.684 C 45.7223 131.758 45.7793 132.202 45.4783 132.328 C 44.7663 132.715 44.2543 133.307 43.6163 133.62 C 43.4793 134.195 42.7733 134.195 42.6543 134.702 C 41.9423 135.163 41.4303 135.795 41.0423 136.495 L 40.9173 136.307 C 40.7923 136.677 40.4393 136.922 40.2743 136.814 C 39.8923 136.888 39.5053 137.19 39.3173 137.526 C 38.8683 137.771 38.1053 138.095 38.2243 138.733 C 37.7743 139.313 37.1993 139.957 36.4883 139.957 C 35.9873 140.532 35.2693 140.925 34.8943 141.562 C 33.4133 142.012 32.4683 142.86 31.3753 143.828 C 31.1253 144.54 30.2143 144.796 29.6443 145.183 C 29.1323 145.183 28.6253 145.309 28.3013 145.758 C 27.7773 145.758 27.3103 145.946 26.9683 146.453 C 25.8183 146.704 24.8853 147.797 23.7353 147.535 C 22.3233 147.922 20.9733 147.153 20.0793 146.128 C 19.9433 145.422 19.7493 145.092 19.2373 144.506 C 18.7933 143.162 18.9123 141.699 19.1683 140.344 C 18.7933 139.513 19.6183 138.733 19.2373 137.97 C 19.3683 137.264 19.2373 136.558 19.1683 135.846 C 18.7933 135.533 19.1683 134.764 18.8503 134.309 C 18.4683 133.745 18.7933 132.914 18.7933 132.328 C 18.3943 131.496 19.1063 130.403 18.3433 129.709 C 17.5633 129.373 17.6313 128.553 17.0513 128.103 C 17.1133 127.585 16.5383 127.522 16.6123 127.073 C 16.2823 126.315 15.7703 125.598 15.7703 124.761 C 15.4623 123.605 15.7703 122.387 15.0693 121.442 C 15.1383 121.049 14.7503 120.725 14.9443 120.4 C 14.4943 118.55 13.8453 116.614 13.5323 114.701 C 13.2133 114.001 12.8893 113.295 12.7583 112.452 C 12.0633 111.553 11.6653 110.334 11.6133 109.121 C 10.7193 108.222 10.2583 107.003 9.75236 105.791 C 9.43336 105.216 9.55836 104.51 9.17736 103.997 C 9.04036 102.79 8.78936 101.811 8.02136 100.866 C 8.07836 100.405 7.56536 100.405 7.56536 99.9722 C 6.85936 98.7942 6.54136 97.4612 6.04036 96.2432 C 5.14036 94.9512 4.62236 93.4872 3.97836 92.0702 C 2.62336 90.7262 3.47236 88.6142 2.88536 87.0772 C 2.31636 85.6592 2.88536 84.2532 2.75436 82.7782 C 2.75436 81.1732 2.69236 79.4362 2.44136 77.7682 C 2.12236 77.1362 2.37936 76.1052 1.53036 75.7302 C 1.41636 74.8872 0.699361 74.1812 0.585361 73.3562 C 0.198361 73.0252 0.392361 72.3882 0.130361 71.9382 C -0.251639 70.9192 0.318361 70.0252 0.454361 68.9942 C 0.699361 68.5502 0.198361 67.9752 0.699361 67.5202 C 0.898361 67.2582 1.09836 66.7572 1.41636 66.5582 C 2.12236 64.9462 2.81736 63.3642 3.85336 62.0712 C 4.03536 61.6902 4.36636 61.3032 4.42336 60.7962 C 6.16536 58.3592 9.04036 60.9102 10.9763 59.2422 C 11.4083 59.1162 11.8073 59.1162 12.1203 58.6842 C 15.1943 58.2852 18.3943 60.9382 21.3493 61.7132 C 23.0233 62.2822 24.4923 63.6372 26.4223 63.3862 C 27.0483 63.1872 27.7603 63.2382 28.2723 62.8572 C 30.0713 62.6802 31.6653 62.9822 33.5333 62.9822 C 34.4213 63.0512 35.3263 62.4072 36.2263 62.7832 L 36.4143 62.6692 C 39.1073 62.7832 41.6803 63.6882 44.2363 62.9202 C 44.7433 62.8572 45.3243 63.0512 45.7743 62.7322 C 48.3413 62.7832 50.6473 61.5132 53.2093 61.5132 C 53.6653 61.6392 54.2283 61.6392 54.7583 61.5762 C 56.0333 62.1452 57.4393 62.9822 58.7263 63.0512 C 59.8083 62.8572 61.0323 62.0942 62.1883 62.6692 C 63.0193 62.8572 63.8503 62.6182 64.6933 62.4702 C 65.6553 62.3452 66.3443 62.9822 67.3123 62.8572 L 67.5113 63.0512 C 68.8663 63.1762 70.1303 62.6182 71.4743 62.5442 C 73.2163 62.4702 74.8103 62.1452 76.5413 61.7642 C 77.9583 61.8262 78.8813 62.0202 80.2933 62.4072" />
  <path fill="#098439" d="M 213.515 52.2392 L 213.515 0.360841 C 212.536 0.275441 211.818 -0.054759 210.828 0.00784104 C 209.222 0.207141 208.641 0.463341 207.36 1.04974 C 206.21 0.975741 206.216 1.68744 205.191 1.36854 C 204.611 1.12374 203.643 1.79554 203.13 1.48814 C 201.98 1.41414 200.893 1.61344 199.8 2.06314 C 199.344 2.25104 198.963 2.50724 198.644 2.63254 C 198.2 2.75774 197.619 2.82604 197.238 3.08224 C 196.082 3.47514 196.406 4.88144 195.251 5.07494 C 193.389 5.78664 191.732 6.74314 190.121 8.01274 C 188.709 8.53084 187.673 10.0168 186.654 10.831 C 184.541 12.7667 181.786 13.2051 179.674 15.0725 C 178.58 15.4426 177.63 16.2226 176.787 16.8716 C 176.275 16.9912 175.956 17.441 175.512 17.6402 C 175.113 18.1527 174.532 18.3348 174.219 18.8472 C 173.132 19.3653 171.982 19.7522 171.02 20.4472 C 169.67 21.4772 168.127 21.9272 166.784 22.6962 C 165.377 23.7892 163.647 24.5632 161.973 24.9452 C 161.21 25.1952 160.498 25.8392 159.73 25.9132 C 158.523 26.4142 157.361 27.2502 156.399 28.1442 C 155.317 29.4992 153.9 30.9632 152.744 32.2552 C 151.713 32.6422 150.819 33.3372 149.92 33.9862 C 149.419 34.1682 148.958 34.5662 148.519 34.7542 C 147.739 35.6482 146.521 35.8482 145.764 36.6672 C 145.183 36.6162 144.864 37.3112 144.283 37.2482 C 143.384 37.4992 142.678 37.8862 141.909 38.2792 C 140.759 39.1782 139.222 39.3662 137.873 39.5602 C 137.041 39.5602 136.21 40.1462 135.436 39.8212 C 134.605 40.4652 133.449 39.8732 132.623 40.5842 C 132.031 40.9772 131.394 41.2902 130.824 41.5412 C 129.612 42.1842 128.706 42.8902 127.613 43.5282 C 125.176 44.1712 122.808 45.0762 120.178 45.2132 C 118.908 45.2992 118.931 44.9512 117.929 45.1282 C 117.496 44.8832 116.67 44.9852 116.352 45.1852 L 116.352 45.1902 C 115.002 45.0652 115.002 46.1702 113.852 46.5062 C 111.934 46.8812 110.436 48.7542 108.637 49.6602 C 107.493 50.7532 105.716 50.5652 104.504 51.5212 C 102.955 51.9712 100.757 53.0592 100.467 53.0592 C 99.7323 52.7802 98.7303 53.8222 97.9613 53.8222 C 97.5743 54.0832 96.9823 54.8292 96.5893 55.0172 C 96.2643 54.7552 96.0143 55.2052 95.7013 55.0912 C 95.1143 55.4672 94.2323 55.4332 93.8393 56.0822 C 92.8823 56.8392 92.1313 56.3612 92.3253 57.5792 C 91.8013 57.9612 92.0633 58.6612 91.9433 59.0372 C 92.9743 59.9932 92.8883 61.3992 94.0503 62.1052 C 94.0503 62.6292 94.6193 62.5552 94.8813 62.8062 C 95.9743 62.8682 96.4753 63.8362 97.5113 63.8992 C 97.9613 64.4172 98.8613 64.2922 99.2423 64.9922 C 99.6353 65.4992 100.154 66.1762 100.661 66.4892 C 101.816 66.3132 102.38 66.8022 103.274 67.2582 C 103.542 67.5082 103.986 67.3212 104.247 67.7082 C 104.817 67.6452 105.38 68.1012 106.001 67.9012 C 106.462 68.7442 107.493 68.7042 107.812 69.6092 C 108.392 69.6092 108.535 70.2982 108.979 70.6112 C 109.491 70.5492 109.571 70.9932 109.958 71.3172 C 110.943 72.2742 111.808 72.6782 112.002 73.8342 C 112.19 74.4092 112.537 74.6192 112.594 75.2512 C 112.338 75.6902 113.448 76.0832 113.323 76.4072 C 113.448 77.1022 114.108 77.7512 113.989 78.4572 C 114.182 79.0202 113.903 79.6642 114.228 80.2452 C 114.945 81.1732 113.847 81.6622 114.239 82.3632 C 114.296 82.6932 113.932 82.3912 114.103 82.9322 C 114.814 83.9742 114.194 85.1182 114.649 86.2002 L 114.091 88.3062 C 113.391 88.9272 113.59 89.5422 112.816 90.1172 C 112.4 91.0512 110.749 91.7172 110.886 92.6222 C 111.068 93.5782 110.527 94.2162 111.051 94.8592 C 112.127 95.1212 111.535 96.2772 112.366 96.7842 C 113.721 97.3592 117.325 99.1582 118.919 99.2212 C 119.369 98.8392 119.756 99.4202 120.269 99.2832 C 120.656 100.063 121.356 99.3572 121.988 99.4832 L 122.136 99.2832 C 123.024 99.2212 123.986 98.9702 124.949 99.0952 C 126.047 99.4202 127.317 99.0952 128.154 98.8392 L 128.917 98.7142 C 130.135 98.2642 131.246 97.6952 132.191 96.9832 C 132.703 97.0342 132.902 96.5902 133.272 96.3402 C 134.104 96.0782 134.941 95.5712 135.846 95.4462 C 136.495 95.0472 137.127 94.4842 137.901 94.5412 C 138.47 94.1542 139.245 94.2902 139.888 93.9772 C 142.575 92.4342 144.375 89.8662 147.586 89.5422 C 150.017 88.2612 152.385 87.8172 154.816 86.5242 C 154.953 86.6502 155.334 86.5242 155.403 86.7242 C 156.741 86.1372 158.147 85.3802 159.69 85.3062 C 162.314 84.3492 164.307 82.4882 166.994 81.6622 C 168.031 81.4632 168.793 80.7572 169.63 80.1762 C 170.974 78.9812 173.029 79.1462 174.498 78.1442 L 174.954 78.0642 C 176.924 77.2272 179.11 76.2822 180.59 74.4092 C 181.547 73.9082 182.446 73.3902 183.408 72.7522 C 184.245 71.4652 185.851 70.9532 187.126 70.0592 L 188.413 68.5672 C 188.982 68.4422 189.381 67.8842 189.819 67.5602 C 190.912 67.0422 191.812 66.2052 192.894 65.4362 C 193.787 65.3222 194.436 64.2922 195.137 63.8992 C 195.655 63.5122 196.361 63.5122 196.68 62.9372 C 196.999 62.1052 198.023 62.4302 198.541 61.7812 C 199.566 61.5932 200.141 60.6372 201.047 60.3062 L 203.922 58.8372 C 205.664 57.1012 208.152 57.8582 209.507 55.6832 C 211.067 54.5282 211.568 53.3322 213.35 52.4672" />
  <path fill="#098439" d="M 62.8693 210.293 C 63.3193 209.524 63.1253 208.824 63.3763 207.981 C 63.5753 207.412 63.9513 206.9 64.0883 206.256 C 64.5943 205.681 64.5943 204.787 65.1813 204.212 C 65.2433 204.025 65.1243 203.569 65.5053 203.632 C 65.6363 202.55 66.2743 201.907 66.7183 200.933 C 66.7813 200.751 66.6553 200.489 66.9063 200.489 C 67.1623 199.271 67.9993 198.388 68.5113 197.42 L 68.6993 197.489 C 69.0183 196.896 69.2123 196.264 69.7413 195.866 C 70.1113 194.972 70.8863 194.397 70.8863 193.429 C 71.1473 193.059 71.5293 192.746 71.4553 192.285 C 70.9543 190.884 72.2293 189.985 72.4233 188.635 L 72.4233 188.373 C 72.9353 187.673 73.1343 186.842 73.5783 186.136 C 73.8353 185.811 73.8353 185.305 74.1483 185.105 C 74.6663 184.075 75.3153 183.244 75.7533 182.162 C 76.0103 182.099 75.9533 181.837 76.0783 181.712 C 76.4593 181.388 76.7843 180.87 76.9093 180.357 C 78.0593 179.201 78.1963 177.414 79.4033 176.321 C 79.8583 175.051 80.8833 174.208 81.6463 173.064 C 82.0393 172.677 82.3013 172.033 82.6713 171.709 C 82.9383 171.003 83.4453 170.428 83.9583 169.785 C 84.4703 167.872 86.4573 166.391 87.2943 164.53 C 87.7383 164.53 87.5613 163.88 87.9373 163.767 C 88.5813 162.543 89.6683 161.58 90.0953 160.22 C 90.4993 159.616 91.0343 159.479 91.3533 158.711 C 91.4733 158.637 91.7633 158.614 91.7863 158.312 C 92.1793 157.999 92.3273 157.931 92.6463 157.544 C 93.1303 157.43 93.0103 157.219 93.3863 157.105 L 93.6593 156.94 C 93.7223 156.9 93.7733 156.855 93.8243 156.815 L 93.8413 156.815 C 93.8413 156.815 95.3043 156.137 95.5613 155.483 C 96.6543 154.725 96.8473 153.444 97.4853 152.488 C 97.7533 151.64 98.4473 151.133 98.8403 150.364 C 99.2163 149.59 99.7003 148.582 99.9273 147.99 C 99.7913 147.438 99.7573 147.313 99.6313 146.863 C 100.549 145.303 100.048 143.202 99.4663 141.528 C 99.2673 140.247 98.5043 138.904 97.2173 138.26 C 96.3243 137.81 96.3013 136.928 95.4703 136.478 C 95.3843 136.376 95.5613 136.262 95.4303 136.216 C 95.3163 136.114 95.1743 136.091 95.0203 136.028 C 94.9693 135.989 94.9233 135.949 94.8773 135.886 C 94.7863 135.886 94.7013 135.852 94.6333 135.812 C 94.6103 135.789 94.5933 135.772 94.5703 135.749 C 94.5363 135.749 94.5023 135.738 94.4683 135.715 C 94.1433 135.476 94.2113 134.958 93.8413 134.719 C 93.5743 133.637 92.5433 132.988 92.0933 131.901 C 91.7573 130.512 90.6423 129.139 89.2243 128.513 C 88.7123 128.257 88.1593 128.069 87.5793 128.035 C 86.6053 127.921 85.6543 127.181 84.6413 127.152 C 84.5553 127.13 84.4763 127.118 84.4133 127.101 L 84.3733 127.016 C 83.2063 126.697 82.5743 126.891 81.4183 126.697 C 80.8323 126.942 80.1373 126.697 79.4943 126.816 C 79.2433 127.078 78.7313 126.697 78.5943 127.078 L 78.5263 127.016 C 77.8833 127.34 77.3193 127.215 76.6703 127.403 C 76.0383 127.665 75.3893 127.528 74.8883 128.035 C 72.6453 128.359 70.4593 129.253 68.5283 130.147 C 67.6923 130.147 66.9403 130.608 66.1713 130.927 C 65.9723 131.052 65.9723 131.44 65.6533 131.178 C 63.3993 132.47 60.8423 133.108 58.8503 134.895 C 58.1493 135.021 57.6373 135.414 56.9883 135.539 C 56.0313 136.176 55.0643 136.871 54.1133 137.531 C 53.6633 137.657 53.5263 138.226 53.1453 138.3 C 52.8323 139.12 52.0013 139.57 51.2833 140.025 C 50.9073 140.913 49.8773 140.6 49.3023 141.181 C 47.8793 141.705 46.8653 142.912 45.3283 143.231 C 42.0543 145.605 38.3363 147.261 35.1993 149.892 C 34.8753 150.028 35.0683 150.478 34.6813 150.404 C 33.6053 151.736 32.4383 153.183 31.1233 154.367 C 29.7743 155.42 28.3673 156.422 27.2403 157.214 C 26.6253 157.584 25.8393 158.022 25.0543 158.022 C 24.4843 158.187 24.0803 158.688 23.6363 159.075 C 22.5663 159.394 22.7143 160.02 21.8313 160.521 C 21.1203 161.603 20.0663 162.622 19.3383 163.516 C 19.4233 163.915 19.8213 164.353 19.5373 164.882 C 19.5993 166.238 19.8843 166.608 20.0093 167.951 C 19.7473 168.202 19.6283 168.652 19.7473 168.982 C 20.2663 169.295 19.6793 170.2 20.3233 170.513 C 20.5103 171.863 21.3073 172.637 21.3763 174.043 C 21.9003 175.011 21.8313 176.155 22.6063 176.924 C 24.5193 179.617 25.0023 182.731 27.1203 185.242 C 27.6953 185.937 27.6393 186.768 27.6393 187.673 L 28.0203 190.047 C 29.0453 192.245 30.2293 194.09 31.2313 196.139 C 31.4763 196.931 31.7153 197.739 32.0003 198.553 C 32.3753 200.603 32.6323 202.527 33.4003 204.446 C 33.0813 204.776 33.2183 205.34 33.3433 205.733 C 33.2183 206.558 33.7193 207.401 33.7193 208.232 C 33.7873 208.482 34.1753 208.619 33.9703 208.927 C 33.0813 212.468 34.6193 215.599 36.7423 218.286 C 37.4433 219.772 36.7423 221.492 37.0613 222.972 C 36.7423 224.583 37.5683 225.637 37.8923 227.174 C 38.7523 228.039 40.2843 227.436 41.2803 228.176 C 41.4913 228.244 41.6393 228.392 41.7643 228.552 L 41.9293 228.552 L 41.8663 228.552 C 41.9183 228.592 41.9693 228.643 42.0093 228.694 C 42.6353 228.945 43.9393 229.372 44.4853 228.859 C 45.2773 228.796 45.9483 229.047 46.8253 228.757 C 47.8793 229.947 49.5473 229.235 50.9423 229.383 C 50.9423 229.383 52.7123 228.506 52.7633 228.506 C 52.8833 227.863 53.8573 227.777 54.2323 227.339 C 54.1753 226.57 55.1953 226.696 55.3313 225.99 C 55.6903 225.403 55.8323 225.802 56.0143 225.511 C 56.3283 224.988 56.5383 225.033 56.9883 224.583 C 56.9653 224.247 57.0853 224.003 57.2273 223.769 C 57.6543 223.462 58.1213 223.177 58.1893 222.796 C 58.5763 222.158 58.7073 221.389 59.2143 220.814 C 59.1463 220.108 59.6643 219.659 59.9263 219.015 C 60.1143 218.827 59.9943 218.435 60.3073 218.247 C 60.4953 217.672 61.0193 217.165 60.8773 216.504 C 60.9513 216.453 61.0193 216.453 61.0763 216.453 L 61.5883 215.11 C 61.9133 213.897 62.3633 212.667 62.6073 211.648 C 63.0633 211.323 62.8693 210.686 62.8693 210.293" />
  <path fill="#098439" d="M 209.507 105.529 C 208.414 106.041 207.452 105.352 206.296 105.478 L 203.352 106.11 L 203.09 106.041 C 201.61 107.191 199.629 106.685 197.966 107.328 C 197.448 107.903 196.742 107.391 196.23 107.903 C 195.137 108.159 194.049 108.159 192.956 108.609 C 190.85 108.04 188.868 108.996 186.813 109.247 L 184.826 110.334 C 183.67 110.408 182.571 110.733 181.547 110.921 C 180.465 110.533 179.377 110.983 178.347 111.308 C 176.047 111.94 174.635 109.64 172.517 109.827 C 172.118 109.378 171.43 109.566 170.98 109.378 C 170.78 109.378 170.519 109.702 170.462 109.378 C 169.875 109.378 169.317 109.378 168.737 109.19 C 168.224 108.871 167.837 108.222 167.205 108.359 C 166.676 108.421 166.812 107.641 166.3 107.903 C 165.651 107.465 164.751 107.641 164.108 107.328 L 160.851 107.527 L 160.726 107.425 C 160.675 107.351 160.06 107.391 160.06 107.391 C 159.115 107.465 158.147 107.778 157.19 107.59 C 155.653 107.903 154.309 108.609 152.704 108.871 C 151.548 109.378 150.649 110.334 149.379 110.596 C 148.337 110.334 147.187 110.795 146.162 110.983 C 145.137 111.308 143.987 111.427 142.9 111.427 C 142.257 111.427 141.801 111.877 141.226 111.877 C 139.626 112.845 137.44 112.088 136.233 113.614 C 135.333 114.001 134.622 114.576 133.728 115.02 C 133.159 115.532 132.327 114.877 131.804 115.447 C 131.041 115.447 130.522 115.749 129.754 115.623 C 129.014 115.76 128.797 115.988 128.336 115.851 C 127.801 115.675 127.79 116.073 127.124 115.925 C 126.167 115.27 125.011 115.788 124.3 116.363 C 123.73 116.301 124.049 117.007 123.537 117.069 C 122.136 117.718 121.612 119.256 120.844 120.537 C 119.95 121.049 120.582 122.193 120.138 122.899 L 120.269 125.148 C 119.113 127.01 121.675 127.841 121.356 129.76 C 121.738 130.141 121.55 130.864 121.931 131.104 L 122.575 132.641 C 122.888 133.415 122.637 134.309 123.161 135.089 C 123.468 135.909 124.379 136.495 124.573 137.389 L 126.941 138.095 L 127.83 139.239 C 128.991 139.45 130.135 139.763 131.354 139.832 C 131.547 139.957 131.684 140.219 131.986 140.145 C 132.954 140.469 133.927 140.794 134.878 141.033 C 135.333 141.238 135.783 141.488 136.233 141.363 C 138.021 142.012 139.956 142.257 141.744 142.906 L 141.938 143.162 C 142.775 143.413 143.412 143.863 144.244 144.062 C 144.824 144.694 145.781 144.631 146.356 145.206 C 147.067 145.206 147.512 145.861 148.212 145.924 C 149.379 145.924 149.886 147.131 151.041 147.131 C 151.878 147.523 152.567 148.024 153.535 148.235 C 153.922 148.804 154.691 148.611 155.215 149.129 C 156.171 149.579 156.689 150.347 157.708 150.729 C 158.033 151.241 158.545 151.628 159.172 151.816 C 159.496 152.26 160.208 152.522 160.401 153.154 L 160.458 153.029 L 160.851 153.291 C 161.495 153.667 162.189 153.803 162.707 154.185 C 164.244 154.56 165.782 155.084 167.325 155.392 L 167.45 155.602 C 168.093 155.665 168.85 155.602 169.249 156.103 C 173.029 157.578 176.998 159.32 181.296 159.952 C 183.602 160.464 186.289 160.664 188.538 161.495 C 190.525 162.201 192.387 163.032 194.436 163.681 C 195.41 163.812 196.304 164.302 197.323 164.45 C 197.636 165.087 198.604 164.7 199.247 164.826 C 199.373 164.826 199.504 165.019 199.43 165.218 C 200.779 165.845 202.322 166.238 203.671 166.949 C 204.047 166.75 204.241 167.393 204.633 167.074 C 205.009 167.325 205.539 167.78 206.233 167.593 C 206.233 167.644 206.415 167.78 206.563 167.644 C 206.871 168.23 207.759 168.168 208.277 168.486 L 210.987 169.261 C 211.841 169.517 212.695 169.739 213.566 169.927 L 213.566 104.459 C 212.143 104.624 210.737 104.624 209.507 105.529" />
  <path fill="#098439" d="M 66.4453 227.994 L 67.5433 228.381 C 69.4563 228.648 71.8933 227.254 73.6703 227.003 C 74.2903 227.453 75.3263 227.595 76.0103 227.533 C 77.2913 227.783 78.2873 227.077 79.5453 227.544 C 80.6553 227.481 81.9143 227.174 82.8703 227.806 C 83.9013 227.703 85.1253 228.91 86.2063 228.927 C 90.8353 228.796 94.7183 226.172 99.1303 228.022 C 103.231 228.045 106.647 231 110.746 231.034 C 110.814 231.29 111.412 231.034 111.349 231.347 C 113.536 231.512 115.938 231.501 117.988 232.52 C 122.104 233.101 126.055 235.076 130.16 235.89 C 131.635 236.369 133.167 235.976 134.67 235.799 C 137.311 235.122 139.845 236.836 142.509 236.517 L 143.141 236.767 C 146.341 237.058 149.677 236.972 153.162 236.078 C 154.79 236.078 156.316 237.285 158.041 237.109 C 160.062 235.993 162.539 237.889 164.85 237.598 L 167.594 238.908 C 168.448 239.158 169.365 239.193 170.179 239.084 C 171.978 239.181 173.76 241.071 175.736 240.827 C 176.994 241.282 180.302 242.096 181.486 242.085 C 182.443 241.937 183.359 242.449 184.202 241.897 C 185.233 241.009 186.326 242.176 187.476 241.675 C 188.939 242.159 190.402 242.779 191.797 243.002 L 196.636 243.093 C 200.149 242.011 202.848 245.808 206.196 243.861 C 209.071 243.429 211.935 242.529 213.546 242.717 L 213.551 211.494 C 213.449 211.466 213.068 211.175 213.068 211.175 C 212.863 211.101 212.589 211.062 212.384 211.016 C 211.291 210.623 210.91 210.401 209.817 210.339 C 209.373 210.082 208.792 209.957 208.279 209.894 C 207.163 209.302 206.036 209.154 204.943 208.636 C 204.841 208.562 204.721 208.522 204.607 208.437 C 204.106 208.249 204.026 207.606 203.463 207.48 C 203.451 207.48 203.434 207.458 203.434 207.458 C 202.854 206.957 202.108 206.689 201.669 206.188 C 201.59 206.177 201.544 206.165 201.493 206.148 C 201.442 206.114 201.396 206.086 201.362 206.04 C 201.032 206 200.719 205.92 200.434 205.772 C 199.893 205.499 199.426 205.118 198.971 204.782 C 198.919 204.793 198.885 204.782 198.857 204.782 C 198.8 204.731 198.737 204.679 198.669 204.639 C 198.561 204.645 198.447 204.639 198.333 204.594 C 198.236 204.543 198.139 204.463 198.071 204.4 C 198.003 204.389 197.946 204.355 197.878 204.343 C 197.838 204.315 197.798 204.275 197.764 204.252 C 197.678 204.23 197.582 204.212 197.513 204.178 C 197.155 203.979 196.864 203.7 196.488 203.563 C 196.363 203.484 196.221 203.421 196.073 203.387 C 195.612 203.011 195.076 202.721 194.518 202.453 C 193.67 202.038 192.754 201.713 191.911 201.315 C 191.871 201.058 191.649 200.944 191.41 200.859 C 191.285 200.774 191.12 200.711 190.943 200.648 C 190.88 200.381 190.698 200.278 190.47 200.216 C 190.254 200.028 189.907 200.028 189.588 199.977 C 189.497 199.601 189.144 199.629 188.967 199.265 C 188.882 199.259 188.802 199.214 188.706 199.185 C 188.7 199.162 188.677 199.151 188.677 199.134 C 188.227 199.014 187.795 198.775 187.407 198.633 C 184.618 196.487 181.703 194.574 179.22 191.909 C 178.082 190.753 177.114 189.267 176.021 188.117 C 175.184 187.024 173.908 186.517 173.128 185.487 C 172.417 185.162 171.728 184.718 171.403 183.955 C 171.301 183.944 171.221 183.916 171.136 183.876 C 171.136 183.853 171.119 183.83 171.107 183.802 C 171.062 183.79 171.016 183.779 170.965 183.767 C 170.652 183.551 170.407 183.187 170.026 183.09 C 169.94 183.022 169.843 182.976 169.752 182.948 C 169.61 182.686 169.513 182.395 169.211 182.384 C 169.143 182.299 169.058 182.242 168.932 182.23 C 168.864 182.116 168.727 182.031 168.585 182.031 C 168.54 181.98 168.483 181.94 168.42 181.917 C 168.101 181.644 167.845 181.217 167.429 181.092 C 167.327 181.023 167.219 180.966 167.099 180.949 C 166.513 180.585 166.103 179.993 165.448 179.731 C 165.334 179.68 165.203 179.628 165.072 179.571 C 164.383 178.979 163.478 178.609 162.687 178.046 L 162.624 178.046 C 162.544 178 162.459 177.96 162.385 177.909 C 162.026 177.96 161.668 177.881 161.315 177.732 C 160.979 177.545 160.666 177.317 160.37 177.089 C 160.301 177.066 160.227 177.032 160.153 177.015 C 160.125 176.981 160.096 176.97 160.062 176.941 C 157.773 176.047 155.712 175.597 153.463 174.59 C 153.344 174.516 153.202 174.464 153.065 174.442 C 153.042 174.425 153.025 174.413 153.002 174.402 L 153.071 174.328 C 153.002 174.203 152.945 174.077 152.883 174.015 C 152.775 173.986 152.678 173.935 152.592 173.889 C 152.581 173.889 152.581 173.872 152.57 173.872 C 152.547 173.861 152.524 173.838 152.484 173.827 C 151.801 173.445 151.306 172.756 150.691 172.227 C 150.634 172.216 150.566 172.193 150.514 172.187 C 150.469 172.142 150.446 172.113 150.406 172.079 C 150.332 172.068 150.269 172.05 150.207 172.028 C 149.86 171.789 149.655 171.362 149.284 171.134 C 148.738 170.883 148.607 170.308 148.106 170.194 C 148.06 170.155 148.003 170.126 147.947 170.103 C 146.899 168.896 146.438 167.524 145.185 166.511 C 144.992 166.448 145.117 166.067 144.804 166.067 C 144.866 165.691 144.616 165.429 144.286 165.287 C 144.422 164.837 143.637 164.911 143.711 164.399 C 143.472 164.108 143.227 163.772 142.851 163.67 C 142.8 163.63 142.743 163.584 142.68 163.567 C 141.245 162.098 140.226 160.601 138.587 159.531 C 137.96 159.166 137.328 158.551 136.634 158.255 C 136.383 158.124 136.121 158.016 135.842 157.965 C 135.825 157.965 135.814 157.959 135.791 157.959 C 135.643 157.84 135.535 157.697 135.569 157.475 C 135.421 157.373 135.387 157.538 135.353 157.686 C 135.279 157.584 135.25 157.47 135.273 157.333 C 135.074 157.208 135.074 157.521 135.023 157.652 C 134.846 157.646 134.709 157.584 134.567 157.521 C 134.021 157.219 133.599 156.73 133.03 156.508 C 132.956 156.468 132.888 156.428 132.814 156.405 C 132.785 156.382 132.774 156.382 132.751 156.377 C 132.694 156.354 132.637 156.32 132.58 156.314 C 132.5 156.2 132.364 156.217 132.267 156.251 L 131.999 156.166 C 131.999 156.143 131.988 156.137 131.988 156.103 L 130.872 155.739 C 130.724 155.585 130.525 155.471 130.314 155.397 C 129.955 155.187 129.523 155.113 129.13 154.948 C 128.777 154.68 128.367 154.458 127.951 154.281 C 127.524 154.054 127.086 153.9 126.676 153.729 C 125.72 153.729 124.922 153.177 124.091 152.898 C 123.789 152.67 123.505 152.334 123.158 152.232 C 122.958 152.107 121.364 152.42 121.125 152.482 C 119.411 153.023 119.497 153.188 118.096 154.293 C 117.885 154.492 117.493 154.27 117.493 154.634 C 116.975 155.107 116.975 155.044 115.972 155.198 C 115.819 155.295 115.665 155.5 115.534 155.471 C 115.346 155.346 115.164 155.915 114.959 155.864 C 114.748 155.728 114.521 155.978 114.242 156.103 C 113.473 156.553 113.154 157.396 112.317 157.726 C 111.936 157.897 111.606 158.489 111.224 158.745 C 110.461 160.214 108.913 161.108 107.888 162.326 C 107.393 163.357 105.969 163.744 105.719 165.025 C 105.394 164.951 105.32 165.338 105.081 165.406 C 104.95 165.793 104.563 165.845 104.443 166.306 C 103.339 167.137 102.251 168.031 101.483 169.124 C 100.327 170.667 99.1763 172.079 98.1453 173.798 C 98.0263 173.935 98.0893 174.316 97.7703 174.379 C 95.5893 177.721 93.6023 181.302 91.0343 184.57 L 89.8103 186.307 C 89.6173 186.495 89.6913 186.882 89.3663 186.944 C 89.1783 187.576 88.7233 188.038 88.3413 188.482 C 88.1543 189.319 87.5103 189.962 87.1293 190.605 C 86.8673 191.556 86.3603 192.273 85.9623 193.093 C 85.0683 195.467 83.6673 197.392 82.6423 199.703 C 82.1873 200.734 81.6063 201.69 81.3443 202.835 C 80.8323 203.865 80.9803 205.271 80.2743 206.177 C 79.2433 207.458 78.4693 208.676 77.5703 210.02 C 77.4443 210.475 76.8013 210.6 76.8693 211.101 C 75.6513 212.195 74.8083 213.538 73.9143 214.825 C 74.0453 215.463 73.3393 215.787 73.3393 216.305 C 72.7703 216.818 72.3153 217.586 71.6143 218.167 C 71.6773 218.543 71.2333 218.679 71.1533 219.004 C 70.1283 221.822 68.2153 224.185 66.8033 226.866" />
  <path d="M 324.416 198.926 C 324.416 216.729 313.758 228.452 292.123 228.452 C 276.773 228.452 261.851 219.821 261.851 199.991 L 261.851 154.802 L 272.298 154.802 L 272.298 197.753 C 272.298 205.963 273.363 209.368 276.665 212.676 C 280.821 216.832 286.048 218.859 292.333 218.859 C 300.327 218.859 306.083 216.302 309.391 212.995 C 313.12 209.265 313.974 203.936 313.974 197.116 L 313.974 154.802 L 324.416 154.802 Z" />
  <path d="M 345.202 185.922 L 345.413 185.922 C 349.039 181.339 354.368 178.675 359.697 178.675 C 368.756 178.675 376.003 184.858 376.003 197.97 L 376.003 227.49 L 366.518 227.49 L 366.518 197.861 C 366.518 190.824 362.892 186.241 357.135 186.241 C 352.985 186.241 349.677 188.16 345.202 193.17 L 345.202 227.49 L 335.717 227.49 L 335.717 179.631 L 345.202 179.631 Z" />
  <path d="M 393.163 170.789 C 390.072 170.789 387.515 168.233 387.515 165.142 C 387.515 162.05 390.072 159.494 393.163 159.494 C 396.255 159.494 398.811 162.05 398.811 165.142 C 398.811 168.233 396.255 170.789 393.163 170.789 M 397.855 227.496 L 388.369 227.496 L 388.369 179.637 L 397.855 179.637 Z" />
  <path d="M 404.567 179.631 L 414.906 179.631 L 427.802 209.049 L 440.379 179.631 L 450.507 179.631 L 429.402 228.446 L 426.202 228.446 Z" />
  <path d="M 494.95 213.638 C 489.404 217.265 483.973 219.394 478.217 219.394 C 469.05 219.394 463.613 214.492 462.122 205.007 L 495.804 205.007 C 495.804 187.312 487.702 178.675 475.017 178.675 C 461.803 178.675 452.636 188.484 452.636 202.98 C 452.636 216.194 460.949 228.452 475.871 228.452 C 483.973 228.452 489.194 226.642 494.95 222.804 Z M 462.338 198.715 C 463.613 191.149 467.986 186.885 475.233 186.885 C 481.946 186.885 486.102 191.468 486.421 198.715 Z" />
  <path d="M 531.086 178.754 C 526.611 178.754 522.027 182.273 517.228 190.688 L 517.012 190.688 L 517.012 179.711 L 507.526 179.711 L 507.526 227.57 L 517.012 227.57 L 517.012 202.524 C 517.012 194.314 522.136 187.813 528.632 187.813 C 530.63 187.813 533.818 189.344 536.523 191.639 L 541.544 183.44 C 537.963 180.292 534.616 178.754 531.086 178.754" />
  <path d="M 573.08 191.997 C 567.751 188.479 562.735 186.987 559.217 186.987 C 555.385 186.987 552.931 188.798 552.931 191.36 C 552.931 193.489 556.131 196.045 564.546 200.947 C 572.437 206.174 575.318 209.476 575.318 214.378 C 575.318 222.799 568.599 228.452 559.547 228.452 C 553.677 228.452 549.094 227.279 542.911 224.08 L 542.911 213.849 C 549.094 218.107 554.742 220.134 558.579 220.134 C 562.422 219.923 565.616 218.107 565.616 214.703 C 565.616 208.092 543.23 204.574 543.23 191.678 C 543.23 183.577 549.413 178.675 559.006 178.675 C 563.481 178.675 568.07 179.95 573.08 182.615 Z" />
  <path d="M 590.769 170.789 C 587.678 170.789 585.122 168.233 585.122 165.142 C 585.122 162.05 587.678 159.494 590.769 159.494 C 593.861 159.494 596.417 162.05 596.417 165.142 C 596.417 168.233 593.861 170.789 590.769 170.789 M 595.461 227.496 L 585.981 227.496 L 585.981 179.637 L 595.461 179.637 Z" />
  <path d="M 621.252 179.631 L 636.385 179.631 L 636.385 188.16 L 621.252 188.16 L 621.252 212.67 C 621.252 218.324 625.3 219.923 628.067 219.923 C 631.483 219.923 635.001 218.751 638.839 216.405 L 638.839 225.252 C 635.531 227.063 630.418 228.446 627.327 228.446 C 616.988 228.446 611.761 222.053 611.761 213.422 L 611.761 188.16 L 603.449 188.16 L 603.449 187.09 L 621.252 169.719 Z" />
  <path d="M 653.334 252 L 642.784 252 L 659.09 217.259 L 640.541 179.631 L 651.307 179.631 L 664.203 206.595 L 676.569 179.631 L 687.227 179.631 Z" />
  <path d="M 740.631 178.675 C 726.346 178.675 715.364 189.333 715.364 203.082 C 715.364 217.794 725.919 228.452 740.631 228.452 C 755.975 228.452 766.53 218.215 766.53 203.082 C 766.53 188.911 755.661 178.675 740.631 178.675 M 740.517 187.203 C 750.002 187.203 756.829 193.916 756.829 203.19 C 756.829 213.53 750.537 219.923 740.517 219.923 C 731.351 219.923 725.071 213.211 725.071 203.082 C 725.071 193.916 731.567 187.203 740.517 187.203" />
  <path d="M 801.915 164.071 C 800.315 163.434 799.352 163.217 797.65 163.217 C 789.97 163.217 787.522 167.692 787.522 175.048 L 787.522 179.631 L 796.153 179.631 L 796.153 188.16 L 787.522 188.16 L 787.522 227.49 L 778.036 227.49 L 778.036 188.16 L 771.318 188.16 L 771.318 179.631 L 778.036 179.631 L 778.036 176.113 C 778.036 166.736 780.274 162.255 784.117 158.423 C 788.159 154.37 793.602 152.451 801.915 154.797 Z" />
  <path d="M 869.165 170.789 C 862.982 164.925 857.021 163.223 852.113 163.223 C 845.395 163.223 840.601 166.741 840.601 171.854 C 840.601 185.82 872.04 185.604 872.04 208.736 C 872.04 220.14 863.409 228.452 851.686 228.452 C 843.801 228.452 837.401 226.317 831.327 221.74 L 831.327 208.52 C 836.656 215.34 843.374 219.075 850.513 219.075 C 858.615 219.075 862.35 213.957 862.35 209.909 C 862.35 194.878 830.905 193.17 830.905 173.238 C 830.905 161.412 839.645 153.84 852.961 153.84 C 858.507 153.84 864.046 155.548 869.165 158.959 Z" />
  <path d="M 893.254 179.631 L 908.381 179.631 L 908.381 188.16 L 893.254 188.16 L 893.254 212.67 C 893.254 218.324 897.296 219.923 900.08 219.923 C 903.485 219.923 907.003 218.751 910.84 216.405 L 910.84 225.252 C 907.533 227.063 902.42 228.446 899.328 228.446 C 888.995 228.446 883.768 222.053 883.768 213.422 L 883.768 188.16 L 875.456 188.16 L 875.456 187.09 L 893.254 169.719 Z" />
  <path d="M 929.492 222.053 C 929.492 225.571 926.611 228.446 923.104 228.446 C 919.585 228.446 916.705 225.571 916.705 222.053 C 916.705 218.534 919.585 215.659 923.104 215.659 C 926.611 215.659 929.492 218.534 929.492 222.053" />
  <path d="M 1006.55 222.48 C 996.85 226.744 988.965 228.446 978.837 228.446 C 956.558 228.446 940.15 212.886 940.15 191.57 C 940.15 170.146 956.991 153.834 979.161 153.834 C 987.684 153.834 993.656 155.224 1005.05 160.018 L 1005.05 170.573 C 996.526 165.882 987.684 163.434 978.945 163.434 C 963.174 163.434 950.911 175.475 950.911 191.251 C 950.911 207.449 963.066 218.853 980.334 218.853 C 985.976 218.853 991.1 217.578 996.105 215.978 L 996.105 201.055 L 982.144 201.055 L 982.144 191.678 L 1006.55 191.678 Z" />
  <path d="M 1058.04 218.961 C 1055.9 220.561 1053.99 221.518 1053.02 221.518 C 1051.85 221.518 1051.2 220.88 1051.2 219.069 L 1051.2 194.445 C 1051.2 183.577 1043.54 178.669 1033.84 178.669 C 1026.92 178.669 1021.69 180.804 1017.95 185.171 L 1017.95 195.51 C 1022.54 190.079 1027.87 187.625 1033.1 187.625 C 1038.85 187.625 1041.73 190.079 1041.73 196.045 L 1041.73 198.602 L 1033.3 201.585 C 1025.63 204.358 1016.99 207.238 1016.99 216.724 C 1016.99 222.907 1021.69 228.446 1028.73 228.446 C 1033.1 228.446 1037.46 226.847 1041.62 223.544 C 1042.48 226.955 1044.71 228.446 1048.86 228.446 C 1051.85 228.446 1053.66 227.592 1058.04 224.717 Z M 1041.73 217.788 C 1039.16 220.242 1036.4 221.734 1033.41 221.734 C 1029.46 221.734 1026.59 218.961 1026.59 215.016 C 1026.59 209.368 1033.62 206.595 1041.73 203.822 Z" />
  <path d="M 1075.08 227.49 L 1065.6 227.49 L 1065.6 154.797 L 1075.08 154.797 Z" />
  <path d="M 1097.36 227.49 L 1087.88 227.49 L 1087.88 154.797 L 1097.36 154.797 Z" />
  <path d="M 1148.84 213.638 C 1143.3 217.265 1137.86 219.394 1132.11 219.394 C 1122.94 219.394 1117.51 214.492 1116 205.007 L 1149.69 205.007 C 1149.69 187.312 1141.59 178.675 1128.9 178.675 C 1115.69 178.675 1106.52 188.484 1106.52 202.98 C 1106.52 216.194 1114.84 228.452 1129.75 228.452 C 1137.86 228.452 1143.07 226.642 1148.84 222.804 Z M 1116.22 198.715 C 1117.5 191.149 1121.88 186.885 1129.12 186.885 C 1135.83 186.885 1139.98 191.468 1140.31 198.715 Z" />
  <path d="M 1169.19 185.922 L 1169.41 185.922 C 1173.04 181.339 1178.37 178.675 1183.7 178.675 C 1192.75 178.675 1200 184.858 1200 197.97 L 1200 227.49 L 1190.51 227.49 L 1190.51 197.861 C 1190.51 190.824 1186.89 186.241 1181.13 186.241 C 1176.98 186.241 1173.67 188.16 1169.2 193.17 L 1169.2 227.49 L 1159.72 227.49 L 1159.72 179.631 L 1169.2 179.631 Z" />
</svg>
