<?xml version="1.0" encoding="UTF-8" standalone="no"?>
<!DOCTYPE svg PUBLIC "-//W3C//DTD SVG 1.1//EN" "http://www.w3.org/Graphics/SVG/1.1/DTD/svg11.dtd">
<svg width="2400" height="600" viewBox="0 0 2400 600" xmlns="http://www.w3.org/2000/svg">
  <path fill="none" stroke="#cccccc" stroke-width="25" stroke-linecap="round" d="m 23.52882,333.04832 c 228.16377,-407.454929 472.92357,-435.47414 720.94843,1.40617" />
  <path fill="none" stroke="#cccccc" stroke-width="25" stroke-linecap="round" d="M 567.77942,333.04832 C 795.9432,-74.406609 1040.703,-102.42582 1288.7279,334.45449" />
  <path fill="none" stroke="#cccccc" stroke-width="25" stroke-linecap="round" d="m 1113.4831,333.04832 c 228.1638,-407.454929 472.9236,-435.47414 720.9484,1.40617" />
  <path fill="none" stroke="#cccccc" stroke-width="25" stroke-linecap="round" d="m 1655.896,333.04832 c 228.1637,-407.454929 472.9235,-435.47414 720.9484,1.40617" />
  <path fill="none" stroke="#999999" stroke-width="13" stroke-linecap="butt" d="M 10.249121,363.60437 2389.7509,365.01054" />
  <path fill="#000064" d="m 264.00933,93.046891 -1.2e-4,239.999999 240.00016,-1e-5 V 93.046891 l -120,94.022989 -120.00016,-94.022989" />
  <path fill="#0018cc" d="M 927.00937,84.046891 821.00938,333.04688 H 1035.0094 L 927.00937,84.046891"/>
  <path fill="#007ce8" d="m 1341.0094,202.04688 v 2 l 199,128 V 74.046891 l -199,127.999989" />
  <path fill="#04c8fc" d="m 1980.3348,71.047001 h 79.0807 V 331.60452 h -79.0807 z" />
  <path d="m 235.86877,480.74695 v -59.58462 h 13.56575 q 5.53972,0 9.90169,0.34896 4.36198,0.34896 8.72396,1.61393 4.36198,1.26498 7.89518,3.7513 2.96614,2.00651 5.05989,4.75456 2.09375,2.74805 3.27148,5.75781 1.22136,2.96615 1.78841,6.54297 0.61068,3.5332 0.61068,7.15364 0,7.5026 -2.61718,13.82747 -2.57357,6.32487 -8.20052,10.3815 -2.96615,2.18099 -6.71745,3.40235 -3.7513,1.22135 -7.7207,1.65755 -3.9694,0.39258 -8.33137,0.39258 z m 12.03906,-9.20378 q 1.00326,0 1.65755,0.0436 0.6543,0 1.39584,0.0436 5.27799,0 9.46549,-1.26497 4.1875,-1.30859 7.15364,-3.88216 3.00977,-2.61719 4.6237,-6.54297 1.61393,-3.9694 1.61393,-9.29101 0,-5.32161 -2.31185,-10.03255 -2.31185,-4.71093 -6.63021,-7.19726 -1.78841,-1.09049 -3.79492,-1.65755 -1.96289,-0.61068 -4.18749,-0.8724 -2.18099,-0.26171 -4.88542,-0.34895 -2.66081,-0.0872 -4.10026,-0.0872 z" />
  <path d="m 310.24049,454.92404 v 25.82291 h -12.1263 v -59.58462 h 33.06379 v 9.81445 h -21.02473 v 14.13281 h 20.19596 v 9.81445 z" />
  <path d="m 390.93707,446.06923 v 32.01691 q -8.76758,3.097 -19.1927,3.097 -7.41536,0 -13.43489,-1.83203 -6.01953,-1.87565 -10.33789,-5.62695 -4.27474,-3.79492 -6.58658,-9.55273 -2.26823,-5.80143 -2.26823,-13.34765 0,-7.45898 2.57356,-13.17317 2.57357,-5.75781 7.24089,-9.50911 4.66731,-3.79492 10.86132,-5.58333 6.19401,-1.83203 13.47851,-1.83203 8.33138,0 16.05208,2.39908 l -0.78516,10.55599 q -7.54622,-3.40234 -15.6595,-3.40234 -6.19401,0 -10.94856,2.35547 -4.75456,2.35546 -7.41536,6.89192 -2.61719,4.53646 -2.61719,10.86132 0,4.4056 1.35221,8.28776 1.35222,3.88216 3.9694,6.80469 2.66081,2.92252 6.36849,4.53645 3.70768,1.61393 8.33138,1.61393 3.79492,0 7.58984,-1.26497 v -14.43815 h -12.69336 v -9.85806 z" />
  <path d="m 472.24434,468.70789 0.4362,10.51236 q -7.41537,1.96289 -13.56575,1.96289 -6.97917,0 -12.91146,-1.83203 -5.93229,-1.83203 -10.46874,-5.58333 -4.49284,-3.79492 -6.93555,-9.37825 -2.39909,-5.58333 -2.39909,-12.86783 0,-7.2845 2.18099,-13.04232 2.18099,-5.75781 6.32487,-9.7272 4.1875,-4.01302 10.03255,-6.01953 5.84505,-2.00651 13.08593,-2.00651 6.45573,0 14.39453,2.57356 l -0.95964,10.20703 q -5.88867,-3.22786 -12.78059,-3.22786 -5.84505,0 -10.29427,2.52994 -4.44922,2.48633 -6.8483,6.97917 -2.35547,4.49283 -2.35547,10.33788 0,6.06315 2.48633,10.90495 2.52994,4.84179 7.15364,7.5026 4.62369,2.66081 10.8177,2.66081 5.88867,0 12.60612,-2.48633 z" />
  <path d="m 523.75928,459.0243 q 0,5.10351 -1.65755,9.37825 -1.65755,4.23112 -4.71094,7.24088 -3.00976,2.96615 -7.24088,4.6237 -4.23112,1.65755 -9.42187,1.65755 -6.8483,0 -12.03906,-2.96614 -5.19075,-2.96615 -8.02604,-8.375 -2.79166,-5.40885 -2.79166,-12.16992 0,-6.76106 2.8789,-11.99544 2.87891,-5.23437 8.06966,-8.11327 5.23438,-2.92253 11.99544,-2.92253 5.23437,0 9.46549,1.74479 4.27474,1.74479 7.2845,4.97266 3.00977,3.18424 4.58008,7.5026 1.61393,4.31835 1.61393,9.42187 z m -11.86458,-0.26172 q 0,-3.57682 -1.17773,-7.02278 -1.13412,-3.44597 -3.66406,-5.67057 -2.52995,-2.22461 -6.23763,-2.22461 -3.5332,0 -6.10677,2.18099 -2.52995,2.18098 -3.7513,5.58333 -1.22135,3.35872 -1.22135,6.80468 0,3.70768 1.13411,7.15364 1.17774,3.44597 3.70768,5.67058 2.52995,2.18098 6.41211,2.18098 2.74804,0 4.84179,-1.30859 2.09375,-1.35221 3.40235,-3.40234 1.30859,-2.09375 1.96289,-4.66732 0.69791,-2.61718 0.69791,-5.27799 z" />
  <path d="m 544.21696,480.74695 h -11.42838 v -64.33917 h 11.42838 z" />
  <path d="m 567.16096,480.74695 h -11.42838 v -64.33917 h 11.42838 z" />
  <path d="m 615.66614,480.74695 h -10.20702 l -0.17448,-6.63021 q -2.05013,3.5332 -5.75781,5.45247 -3.66406,1.87565 -7.98242,1.87565 -4.4056,0 -7.89518,-1.52669 -3.44596,-1.52669 -5.45247,-4.6237 -2.00651,-3.14062 -2.00651,-7.58984 0,-8.28775 6.49934,-11.34114 6.49935,-3.05338 15.83398,-3.05338 1.35222,0 1.74479,0.0436 0.39258,0 1.74479,0.0872 1.35222,0.0436 2.74805,0.13086 0,-4.92904 -2.39909,-7.32813 -2.39908,-2.39908 -7.41536,-2.39908 -7.58984,0 -13.69661,4.84179 l -0.34896,-9.94531 q 7.11003,-3.00976 15.39778,-3.00976 3.09701,0 6.15039,0.61068 3.05339,0.61067 5.62695,2.05013 2.61719,1.39583 4.31836,3.7513 1.74479,2.35546 2.26823,5.40885 0.56706,3.00976 0.56706,7.19726 0,4.31836 0,8.68034 0.0436,4.36197 0.0872,7.98241 0.0872,3.57683 0.34895,9.33464 z m -10.73046,-20.10872 q -0.4362,-0.0872 -1.35221,-0.0872 h -1.39584 q -3.7513,0 -6.89192,0.4362 -3.097,0.39258 -5.45247,2.09375 -2.31185,1.65755 -2.31185,4.88541 0,2.61719 2.05013,4.1875 2.09375,1.52669 4.84179,1.52669 5.19076,0 7.85156,-3.83854 2.66081,-3.83854 2.66081,-9.20377 z" />
  <path d="m 637.47604,480.74695 h -10.73046 v -64.33917 h 11.42838 v 19.67252 q 0,4.75455 -0.4362,8.20051 2.26823,-4.36197 5.80143,-6.45572 3.5332,-2.09375 8.59309,-2.09375 4.6237,0 7.98243,1.78841 3.40234,1.74479 5.53971,4.84179 2.13737,3.09701 3.18424,7.02279 1.04688,3.88216 1.04688,8.33138 0,4.71093 -0.95964,8.94205 -0.95963,4.1875 -3.05338,7.5026 -2.09375,3.27148 -5.67057,5.27799 -3.57683,2.00651 -8.54948,2.00651 -9.81445,0 -13.91471,-7.67708 z m 20.54492,-22.07161 q 0,-5.32161 -2.31185,-9.33463 -2.26823,-4.05664 -7.15365,-4.05664 -5.14713,0 -7.7207,4.1875 -2.57356,4.1875 -2.57356,9.55273 0,5.36523 2.52994,9.42187 2.52995,4.01302 7.58984,4.01302 3.31511,0 5.45248,-2.13737 2.18098,-2.13737 3.18424,-5.32161 1.00326,-3.22787 1.00326,-6.32487 z" />
  <path d="m 722.40376,459.0243 q 0,5.10351 -1.65756,9.37825 -1.65755,4.23112 -4.71093,7.24088 -3.00977,2.96615 -7.24088,4.6237 -4.23112,1.65755 -9.42188,1.65755 -6.8483,0 -12.03905,-2.96614 -5.19076,-2.96615 -8.02604,-8.375 -2.79167,-5.40885 -2.79167,-12.16992 0,-6.76106 2.87891,-11.99544 2.8789,-5.23437 8.06966,-8.11327 5.23437,-2.92253 11.99543,-2.92253 5.23438,0 9.46549,1.74479 4.27474,1.74479 7.28451,4.97266 3.00976,3.18424 4.58007,7.5026 1.61394,4.31835 1.61394,9.42187 z m -11.86458,-0.26172 q 0,-3.57682 -1.17774,-7.02278 -1.13411,-3.44597 -3.66406,-5.67057 -2.52995,-2.22461 -6.23763,-2.22461 -3.5332,0 -6.10676,2.18099 -2.52995,2.18098 -3.75131,5.58333 -1.22135,3.35872 -1.22135,6.80468 0,3.70768 1.13412,7.15364 1.17773,3.44597 3.70768,5.67058 2.52994,2.18098 6.4121,2.18098 2.74805,0 4.8418,-1.30859 2.09375,-1.35221 3.40234,-3.40234 1.30859,-2.09375 1.96289,-4.66732 0.69792,-2.61718 0.69792,-5.27799 z" />
  <path d="m 743.29763,480.74695 h -11.42838 v -30.92642 q -0.2181,-11.03581 -0.34896,-13.30403 h 10.3815 l 0.26172,11.16666 q 1.48308,-5.23438 4.49284,-8.375 3.05338,-3.14062 7.9388,-3.14062 1.48307,0 3.35872,0.43619 v 10.73047 q -2.26823,-0.61068 -4.01302,-0.61068 -4.05664,0 -6.45572,2.13737 -2.39909,2.13737 -3.31511,5.49609 -0.87239,3.31511 -0.87239,7.28451 v 0.87239 z" />
  <path d="m 801.92262,480.74695 h -10.20703 l -0.17448,-6.63021 q -2.05013,3.5332 -5.75781,5.45247 -3.66406,1.87565 -7.98242,1.87565 -4.40559,0 -7.89518,-1.52669 -3.44596,-1.52669 -5.45247,-4.6237 -2.00651,-3.14062 -2.00651,-7.58984 0,-8.28775 6.49935,-11.34114 6.49934,-3.05338 15.83398,-3.05338 1.35221,0 1.74479,0.0436 0.39258,0 1.74479,0.0872 1.35221,0.0436 2.74804,0.13086 0,-4.92904 -2.39908,-7.32813 -2.39909,-2.39908 -7.41537,-2.39908 -7.58984,0 -13.6966,4.84179 l -0.34896,-9.94531 q 7.11002,-3.00976 15.39778,-3.00976 3.097,0 6.15039,0.61068 3.05338,0.61067 5.62695,2.05013 2.61718,1.39583 4.31835,3.7513 1.7448,2.35546 2.26823,5.40885 0.56706,3.00976 0.56706,7.19726 0,4.31836 0,8.68034 0.0436,4.36197 0.0872,7.98241 0.0872,3.57683 0.34896,9.33464 z m -10.73047,-20.10872 q -0.43619,-0.0872 -1.35221,-0.0872 h -1.39583 q -3.7513,0 -6.89193,0.4362 -3.097,0.39258 -5.45247,2.09375 -2.31185,1.65755 -2.31185,4.88541 0,2.61719 2.05013,4.1875 2.09375,1.52669 4.8418,1.52669 5.19075,0 7.85156,-3.83854 2.6608,-3.83854 2.6608,-9.20377 z" />
  <path d="m 837.82167,471.28146 0.39258,8.94205 q -4.36198,0.87239 -7.7207,0.87239 -5.62695,0 -8.89844,-2.05013 -3.27148,-2.09374 -4.58007,-5.88866 -1.3086,-3.83854 -1.3086,-9.37826 v -18.49478 h -8.33137 v -8.50586 h 8.50585 v -8.98567 l 11.42838,-3.7513 v 12.73697 h 10.07617 v 8.50586 H 827.3093 v 16.0957 q 0,5.14713 1.0905,7.85156 1.13411,2.6608 5.49609,2.6608 1.61393,0 3.92578,-0.61067 z" />
  <path d="M 857.4942,480.74695 H 846.06582 V 436.5165 h 11.42838 z m 0.17448,-52.25649 h -11.77734 v -10.81771 h 11.77734 z" />
  <path d="m 893.48052,480.74695 h -12.78059 l -16.5319,-44.23045 h 12.51888 l 7.41536,21.28644 q 2.92252,8.1569 3.57682,13.12956 1.04688,-5.278 2.79167,-10.29427 l 7.9388,-24.12173 h 11.51562 z" />
  <path d="m 952.06186,468.96961 0.17448,9.90169 q -7.02279,3.05338 -15.17969,3.05338 -5.45247,0 -9.72721,-1.52669 -4.23111,-1.57031 -7.24088,-4.58008 -3.00976,-3.05338 -4.58007,-7.32812 -1.57032,-4.31836 -1.57032,-9.81445 0,-5.05989 1.43946,-9.29101 1.48307,-4.27474 4.23111,-7.37174 2.74805,-3.14063 6.76107,-4.88542 4.05664,-1.74479 9.16015,-1.74479 4.97266,0 8.76758,1.78841 3.79492,1.78841 6.15038,4.92904 2.39909,3.14062 3.57683,7.2845 1.17773,4.10026 1.17773,9.02929 0,0.8724 -0.0436,1.30859 -0.0436,0.4362 -0.0872,1.0905 -0.0436,0.6543 -0.13086,1.52669 h -29.74868 q 0.43619,5.23437 4.05663,8.1569 3.66407,2.92252 9.07292,2.92252 6.10677,0 13.74023,-4.44921 z m -7.76432,-14.56901 q -0.0872,-2.96614 -1.0905,-5.45247 -0.95963,-2.48633 -3.00976,-4.01302 -2.00651,-1.52669 -5.01628,-1.52669 -3.097,0 -5.32161,1.52669 -2.18099,1.48307 -3.40234,3.9694 -1.17774,2.48633 -1.43945,5.49609 z" />
  <path d="m 1002.6172,480.74695 h -12.1263 v -59.58462 h 19.5417 q 5.8886,0 10.6868,1.3086 4.8418,1.26497 7.808,4.75455 2.9661,3.44597 2.9661,9.63997 0,5.71419 -3.2279,9.46549 -3.2278,3.70769 -8.8548,4.58008 2.9225,1.09049 4.362,3.18424 1.4395,2.09375 2.9661,5.84505 l 8.5931,20.80664 h -13.3912 l -6.543,-16.88086 q -1.3522,-3.66406 -2.8353,-5.23437 -1.4831,-1.61393 -3.7077,-2.09375 -2.181,-0.52344 -6.2376,-0.52344 z m -0.087,-33.93619 h 5.3652 q 4.6674,0 7.6771,-1.96289 3.0534,-1.96289 3.0534,-6.28125 0,-8.11327 -9.7272,-8.11327 h -6.3685 z" />
  <path d="m 1077.9485,468.96961 0.1745,9.90169 q -7.0228,3.05338 -15.1797,3.05338 -5.4525,0 -9.7272,-1.52669 -4.2311,-1.57031 -7.2409,-4.58008 -3.0097,-3.05338 -4.5801,-7.32812 -1.5703,-4.31836 -1.5703,-9.81445 0,-5.05989 1.4395,-9.29101 1.4831,-4.27474 4.2311,-7.37174 2.7481,-3.14063 6.7611,-4.88542 4.0566,-1.74479 9.1601,-1.74479 4.9727,0 8.7676,1.78841 3.7949,1.78841 6.1504,4.92904 2.3991,3.14062 3.5768,7.2845 1.1777,4.10026 1.1777,9.02929 0,0.8724 -0.044,1.30859 -0.044,0.4362 -0.087,1.0905 -0.044,0.6543 -0.1308,1.52669 h -29.7487 q 0.4362,5.23437 4.0566,8.1569 3.6641,2.92252 9.0729,2.92252 6.1068,0 13.7403,-4.44921 z m -7.7643,-14.56901 q -0.087,-2.96614 -1.0905,-5.45247 -0.9596,-2.48633 -3.0098,-4.01302 -2.0065,-1.52669 -5.0162,-1.52669 -3.097,0 -5.3216,1.52669 -2.181,1.48307 -3.4024,3.9694 -1.1777,2.48633 -1.4394,5.49609 z" />
  <path d="m 1088.2428,479.56921 0.5235,-9.63997 q 6.1067,3.14063 11.2539,3.14063 2.8352,0 5.3652,-1.22136 2.5299,-1.22135 2.5299,-3.79492 0,-2.22461 -3.6204,-3.79492 -3.6204,-1.57031 -7.2845,-3.097 -3.6204,-1.52669 -6.2812,-4.27474 -2.6609,-2.74805 -2.6609,-7.67708 0,-4.71094 2.7481,-7.7207 2.7917,-3.00977 7.0664,-4.36198 4.2747,-1.39583 8.8548,-1.39583 4.8418,0 10.905,1.70117 l -0.8288,8.54948 q -5.3216,-1.70118 -9.3783,-1.70118 -2.9661,0 -5.4961,1.00326 -2.5299,1.00325 -2.5299,3.48958 0,2.13737 3.4459,3.57682 3.4896,1.39584 7.2846,2.83529 3.8385,1.39583 6.5429,4.23112 2.7481,2.79166 2.7481,8.02604 0,4.75455 -2.6608,7.93879 -2.6172,3.18425 -6.8047,4.66732 -4.1875,1.48307 -8.8548,1.48307 -5.3217,0 -12.8679,-1.96289 z" />
  <path d="m 1164.1848,468.96961 0.1745,9.90169 q -7.0228,3.05338 -15.1797,3.05338 -5.4524,0 -9.7272,-1.52669 -4.2311,-1.57031 -7.2408,-4.58008 -3.0098,-3.05338 -4.5801,-7.32812 -1.5703,-4.31836 -1.5703,-9.81445 0,-5.05989 1.4394,-9.29101 1.4831,-4.27474 4.2311,-7.37174 2.7481,-3.14063 6.7611,-4.88542 4.0566,-1.74479 9.1602,-1.74479 4.9726,0 8.7675,1.78841 3.7949,1.78841 6.1504,4.92904 2.3991,3.14062 3.5768,7.2845 1.1778,4.10026 1.1778,9.02929 0,0.8724 -0.044,1.30859 -0.044,0.4362 -0.087,1.0905 -0.044,0.6543 -0.1309,1.52669 h -29.7487 q 0.4362,5.23437 4.0567,8.1569 3.664,2.92252 9.0729,2.92252 6.1067,0 13.7402,-4.44921 z m -7.7643,-14.56901 q -0.087,-2.96614 -1.0905,-5.45247 -0.9596,-2.48633 -3.0097,-4.01302 -2.0065,-1.52669 -5.0163,-1.52669 -3.097,0 -5.3216,1.52669 -2.181,1.48307 -3.4024,3.9694 -1.1777,2.48633 -1.4394,5.49609 z" />
  <path d="m 1213.3443,480.74695 h -10.207 l -0.1745,-6.63021 q -2.0501,3.5332 -5.7578,5.45247 -3.6641,1.87565 -7.9824,1.87565 -4.4056,0 -7.8952,-1.52669 -3.446,-1.52669 -5.4525,-4.6237 -2.0065,-3.14062 -2.0065,-7.58984 0,-8.28775 6.4994,-11.34114 6.4993,-3.05338 15.8339,-3.05338 1.3523,0 1.7448,0.0436 0.3926,0 1.7448,0.0872 1.3522,0.0436 2.7481,0.13086 0,-4.92904 -2.3991,-7.32813 -2.3991,-2.39908 -7.4154,-2.39908 -7.5898,0 -13.6966,4.84179 l -0.3489,-9.94531 q 7.11,-3.00976 15.3977,-3.00976 3.097,0 6.1504,0.61068 3.0534,0.61067 5.627,2.05013 2.6172,1.39583 4.3183,3.7513 1.7448,2.35546 2.2683,5.40885 0.567,3.00976 0.567,7.19726 0,4.31836 0,8.68034 0.044,4.36197 0.087,7.98241 0.087,3.57683 0.349,9.33464 z m -10.7305,-20.10872 q -0.4362,-0.0872 -1.3522,-0.0872 h -1.3958 q -3.7513,0 -6.8919,0.4362 -3.097,0.39258 -5.4525,2.09375 -2.3118,1.65755 -2.3118,4.88541 0,2.61719 2.0501,4.1875 2.0937,1.52669 4.8418,1.52669 5.1907,0 7.8515,-3.83854 2.6608,-3.83854 2.6608,-9.20377 z" />
  <path d="m 1236.2883,480.74695 h -11.4284 v -30.92642 q -0.2181,-11.03581 -0.3489,-13.30403 h 10.3815 l 0.2617,11.16666 q 1.483,-5.23438 4.4928,-8.375 3.0534,-3.14062 7.9388,-3.14062 1.4831,0 3.3587,0.43619 v 10.73047 q -2.2682,-0.61068 -4.013,-0.61068 -4.0566,0 -6.4557,2.13737 -2.3991,2.13737 -3.3151,5.49609 -0.8724,3.31511 -0.8724,7.28451 v 0.87239 z" />
  <path d="m 1287.9341,469.75476 0.6543,9.63997 q -5.7578,1.70117 -10.2943,1.70117 -5.0598,0 -9.291,-1.52669 -4.2311,-1.57031 -7.2845,-4.53645 -3.0097,-2.96615 -4.6237,-7.19727 -1.5703,-4.27473 -1.5703,-9.42187 0,-6.54296 2.7917,-11.60286 2.8353,-5.05989 7.9388,-7.85156 5.1471,-2.79166 11.6028,-2.79166 4.7982,0 9.7273,1.43945 l -0.8724,9.20377 q -3.9258,-1.52669 -7.0664,-1.52669 -3.5769,0 -6.4121,1.78841 -2.8353,1.74479 -4.362,4.71094 -1.4831,2.92252 -1.4831,6.54296 0,5.97591 3.4896,9.59635 3.4896,3.62044 9.3782,3.62044 3.7513,0 7.6771,-1.78841 z" />
  <path d="m 1337.1808,480.74695 h -11.4284 v -21.46093 q 0,-6.36849 -1.3958,-10.16341 -1.3522,-3.83854 -6.4557,-3.83854 -5.4961,0 -7.7207,4.53646 -2.2246,4.49283 -2.2246,10.55598 v 2.22461 18.14583 h -11.4284 v -64.33917 h 11.4284 v 26.38996 q 2.4863,-3.57682 5.9759,-5.32161 3.4896,-1.74479 7.9824,-1.74479 4.6673,0 7.6771,1.52669 3.0534,1.48307 4.6673,4.05664 1.6575,2.57357 2.2682,6.01953 0.6543,3.40234 0.6543,8.02604 z" />
  <path d="m 1417.6593,468.70789 0.4362,10.51236 q -7.4154,1.96289 -13.5658,1.96289 -6.9791,0 -12.9114,-1.83203 -5.9323,-1.83203 -10.4688,-5.58333 -4.4928,-3.79492 -6.9355,-9.37825 -2.3991,-5.58333 -2.3991,-12.86783 0,-7.2845 2.181,-13.04232 2.181,-5.75781 6.3249,-9.7272 4.1875,-4.01302 10.0325,-6.01953 5.8451,-2.00651 13.0859,-2.00651 6.4558,0 14.3946,2.57356 l -0.9597,10.20703 q -5.8886,-3.22786 -12.7806,-3.22786 -5.845,0 -10.2942,2.52994 -4.4492,2.48633 -6.8483,6.97917 -2.3555,4.49283 -2.3555,10.33788 0,6.06315 2.4863,10.90495 2.53,4.84179 7.1537,7.5026 4.6237,2.66081 10.8177,2.66081 5.8886,0 12.6061,-2.48633 z" />
  <path d="m 1461.4099,468.96961 0.1745,9.90169 q -7.0228,3.05338 -15.1797,3.05338 -5.4524,0 -9.7272,-1.52669 -4.2311,-1.57031 -7.2409,-4.58008 -3.0097,-3.05338 -4.58,-7.32812 -1.5703,-4.31836 -1.5703,-9.81445 0,-5.05989 1.4394,-9.29101 1.4831,-4.27474 4.2311,-7.37174 2.7481,-3.14063 6.7611,-4.88542 4.0566,-1.74479 9.1602,-1.74479 4.9726,0 8.7675,1.78841 3.7949,1.78841 6.1504,4.92904 2.3991,3.14062 3.5768,7.2845 1.1778,4.10026 1.1778,9.02929 0,0.8724 -0.044,1.30859 -0.044,0.4362 -0.087,1.0905 -0.044,0.6543 -0.1309,1.52669 H 1434.54 q 0.4362,5.23437 4.0567,8.1569 3.664,2.92252 9.0729,2.92252 6.1067,0 13.7402,-4.44921 z m -7.7643,-14.56901 q -0.087,-2.96614 -1.0905,-5.45247 -0.9596,-2.48633 -3.0097,-4.01302 -2.0065,-1.52669 -5.0163,-1.52669 -3.097,0 -5.3216,1.52669 -2.181,1.48307 -3.4024,3.9694 -1.1777,2.48633 -1.4394,5.49609 z" />
  <path d="m 1484.4848,436.5165 0.2617,7.0664 q 5.3216,-7.76432 14.918,-7.76432 8.8984,0 11.9954,5.27799 3.097,5.23437 3.097,14.74349 v 24.90689 h -11.4284 v -22.24609 q 0,-5.88867 -1.5267,-9.55273 -1.483,-3.66406 -6.4993,-3.66406 -5.3652,0 -7.5462,4.31836 -2.181,4.27474 -2.181,10.1634 v 20.98112 h -11.472 v -28.13476 q 0,-9.37825 -0.4362,-16.09569 z" />
  <path d="m 1550.6561,471.28146 0.3926,8.94205 q -4.362,0.87239 -7.7207,0.87239 -5.627,0 -8.8985,-2.05013 -3.2715,-2.09374 -4.58,-5.88866 -1.3086,-3.83854 -1.3086,-9.37826 v -18.49478 h -8.3314 v -8.50586 h 8.5058 v -8.98567 l 11.4284,-3.7513 v 12.73697 h 10.0762 v 8.50586 h -10.0762 v 16.0957 q 0,5.14713 1.0905,7.85156 1.1341,2.6608 5.4961,2.6608 1.6139,0 3.9258,-0.61067 z" />
  <path d="m 1570.6775,480.74695 h -11.4284 v -30.92642 q -0.2181,-11.03581 -0.349,-13.30403 h 10.3815 l 0.2617,11.16666 q 1.4831,-5.23438 4.4929,-8.375 3.0534,-3.14062 7.9388,-3.14062 1.483,0 3.3587,0.43619 v 10.73047 q -2.2682,-0.61068 -4.013,-0.61068 -4.0567,0 -6.4558,2.13737 -2.399,2.13737 -3.3151,5.49609 -0.8723,3.31511 -0.8723,7.28451 v 0.87239 z" />
  <path d="m 1627.9502,468.96961 0.1745,9.90169 q -7.0228,3.05338 -15.1797,3.05338 -5.4524,0 -9.7272,-1.52669 -4.2311,-1.57031 -7.2409,-4.58008 -3.0097,-3.05338 -4.58,-7.32812 -1.5704,-4.31836 -1.5704,-9.81445 0,-5.05989 1.4395,-9.29101 1.4831,-4.27474 4.2311,-7.37174 2.7481,-3.14063 6.7611,-4.88542 4.0566,-1.74479 9.1601,-1.74479 4.9727,0 8.7676,1.78841 3.7949,1.78841 6.1504,4.92904 2.3991,3.14062 3.5768,7.2845 1.1778,4.10026 1.1778,9.02929 0,0.8724 -0.044,1.30859 -0.044,0.4362 -0.087,1.0905 -0.044,0.6543 -0.1309,1.52669 h -29.7487 q 0.4362,5.23437 4.0566,8.1569 3.6641,2.92252 9.073,2.92252 6.1067,0 13.7402,-4.44921 z m -7.7643,-14.56901 q -0.087,-2.96614 -1.0905,-5.45247 -0.9596,-2.48633 -3.0098,-4.01302 -2.0065,-1.52669 -5.0162,-1.52669 -3.097,0 -5.3216,1.52669 -2.181,1.48307 -3.4024,3.9694 -1.1777,2.48633 -1.4394,5.49609 z" />
  <path d="m 1692.8129,480.74695 h -11.9519 v -46.45506 l -10.1197,8.59309 -6.1504,-7.89518 17.7532,-13.82747 h 10.4688 z" />
  <path d="m 1751.7868,451.0855 q 0,4.79817 -0.3489,8.54948 -0.349,3.70768 -1.5267,7.5026 -1.1778,3.79492 -3.2279,6.71744 -2.6172,3.79492 -6.8047,5.84505 -4.1439,2.05013 -8.8112,2.05013 -8.1133,0 -12.737,-4.44922 -4.6236,-4.49283 -6.3684,-11.34114 -1.7012,-6.89192 -1.7012,-14.87434 0,-7.98242 1.7448,-14.83072 1.7884,-6.89193 6.4121,-11.42838 4.6673,-4.53646 12.6497,-4.53646 7.9824,0 12.6061,4.53646 4.6237,4.53645 6.3685,11.42838 1.7448,6.8483 1.7448,14.83072 z m -12.039,-0.0872 q 0,-4.58008 -0.5235,-9.33463 -0.4798,-4.79818 -2.3991,-8.63672 -1.9192,-3.83854 -5.7578,-3.83854 -3.9258,0 -5.8886,3.88216 -1.9193,3.83854 -2.3991,8.46224 -0.4799,4.6237 -0.4799,9.81445 0,8.20052 1.5704,14.83072 1.5703,6.63021 7.1972,6.63021 3.8386,0 5.7578,-3.57682 1.9629,-3.62045 2.4427,-8.20052 0.4799,-4.6237 0.4799,-9.33463 z" />
  <path d="m 1761.0779,479.87455 0.2617,-10.90494 q 6.1504,3.00976 12.2571,3.00976 3.3151,0 6.194,-1.00325 2.9226,-1.00326 4.711,-3.22787 1.7884,-2.26822 1.7884,-5.75781 0,-5.23437 -4.013,-7.80794 -3.9694,-2.57356 -9.4655,-2.57356 -2.6608,0 -5.1908,0.43619 -2.4863,0.4362 -5.6269,1.26498 l 0.5234,-31.79882 h 34.5905 v 9.29101 h -23.2494 l -0.3489,11.82096 q 2.3991,-0.2181 4.1875,-0.2181 4.5801,0 8.4186,1.26498 3.8385,1.22135 6.7174,3.62044 2.9226,2.39909 4.5801,6.06315 1.6576,3.62044 1.6576,8.28776 0,4.97265 -1.8757,8.85481 -1.8756,3.83854 -5.1907,6.32487 -3.2715,2.4427 -7.5899,3.70768 -4.3183,1.22135 -9.2037,1.22135 -8.4623,0 -14.1328,-1.87565 z" />
  <path d="m 1806.6605,479.56921 0.698,-10.25064 q 6.8046,3.00976 13.4348,3.00976 5.0163,0 8.6804,-2.09375 3.7077,-2.09375 3.7077,-6.71744 0,-5.19076 -4.4056,-6.97917 -4.4056,-1.78841 -10.5996,-1.78841 -1.3959,0 -3.9258,0.17448 v -9.72721 q 1.2649,0.0872 3.7513,0.0872 5.8886,0 10.3815,-1.78841 4.5364,-1.78841 4.5364,-6.80469 0,-2.52994 -1.5703,-4.10025 -1.5703,-1.57032 -3.9694,-2.22461 -2.3554,-0.69792 -4.7981,-0.69792 -7.6771,0 -13.6094,3.097 l -0.6979,-9.81444 q 8.375,-2.66081 16.3574,-2.66081 8.9857,0 14.7871,3.70768 5.845,3.70768 5.845,12.08268 0,3.18424 -1.4394,6.10677 -1.3959,2.8789 -3.9694,4.79817 -2.5736,1.91927 -5.6706,2.48633 4.4928,1.48307 5.7142,2.31185 2.9225,1.96289 4.4056,5.53971 1.4831,3.5332 1.4831,7.41536 0,5.84505 -3.446,9.68359 -3.446,3.83854 -8.8112,5.58333 -5.3652,1.74479 -11.1666,1.74479 -3.9694,0 -7.808,-0.52344 -3.7949,-0.47981 -7.8952,-1.65755 z" />
  <path d="m 1920.29,462.25216 h -41.526 v -7.76432 h 41.526 z" />
  <path d="m 2023.0145,480.74695 h -12.039 v -35.20116 q 0.2617,-8.02604 0.7851,-16.0957 h -0.349 q -0.8723,3.5332 -1.7884,6.19401 l -15.1796,45.10285 h -11.0795 l -12.8678,-37.25129 q -2.3991,-6.97916 -4.1003,-14.04557 h -0.3489 q 0.8724,8.63672 0.8724,15.6595 v 35.63736 h -11.4284 v -59.58462 h 19.0182 l 10.8177,31.27538 q 2.53,7.54622 3.8386,14.65625 0.7851,-3.7513 1.483,-6.49935 0.7416,-2.79167 1.6576,-5.58333 l 11.4284,-33.84895 h 19.2799 z" />
  <path d="m 2091.5413,480.74695 h -13.1296 l -5.1907,-13.56575 h -24.6452 l -5.1035,13.56575 h -12.4316 l 23.2493,-59.58462 h 13.3913 z m -21.9844,-23.33658 -7.6771,-21.06835 q -0.2617,-0.69792 -1.1777,-3.92578 -0.3489,1.35221 -0.6979,2.74804 -0.349,1.35222 -0.6107,2.18099 l -7.1536,20.0651 z" />
  <path d="m 2148.9448,480.74695 h -15.5286 l -19.28,-24.55794 q -0.3925,-0.47981 -2.7916,-3.92578 0.2617,2.66081 0.2617,5.278 v 23.20572 h -12.0391 v -59.58462 h 12.0391 v 21.1556 q 0,2.4427 -0.2617,4.75455 2.5735,-3.48958 3.1406,-4.10026 l 18.582,-21.80989 h 14.569 l -24.3834,27.52408 z" />
  <path d="m 2169.5334,480.74695 h -12.0827 v -59.58462 h 12.0827 z" />
  <path d="m 216.90692,579.44038 h -12.03906 v -35.20116 q 0.26172,-8.02603 0.78516,-16.09569 h -0.34896 q -0.8724,3.5332 -1.78841,6.19401 l -15.17968,45.10284 h -11.07943 l -12.86783,-37.25129 q -2.39909,-6.97916 -4.10026,-14.04556 h -0.34896 q 0.8724,8.63671 0.8724,15.6595 v 35.63735 h -11.42838 v -59.58461 h 19.01822 l 10.8177,31.27538 q 2.52995,7.54622 3.83854,14.65624 0.78516,-3.7513 1.48308,-6.49934 0.74153,-2.79167 1.65755,-5.58333 l 11.42838,-33.84895 h 19.27994 z" />
  <path d="m 269.5996,535.20993 v 27.00064 q 0.0872,1.87565 0.17448,5.80143 0.13086,3.92578 0.2181,6.28125 0.0872,2.35547 0.26172,5.14713 h -10.8177 l -0.34896,-6.80468 q -1.52669,2.39908 -3.70768,4.05664 -2.13737,1.65755 -4.8418,2.57356 -2.70442,0.8724 -5.40885,0.8724 -6.15039,0 -9.59635,-2.52995 -3.44596,-2.52995 -4.75455,-6.93554 -1.26498,-4.4056 -1.26498,-10.51237 v -24.95051 h 11.42838 v 21.28645 q 0,4.14388 0.39258,7.02278 0.4362,2.83529 2.22461,4.97266 1.78841,2.09375 5.40885,2.09375 5.19075,0 7.19726,-4.36198 2.00651,-4.4056 2.00651,-10.29427 v -20.71939 z" />
  <path d="m 293.11066,579.44038 h -11.42839 v -64.33917 h 11.42839 z" />
  <path d="m 329.44594,569.97489 0.39258,8.94205 q -4.36198,0.8724 -7.7207,0.8724 -5.62695,0 -8.89843,-2.05013 -3.27149,-2.09375 -4.58008,-5.88867 -1.30859,-3.83854 -1.30859,-9.37825 v -18.49478 h -8.33138 v -8.50586 h 8.50586 v -8.98567 l 11.42838,-3.7513 v 12.73697 h 10.07616 v 8.50586 h -10.07616 v 16.09569 q 0,5.14714 1.09049,7.85156 1.13411,2.66081 5.49609,2.66081 1.61393,0 3.92578,-0.61068 z" />
  <path d="m 349.11846,579.44038 h -11.42838 v -44.23045 h 11.42838 z m 0.17448,-52.25649 H 337.5156 v -10.8177 h 11.77734 z" />
  <path d="m 454.41659,579.44038 h -12.03906 v -35.20116 q 0.26172,-8.02603 0.78516,-16.09569 h -0.34896 q -0.87239,3.5332 -1.78841,6.19401 l -15.17968,45.10284 h -11.07942 l -12.86784,-37.25129 q -2.39908,-6.97916 -4.10026,-14.04556 h -0.34895 q 0.87239,8.63671 0.87239,15.6595 v 35.63735 h -11.42838 v -59.58461 h 19.01822 l 10.81771,31.27538 q 2.52994,7.54622 3.83854,14.65624 0.78515,-3.7513 1.48307,-6.49934 0.74154,-2.79167 1.65755,-5.58333 l 11.42838,-33.84895 h 19.27994 z" />
  <path d="m 502.92177,567.66304 0.17448,9.90169 q -7.02278,3.05339 -15.17968,3.05339 -5.45247,0 -9.72721,-1.5267 -4.23112,-1.57031 -7.24088,-4.58007 -3.00977,-3.05339 -4.58008,-7.32812 -1.57031,-4.31836 -1.57031,-9.81445 0,-5.0599 1.43945,-9.29102 1.48307,-4.27473 4.23112,-7.37174 2.74805,-3.14062 6.76107,-4.88541 4.05663,-1.74479 9.16015,-1.74479 4.97265,0 8.76757,1.78841 3.79492,1.78841 6.15039,4.92903 2.39909,3.14063 3.57682,7.2845 1.17774,4.10026 1.17774,9.0293 0,0.87239 -0.0436,1.30859 -0.0436,0.4362 -0.0872,1.09049 -0.0436,0.6543 -0.13086,1.5267 h -29.74869 q 0.4362,5.23437 4.05664,8.15689 3.66406,2.92253 9.07291,2.92253 6.10677,0 13.74023,-4.44922 z m -7.76432,-14.569 q -0.0872,-2.96615 -1.09049,-5.45247 -0.95964,-2.48633 -3.00977,-4.01302 -2.00651,-1.52669 -5.01627,-1.52669 -3.097,0 -5.32161,1.52669 -2.18099,1.48307 -3.40234,3.9694 -1.17774,2.48632 -1.43946,5.49609 z" />
  <path d="m 545.1021,568.4482 0.6543,9.63997 q -5.75781,1.70117 -10.29427,1.70117 -5.05989,0 -9.29101,-1.52669 -4.23112,-1.57031 -7.2845,-4.53646 -3.00977,-2.96614 -4.6237,-7.19726 -1.57031,-4.27474 -1.57031,-9.42187 0,-6.54297 2.79167,-11.60286 2.83528,-5.0599 7.9388,-7.85156 5.14713,-2.79167 11.60286,-2.79167 4.79817,0 9.7272,1.43946 l -0.87239,9.20377 q -3.92578,-1.52669 -7.0664,-1.52669 -3.57683,0 -6.41211,1.78841 -2.83529,1.74479 -4.36198,4.71093 -1.48307,2.92253 -1.48307,6.54297 0,5.97591 3.48958,9.59635 3.48958,3.62044 9.37825,3.62044 3.7513,0 7.67708,-1.78841 z" />
  <path d="m 594.34883,579.44038 h -11.42838 v -21.46093 q 0,-6.36848 -1.39583,-10.1634 -1.35221,-3.83854 -6.45573,-3.83854 -5.49609,0 -7.7207,4.53645 -2.22461,4.49284 -2.22461,10.55599 v 2.22461 18.14582 H 553.6952 v -64.33917 h 11.42838 v 26.38997 q 2.48633,-3.57682 5.97591,-5.32161 3.48959,-1.7448 7.98242,-1.7448 4.66732,0 7.67708,1.5267 3.05339,1.48307 4.66732,4.05664 1.65755,2.57356 2.26823,6.01952 0.65429,3.40235 0.65429,8.02604 z" />
  <path d="m 642.50506,579.44038 h -10.20702 l -0.17448,-6.6302 q -2.05013,3.5332 -5.75781,5.45247 -3.66406,1.87565 -7.98242,1.87565 -4.4056,0 -7.89518,-1.52669 -3.44596,-1.5267 -5.45247,-4.6237 -2.00651,-3.14062 -2.00651,-7.58984 0,-8.28776 6.49935,-11.34114 6.49934,-3.05339 15.83397,-3.05339 1.35222,0 1.74479,0.0436 0.39258,0 1.7448,0.0872 1.35221,0.0436 2.74804,0.13086 0,-4.92903 -2.39909,-7.32812 -2.39908,-2.39909 -7.41536,-2.39909 -7.58984,0 -13.69661,4.8418 l -0.34896,-9.94531 q 7.11003,-3.00977 15.39778,-3.00977 3.09701,0 6.15039,0.61068 3.05339,0.61068 5.62695,2.05013 2.61719,1.39583 4.31836,3.7513 1.74479,2.35547 2.26823,5.40885 0.56706,3.00977 0.56706,7.19727 0,4.31835 0,8.68033 0.0436,4.36198 0.0872,7.98242 0.0872,3.57682 0.34895,9.33463 z M 631.7746,559.33167 q -0.4362,-0.0872 -1.35221,-0.0872 h -1.39584 q -3.7513,0 -6.89192,0.43619 -3.097,0.39258 -5.45247,2.09375 -2.31185,1.65755 -2.31185,4.88542 0,2.61718 2.05013,4.1875 2.09375,1.52669 4.84179,1.52669 5.19076,0 7.85156,-3.83854 2.66081,-3.83854 2.66081,-9.20377 z" />
  <path d="m 664.48944,535.20993 0.26172,7.0664 q 5.32161,-7.76432 14.91796,-7.76432 8.89844,0 11.99544,5.278 3.09701,5.23437 3.09701,14.74348 v 24.90689 H 683.33319 V 557.1943 q 0,-5.88867 -1.5267,-9.55273 -1.48307,-3.66406 -6.49934,-3.66406 -5.36523,0 -7.54622,4.31835 -2.18099,4.27474 -2.18099,10.16341 v 20.98111 h -11.47201 v -28.13475 q 0,-9.37825 -0.43619,-16.0957 z" />
  <path d="m 717.35659,579.44038 h -11.42838 v -44.23045 h 11.42838 z m 0.17448,-52.25649 h -11.77734 v -10.8177 h 11.77734 z" />
  <path d="m 726.99657,578.26265 0.52344,-9.63997 q 6.10676,3.14062 11.2539,3.14062 2.83528,0 5.36523,-1.22135 2.52995,-1.22136 2.52995,-3.79492 0,-2.22461 -3.62044,-3.79492 -3.62045,-1.57031 -7.28451,-3.09701 -3.62044,-1.52669 -6.28124,-4.27473 -2.66081,-2.74805 -2.66081,-7.67708 0,-4.71094 2.74805,-7.72071 2.79166,-3.00976 7.0664,-4.36197 4.27474,-1.39584 8.85481,-1.39584 4.8418,0 10.90495,1.70118 l -0.82878,8.54947 q -5.32161,-1.70117 -9.37825,-1.70117 -2.96614,0 -5.49609,1.00326 -2.52995,1.00325 -2.52995,3.48958 0,2.13737 3.44596,3.57682 3.48959,1.39583 7.28451,2.83528 3.83854,1.39584 6.54296,4.23112 2.74805,2.79167 2.74805,8.02604 0,4.75456 -2.66081,7.9388 -2.61719,3.18424 -6.80468,4.66732 -4.1875,1.48307 -8.85482,1.48307 -5.32161,0 -12.86783,-1.96289 z" />
  <path d="m 778.29342,535.20993 0.26172,6.71745 q 2.13737,-3.48959 5.75781,-5.45248 3.66406,-1.96289 7.89518,-1.96289 4.62369,0 7.63346,1.91927 3.05338,1.87565 4.88541,5.93229 2.22461,-3.79492 5.88867,-5.80143 3.70768,-2.05013 8.1569,-2.05013 8.24414,0 11.12304,5.23438 2.87891,5.19075 2.87891,14.04556 v 25.64843 h -11.42838 v -21.46093 -1.74479 q 0,-5.36523 -1.26498,-8.81119 -1.22135,-3.44596 -5.40885,-3.44596 -8.68033,0 -8.68033,15.0052 v 20.45767 h -11.42839 v -22.68228 -3.14062 q 0,-3.83854 -1.48307,-6.71745 -1.48307,-2.92252 -5.14713,-2.92252 -4.75456,0 -6.76107,4.05663 -2.00651,4.01302 -2.00651,9.2474 v 22.15884 h -11.42838 v -33.41275 q 0,-6.06314 -0.34895,-10.8177 z" />
  <path d="m 924.33244,579.44038 h -13.12955 l -5.19076,-13.56575 h -24.64517 l -5.10351,13.56575 h -12.43164 l 23.24934,-59.58461 h 13.39127 z m -21.98437,-23.33658 -7.67708,-21.06835 q -0.26172,-0.69791 -1.17773,-3.92578 -0.34896,1.35221 -0.69792,2.74805 -0.34896,1.35221 -0.61067,2.18099 l -7.15365,20.06509 z" />
  <path d="m 971.7471,579.44038 h -10.81771 l -0.17448,-7.5026 q -1.96288,3.9694 -5.62695,6.10677 -3.62044,2.09375 -8.20051,2.09375 -4.79818,0 -8.41862,-1.87565 -3.57682,-1.91927 -5.80143,-5.14714 -2.22461,-3.22786 -3.3151,-7.32812 -1.04688,-4.10026 -1.04688,-8.59309 0,-5.93229 1.96289,-11.12305 1.96289,-5.23437 6.06315,-8.41861 4.14388,-3.22787 10.29427,-3.22787 4.62369,0 8.06966,2.05013 3.44596,2.05013 5.67057,6.06315 -0.4362,-3.22786 -0.4362,-7.85156 v -19.58528 h 11.42834 v 51.47134 q 0.087,4.27474 0.1309,7.5026 0.087,3.22786 0.2181,5.36523 z m -11.60286,-21.80989 q 0,-3.44596 -1.0905,-6.49934 -1.09049,-3.09701 -3.44596,-5.10352 -2.31185,-2.05012 -5.75781,-2.05012 -5.14713,0 -7.41536,3.96939 -2.22461,3.92578 -2.22461,9.50912 0,5.23437 2.48633,9.46549 2.48633,4.23111 7.32812,4.23111 3.27148,0 5.58333,-1.96289 2.35547,-2.0065 3.44596,-5.05989 1.0905,-3.097 1.0905,-6.49935 z" />
  <path d="m 1020.2523,579.44038 h -10.207 l -0.1745,-6.6302 q -2.0501,3.5332 -5.7578,5.45247 -3.6641,1.87565 -7.9824,1.87565 -4.4056,0 -7.8952,-1.52669 -3.446,-1.5267 -5.4525,-4.6237 -2.0065,-3.14062 -2.0065,-7.58984 0,-8.28776 6.4993,-11.34114 6.4994,-3.05339 15.834,-3.05339 1.3522,0 1.7448,0.0436 0.3926,0 1.7448,0.0872 1.3522,0.0436 2.748,0.13086 0,-4.92903 -2.399,-7.32812 -2.3991,-2.39909 -7.4154,-2.39909 -7.5898,0 -13.6966,4.8418 l -0.349,-9.94531 q 7.1101,-3.00977 15.3978,-3.00977 3.097,0 6.1504,0.61068 3.0534,0.61068 5.627,2.05013 2.6171,1.39583 4.3183,3.7513 1.7448,2.35547 2.2682,5.40885 0.5671,3.00977 0.5671,7.19727 0,4.31835 0,8.68033 0.044,4.36198 0.087,7.98242 0.087,3.57682 0.349,9.33463 z m -10.7305,-20.10871 q -0.4362,-0.0872 -1.3522,-0.0872 h -1.3958 q -3.7513,0 -6.8919,0.43619 -3.097,0.39258 -5.4525,2.09375 -2.3119,1.65755 -2.3119,4.88542 0,2.61718 2.0502,4.1875 2.0937,1.52669 4.8418,1.52669 5.1907,0 7.8515,-3.83854 2.6608,-3.83854 2.6608,-9.20377 z" />
  <path d="m 1043.3272,597.58621 h -11.472 v -49.50845 q 0,-7.58984 -0.4362,-12.95507 h 10.9922 l 0.1745,6.97917 q 5.1035,-7.67709 14.4817,-7.67709 4.5365,0 7.8952,1.83204 3.4023,1.83203 5.5833,5.01627 2.2246,3.14062 3.2715,7.19726 1.0905,4.01302 1.0905,8.28776 0,6.32487 -1.8756,11.60286 -1.8321,5.27799 -5.976,8.54947 -4.1438,3.22787 -10.5123,3.22787 -4.1439,0 -7.7643,-1.78841 -3.6205,-1.78841 -5.6706,-5.14714 0.2181,2.22461 0.2181,6.76107 z m 19.7161,-40.13019 q 0,-3.53321 -0.916,-6.54297 -0.8724,-3.00976 -3.0097,-4.97265 -2.0938,-1.96289 -5.627,-1.96289 -3.446,0 -5.7578,2.0065 -2.3119,1.96289 -3.3587,5.10352 -1.0469,3.097 -1.0469,6.45573 0,5.49609 2.3555,9.50911 2.399,3.9694 7.5462,3.9694 3.3587,0 5.5397,-2.00651 2.181,-2.05013 3.2279,-5.19076 1.0468,-3.18424 1.0468,-6.36848 z" />
  <path d="m 1108.7568,569.97489 0.3926,8.94205 q -4.362,0.8724 -7.7207,0.8724 -5.627,0 -8.8984,-2.05013 -3.2715,-2.09375 -4.5801,-5.88867 -1.3086,-3.83854 -1.3086,-9.37825 v -18.49478 h -8.3314 v -8.50586 h 8.5059 v -8.98567 l 11.4283,-3.7513 v 12.73697 h 10.0762 v 8.50586 h -10.0762 v 16.09569 q 0,5.14714 1.0905,7.85156 1.1342,2.66081 5.4961,2.66081 1.614,0 3.9258,-0.61068 z" />
  <path d="m 1153.9033,579.44038 h -10.207 l -0.1745,-6.6302 q -2.0501,3.5332 -5.7578,5.45247 -3.6641,1.87565 -7.9824,1.87565 -4.4056,0 -7.8952,-1.52669 -3.446,-1.5267 -5.4525,-4.6237 -2.0065,-3.14062 -2.0065,-7.58984 0,-8.28776 6.4993,-11.34114 6.4994,-3.05339 15.834,-3.05339 1.3522,0 1.7448,0.0436 0.3926,0 1.7448,0.0872 1.3522,0.0436 2.748,0.13086 0,-4.92903 -2.399,-7.32812 -2.3991,-2.39909 -7.4154,-2.39909 -7.5898,0 -13.6966,4.8418 l -0.349,-9.94531 q 7.1101,-3.00977 15.3978,-3.00977 3.097,0 6.1504,0.61068 3.0534,0.61068 5.627,2.05013 2.6171,1.39583 4.3183,3.7513 1.7448,2.35547 2.2682,5.40885 0.5671,3.00977 0.5671,7.19727 0,4.31835 0,8.68033 0.044,4.36198 0.087,7.98242 0.087,3.57682 0.349,9.33463 z m -10.7305,-20.10871 q -0.4362,-0.0872 -1.3522,-0.0872 h -1.3958 q -3.7513,0 -6.8919,0.43619 -3.097,0.39258 -5.4525,2.09375 -2.3119,1.65755 -2.3119,4.88542 0,2.61718 2.0502,4.1875 2.0937,1.52669 4.8418,1.52669 5.1907,0 7.8515,-3.83854 2.6608,-3.83854 2.6608,-9.20377 z" />
  <path d="m 1189.8024,569.97489 0.3926,8.94205 q -4.362,0.8724 -7.7207,0.8724 -5.627,0 -8.8984,-2.05013 -3.2715,-2.09375 -4.5801,-5.88867 -1.3086,-3.83854 -1.3086,-9.37825 v -18.49478 h -8.3314 v -8.50586 h 8.5059 v -8.98567 l 11.4283,-3.7513 v 12.73697 h 10.0762 v 8.50586 H 1179.29 v 16.09569 q 0,5.14714 1.0905,7.85156 1.1342,2.66081 5.4961,2.66081 1.614,0 3.9258,-0.61068 z" />
  <path d="m 1209.4749,579.44038 h -11.4283 v -44.23045 h 11.4283 z m 0.1745,-52.25649 h -11.7773 v -10.8177 h 11.7773 z" />
  <path d="m 1264.3922,557.71773 q 0,5.10352 -1.6575,9.37826 -1.6576,4.23111 -4.7109,7.24088 -3.0098,2.96614 -7.2409,4.62369 -4.2311,1.65756 -9.4219,1.65756 -6.8483,0 -12.0391,-2.96615 -5.1907,-2.96614 -8.026,-8.375 -2.7917,-5.40885 -2.7917,-12.16991 0,-6.76107 2.8789,-11.99544 2.879,-5.23437 8.0697,-8.11328 5.2344,-2.92252 11.9954,-2.92252 5.2344,0 9.4655,1.74479 4.2748,1.74479 7.2845,4.97265 3.0098,3.18425 4.5801,7.5026 1.6139,4.31836 1.6139,9.42187 z m -11.8645,-0.26171 q 0,-3.57683 -1.1778,-7.02279 -1.1341,-3.44596 -3.664,-5.67057 -2.53,-2.22461 -6.2377,-2.22461 -3.5332,0 -6.1067,2.18099 -2.53,2.18099 -3.7513,5.58333 -1.2214,3.35873 -1.2214,6.80469 0,3.70768 1.1341,7.15364 1.1778,3.44596 3.7077,5.67057 2.53,2.18099 6.4121,2.18099 2.7481,0 4.8418,-1.30859 2.0938,-1.35222 3.4024,-3.40235 1.3086,-2.09375 1.9628,-4.66731 0.698,-2.61719 0.698,-5.27799 z" />
  <path d="m 1284.3264,535.20993 0.2617,7.0664 q 5.3217,-7.76432 14.918,-7.76432 8.8984,0 11.9954,5.278 3.097,5.23437 3.097,14.74348 v 24.90689 h -11.4283 V 557.1943 q 0,-5.88867 -1.5267,-9.55273 -1.4831,-3.66406 -6.4994,-3.66406 -5.3652,0 -7.5462,4.31835 -2.181,4.27474 -2.181,10.16341 v 20.98111 h -11.472 v -28.13475 q 0,-9.37825 -0.4362,-16.0957 z" />
  <path d="m 1362.1005,579.44038 h -11.4284 v -35.46287 h -8.8548 v -8.50586 h 8.8548 q 0.087,-5.40885 0.4798,-8.54948 0.3926,-3.18424 2.0502,-5.97591 2.0501,-3.18424 5.5833,-4.62369 3.5768,-1.48307 7.7207,-1.48307 3.1406,0 6.1504,0.82877 l -0.6979,9.20377 q -1.7012,-0.56705 -3.4024,-0.56705 -2.8789,0 -4.3183,1.70117 -1.4395,1.65755 -1.7884,3.92578 -0.349,2.22461 -0.349,5.53971 h 10.0326 v 8.50586 h -10.0326 z" />
  <path d="m 1422.8628,557.71773 q 0,5.10352 -1.6575,9.37826 -1.6576,4.23111 -4.711,7.24088 -3.0097,2.96614 -7.2408,4.62369 -4.2312,1.65756 -9.4219,1.65756 -6.8483,0 -12.0391,-2.96615 -5.1907,-2.96614 -8.026,-8.375 -2.7917,-5.40885 -2.7917,-12.16991 0,-6.76107 2.8789,-11.99544 2.8789,-5.23437 8.0697,-8.11328 5.2344,-2.92252 11.9954,-2.92252 5.2344,0 9.4655,1.74479 4.2748,1.74479 7.2845,4.97265 3.0098,3.18425 4.5801,7.5026 1.6139,4.31836 1.6139,9.42187 z m -11.8646,-0.26171 q 0,-3.57683 -1.1777,-7.02279 -1.1341,-3.44596 -3.664,-5.67057 -2.53,-2.22461 -6.2377,-2.22461 -3.5332,0 -6.1067,2.18099 -2.53,2.18099 -3.7513,5.58333 -1.2214,3.35873 -1.2214,6.80469 0,3.70768 1.1341,7.15364 1.1777,3.44596 3.7077,5.67057 2.5299,2.18099 6.4121,2.18099 2.748,0 4.8418,-1.30859 2.0937,-1.35222 3.4023,-3.40235 1.3086,-2.09375 1.9629,-4.66731 0.6979,-2.61719 0.6979,-5.27799 z" />
  <path d="m 1443.7568,579.44038 h -11.4284 v -30.92642 q -0.2181,-11.0358 -0.349,-13.30403 h 10.3815 l 0.2617,11.16666 q 1.4831,-5.23437 4.4929,-8.37499 3.0534,-3.14063 7.9388,-3.14063 1.4831,0 3.3587,0.4362 v 10.73046 q -2.2682,-0.61067 -4.013,-0.61067 -4.0567,0 -6.4557,2.13737 -2.3991,2.13737 -3.3151,5.49609 -0.8724,3.3151 -0.8724,7.2845 v 0.8724 z" />
  <path d="m 1515.0314,569.97489 0.3926,8.94205 q -4.362,0.8724 -7.7207,0.8724 -5.627,0 -8.8984,-2.05013 -3.2715,-2.09375 -4.5801,-5.88867 -1.3086,-3.83854 -1.3086,-9.37825 v -18.49478 h -8.3314 v -8.50586 h 8.5059 v -8.98567 l 11.4283,-3.7513 v 12.73697 h 10.0762 v 8.50586 h -10.0762 v 16.09569 q 0,5.14714 1.0905,7.85156 1.1342,2.66081 5.4961,2.66081 1.614,0 3.9258,-0.61068 z" />
  <path d="m 1563.9292,579.44038 h -11.4284 v -21.46093 q 0,-6.36848 -1.3958,-10.1634 -1.3522,-3.83854 -6.4557,-3.83854 -5.4961,0 -7.7207,4.53645 -2.2247,4.49284 -2.2247,10.55599 v 2.22461 18.14582 h -11.4283 v -64.33917 h 11.4283 v 26.38997 q 2.4864,-3.57682 5.976,-5.32161 3.4895,-1.7448 7.9824,-1.7448 4.6673,0 7.6771,1.5267 3.0533,1.48307 4.6673,4.05664 1.6575,2.57356 2.2682,6.01952 0.6543,3.40235 0.6543,8.02604 z" />
  <path d="m 1610.7331,567.66304 0.1745,9.90169 q -7.0228,3.05339 -15.1797,3.05339 -5.4524,0 -9.7272,-1.5267 -4.2311,-1.57031 -7.2408,-4.58007 -3.0098,-3.05339 -4.5801,-7.32812 -1.5703,-4.31836 -1.5703,-9.81445 0,-5.0599 1.4394,-9.29102 1.4831,-4.27473 4.2311,-7.37174 2.7481,-3.14062 6.7611,-4.88541 4.0566,-1.74479 9.1602,-1.74479 4.9726,0 8.7675,1.78841 3.7949,1.78841 6.1504,4.92903 2.3991,3.14063 3.5768,7.2845 1.1778,4.10026 1.1778,9.0293 0,0.87239 -0.044,1.30859 -0.044,0.4362 -0.087,1.09049 -0.044,0.6543 -0.1309,1.5267 h -29.7487 q 0.4362,5.23437 4.0567,8.15689 3.664,2.92253 9.0729,2.92253 6.1067,0 13.7402,-4.44922 z m -7.7643,-14.569 q -0.087,-2.96615 -1.0905,-5.45247 -0.9596,-2.48633 -3.0097,-4.01302 -2.0065,-1.52669 -5.0163,-1.52669 -3.097,0 -5.3216,1.52669 -2.181,1.48307 -3.4024,3.9694 -1.1777,2.48632 -1.4394,5.49609 z" />
  <path d="m 1661.2885,553.61748 v 25.8229 h -12.1263 v -59.58461 h 33.0638 v 9.81445 h -21.0247 v 14.13281 h 20.1959 v 9.81445 z" />
  <path d="m 1731.4291,535.20993 v 27.00064 q 0.087,1.87565 0.1744,5.80143 0.1309,3.92578 0.2181,6.28125 0.087,2.35547 0.2618,5.14713 h -10.8177 l -0.349,-6.80468 q -1.5267,2.39908 -3.7077,4.05664 -2.1373,1.65755 -4.8418,2.57356 -2.7044,0.8724 -5.4088,0.8724 -6.1504,0 -9.5964,-2.52995 -3.4459,-2.52995 -4.7545,-6.93554 -1.265,-4.4056 -1.265,-10.51237 v -24.95051 h 11.4284 v 21.28645 q 0,4.14388 0.3926,7.02278 0.4362,2.83529 2.2246,4.97266 1.7884,2.09375 5.4088,2.09375 5.1908,0 7.1973,-4.36198 2.0065,-4.4056 2.0065,-10.29427 v -20.71939 z" />
  <path d="m 1768.3315,569.97489 0.3925,8.94205 q -4.3619,0.8724 -7.7207,0.8724 -5.6269,0 -8.8984,-2.05013 -3.2715,-2.09375 -4.5801,-5.88867 -1.3086,-3.83854 -1.3086,-9.37825 v -18.49478 h -8.3313 v -8.50586 h 8.5058 v -8.98567 l 11.4284,-3.7513 v 12.73697 h 10.0762 v 8.50586 h -10.0762 v 16.09569 q 0,5.14714 1.0905,7.85156 1.1341,2.66081 5.4961,2.66081 1.6139,0 3.9258,-0.61068 z" />
  <path d="m 1816.3132,535.20993 v 27.00064 q 0.087,1.87565 0.1745,5.80143 0.1309,3.92578 0.2181,6.28125 0.087,2.35547 0.2617,5.14713 h -10.8177 l -0.3489,-6.80468 q -1.5267,2.39908 -3.7077,4.05664 -2.1374,1.65755 -4.8418,2.57356 -2.7044,0.8724 -5.4089,0.8724 -6.1504,0 -9.5963,-2.52995 -3.446,-2.52995 -4.7546,-6.93554 -1.2649,-4.4056 -1.2649,-10.51237 v -24.95051 h 11.4283 v 21.28645 q 0,4.14388 0.3926,7.02278 0.4362,2.83529 2.2246,4.97266 1.7884,2.09375 5.4089,2.09375 5.1907,0 7.1972,-4.36198 2.0065,-4.4056 2.0065,-10.29427 v -20.71939 z" />
  <path d="m 1840.2604,579.44038 h -11.4284 v -30.92642 q -0.2181,-11.0358 -0.3489,-13.30403 h 10.3815 l 0.2617,11.16666 q 1.4831,-5.23437 4.4928,-8.37499 3.0534,-3.14063 7.9388,-3.14063 1.4831,0 3.3588,0.4362 v 10.73046 q -2.2683,-0.61067 -4.013,-0.61067 -4.0567,0 -6.4558,2.13737 -2.3991,2.13737 -3.3151,5.49609 -0.8724,3.3151 -0.8724,7.2845 v 0.8724 z" />
  <path d="m 1897.5332,567.66304 0.1745,9.90169 q -7.0228,3.05339 -15.1797,3.05339 -5.4525,0 -9.7272,-1.5267 -4.2311,-1.57031 -7.2409,-4.58007 -3.0098,-3.05339 -4.5801,-7.32812 -1.5703,-4.31836 -1.5703,-9.81445 0,-5.0599 1.4395,-9.29102 1.483,-4.27473 4.2311,-7.37174 2.748,-3.14062 6.7611,-4.88541 4.0566,-1.74479 9.1601,-1.74479 4.9727,0 8.7676,1.78841 3.7949,1.78841 6.1504,4.92903 2.3991,3.14063 3.5768,7.2845 1.1777,4.10026 1.1777,9.0293 0,0.87239 -0.044,1.30859 -0.044,0.4362 -0.087,1.09049 -0.044,0.6543 -0.1309,1.5267 h -29.7487 q 0.4362,5.23437 4.0567,8.15689 3.664,2.92253 9.0729,2.92253 6.1067,0 13.7402,-4.44922 z m -7.7643,-14.569 q -0.087,-2.96615 -1.0905,-5.45247 -0.9596,-2.48633 -3.0098,-4.01302 -2.0065,-1.52669 -5.0163,-1.52669 -3.097,0 -5.3216,1.52669 -2.181,1.48307 -3.4023,3.9694 -1.1777,2.48632 -1.4395,5.49609 z" />
  <path d="m 1948.5684,579.44038 h -12.0827 v -59.58461 h 12.0827 z" />
  <path d="m 1972.9518,535.20993 0.2617,7.0664 q 5.3216,-7.76432 14.918,-7.76432 8.8984,0 11.9954,5.278 3.097,5.23437 3.097,14.74348 v 24.90689 h -11.4284 V 557.1943 q 0,-5.88867 -1.5267,-9.55273 -1.483,-3.66406 -6.4993,-3.66406 -5.3652,0 -7.5462,4.31835 -2.181,4.27474 -2.181,10.16341 v 20.98111 h -11.472 v -28.13475 q 0,-9.37825 -0.4362,-16.0957 z" />
  <path d="m 2039.123,569.97489 0.3925,8.94205 q -4.3619,0.8724 -7.7207,0.8724 -5.6269,0 -8.8984,-2.05013 -3.2715,-2.09375 -4.5801,-5.88867 -1.3086,-3.83854 -1.3086,-9.37825 v -18.49478 h -8.3313 v -8.50586 h 8.5058 v -8.98567 l 11.4284,-3.7513 v 12.73697 h 10.0762 v 8.50586 h -10.0762 v 16.09569 q 0,5.14714 1.0905,7.85156 1.1341,2.66081 5.4961,2.66081 1.6139,0 3.9258,-0.61068 z" />
  <path d="m 2082.9172,567.66304 0.1745,9.90169 q -7.0228,3.05339 -15.1797,3.05339 -5.4524,0 -9.7272,-1.5267 -4.2311,-1.57031 -7.2409,-4.58007 -3.0097,-3.05339 -4.58,-7.32812 -1.5703,-4.31836 -1.5703,-9.81445 0,-5.0599 1.4394,-9.29102 1.4831,-4.27473 4.2311,-7.37174 2.7481,-3.14062 6.7611,-4.88541 4.0566,-1.74479 9.1601,-1.74479 4.9727,0 8.7676,1.78841 3.7949,1.78841 6.1504,4.92903 2.3991,3.14063 3.5768,7.2845 1.1778,4.10026 1.1778,9.0293 0,0.87239 -0.044,1.30859 -0.044,0.4362 -0.087,1.09049 -0.044,0.6543 -0.1309,1.5267 h -29.7486 q 0.4362,5.23437 4.0566,8.15689 3.6641,2.92253 9.0729,2.92253 6.1068,0 13.7402,-4.44922 z m -7.7643,-14.569 q -0.087,-2.96615 -1.0905,-5.45247 -0.9596,-2.48633 -3.0097,-4.01302 -2.0066,-1.52669 -5.0163,-1.52669 -3.097,0 -5.3216,1.52669 -2.181,1.48307 -3.4024,3.9694 -1.1777,2.48632 -1.4394,5.49609 z" />
  <path d="m 2106.9517,579.44038 h -11.4284 v -30.92642 q -0.2181,-11.0358 -0.3489,-13.30403 h 10.3815 l 0.2617,11.16666 q 1.4831,-5.23437 4.4928,-8.37499 3.0534,-3.14063 7.9388,-3.14063 1.4831,0 3.3588,0.4362 v 10.73046 q -2.2683,-0.61067 -4.0131,-0.61067 -4.0566,0 -6.4557,2.13737 -2.3991,2.13737 -3.3151,5.49609 -0.8724,3.3151 -0.8724,7.2845 v 0.8724 z" />
  <path d="m 2139.4921,535.20993 0.2617,7.0664 q 5.3216,-7.76432 14.918,-7.76432 8.8984,0 11.9954,5.278 3.097,5.23437 3.097,14.74348 v 24.90689 h -11.4284 V 557.1943 q 0,-5.88867 -1.5267,-9.55273 -1.483,-3.66406 -6.4993,-3.66406 -5.3653,0 -7.5462,4.31835 -2.181,4.27474 -2.181,10.16341 v 20.98111 h -11.472 v -28.13475 q 0,-9.37825 -0.4362,-16.0957 z" />
  <path d="m 2216.481,567.66304 0.1744,9.90169 q -7.0227,3.05339 -15.1796,3.05339 -5.4525,0 -9.7273,-1.5267 -4.2311,-1.57031 -7.2408,-4.58007 -3.0098,-3.05339 -4.5801,-7.32812 -1.5703,-4.31836 -1.5703,-9.81445 0,-5.0599 1.4394,-9.29102 1.4831,-4.27473 4.2311,-7.37174 2.7481,-3.14062 6.7611,-4.88541 4.0566,-1.74479 9.1602,-1.74479 4.9726,0 8.7675,1.78841 3.795,1.78841 6.1504,4.92903 2.3991,3.14063 3.5768,7.2845 1.1778,4.10026 1.1778,9.0293 0,0.87239 -0.044,1.30859 -0.044,0.4362 -0.087,1.09049 -0.044,0.6543 -0.1308,1.5267 h -29.7487 q 0.4362,5.23437 4.0566,8.15689 3.6641,2.92253 9.0729,2.92253 6.1068,0 13.7403,-4.44922 z m -7.7644,-14.569 q -0.087,-2.96615 -1.0905,-5.45247 -0.9596,-2.48633 -3.0097,-4.01302 -2.0065,-1.52669 -5.0163,-1.52669 -3.097,0 -5.3216,1.52669 -2.181,1.48307 -3.4024,3.9694 -1.1777,2.48632 -1.4394,5.49609 z" />
  <path d="m 2253.4705,569.97489 0.3926,8.94205 q -4.362,0.8724 -7.7207,0.8724 -5.627,0 -8.8985,-2.05013 -3.2714,-2.09375 -4.58,-5.88867 -1.3086,-3.83854 -1.3086,-9.37825 v -18.49478 h -8.3314 v -8.50586 h 8.5059 v -8.98567 l 11.4283,-3.7513 v 12.73697 h 10.0762 v 8.50586 h -10.0762 v 16.09569 q 0,5.14714 1.0905,7.85156 1.1341,2.66081 5.4961,2.66081 1.614,0 3.9258,-0.61068 z" />
</svg>
