<?xml version="1.0" encoding="UTF-8" standalone="no"?>
<!DOCTYPE svg PUBLIC "-//W3C//DTD SVG 1.1//EN" "http://www.w3.org/Graphics/SVG/1.1/DTD/svg11.dtd">
<svg width="224" height="61" viewBox="0 0 224 61" xmlns="http://www.w3.org/2000/svg">
  <path fill="#0054a7" d="m 130.7998,3.3283628 c 0.1,0.1 0.19883,0.0992 0.29883,0.19922 l -6.39844,12.5996102 c -3,-2.5 -6.80078,-4.09961 -10.80078,-4.09961 -3,0 -7,1.69922 -7,5.19922 0,3.6 4.40078,5.00039 7.30078,5.90039 l 4.19922,1.20117 c 8.6,2.6 15.40039,7.09961 15.40039,17.09961 0,5.7 -1.5,12.09922 -5.5,16.19922 h 92.40039 V 3.3283628 Z m 11.29883,5 30.30078,31.7988302 v -29.90039 h 5 v 42.10156 l -30.30078,-31.80078 v 30.09961 h -5 z m 45.60156,1.8984402 h 19.5 v 4.60156 h -14.5 v 11.39844 h 14 v 4.60156 h -14 v 19.79883 h -5 z" />
  <path fill="#b5b5b6" d="M 3.2998075,3.3283628 V 57.627193 H 87.598632 l 6.90039,-13.69922 c 4,3.6 8.800388,6.40039 14.400388,6.40039 3.9,0 8,-1.90078 8,-6.30078 0,-4.5 -6.4,-6.09961 -10,-7.09961 -10.099998,-2.9 -16.800778,-5.49961 -16.800778,-17.59961 0,-6.8 2.60039,-12.3000002 6.90039,-16.0000002 z M 87.598632,57.627193 c 0,0 0.10117,0.1 0.20117,0 z M 46.700198,8.3283628 76.999026,40.127193 v -29.90039 h 4.999996 v 42.10156 L 51.700198,20.527583 v 30.09961 h -5 z M 18.598635,10.226803 h 19.5 v 4.60156 h -14.5 v 11.39844 h 14.101563 v 4.60156 H 23.598635 v 19.79883 h -5 z" />
</svg>
