<?xml version="1.0" encoding="UTF-8" standalone="no"?>
<!DOCTYPE svg PUBLIC "-//W3C//DTD SVG 1.1//EN" "http://www.w3.org/Graphics/SVG/1.1/DTD/svg11.dtd">
<svg width="100" height="68" viewBox="0 0 100 68" xmlns="http://www.w3.org/2000/svg">
  <path fill="#366092" d="M 47.19922,1.4003909 45.59961,21.900389 H 37.40039 L 36.19922,8.0996099 H 33.79883 L 32.59961,21.900389 h -9 v 5 H 15.37305 V 12.425782 h -0.79297 v -0.0059 H 12.59961 V 10.09961 c 0,-1.3487881 -1.39037,-2.0279501 -3.84961,-2.0312501 -2.45924,-0.0033 -3.84961,0.67193 -3.84961,2.0312501 v 16.800779 h -3.5 v 39.69922 h 97.19922 v -39 l -3.19922,-5.69922 -8.30078,5.19922 h -1.19922 l -3.30078,-5.40039 -9,5.40039 h -1.19922 l -3,-5 -8.80078,5.22656 v -5.42578 h -8.5 L 50.5,1.4003909 Z M 12.59961,14.179688 h 1.02734 v 12.720701 h -1.02734 z m 15.52734,24.427731 c 1.39301,0 2.50601,0.298071 3.32422,0.91016 0.82257,0.6055 1.31836,1.75636 1.31836,2.80664 v 0.35547 H 30.6875 l -0.006,-0.14258 c -0.0283,-0.61073 -0.33268,-1.35124 -0.7832,-1.67383 h -0.002 c -0.44433,-0.32769 -1.0835,-0.50195 -1.93165,-0.50195 -0.88257,0 -1.56937,0.1928 -2.07617,0.56445 h -0.002 c -0.50053,0.36555 -0.73633,0.83278 -0.73633,1.45117 0,0.37718 0.20656,0.71647 0.67774,1.04102 0.47117,0.32455 1.20035,0.61722 2.18164,0.86328 0.28113,0.0718 0.49611,0.12456 0.64453,0.16016 h 0.002 0.002 c 1.78248,0.45766 2.96777,0.95639 3.57813,1.54687 0.60172,0.57638 0.90039,1.39112 0.90039,2.40821 0,1.29885 -0.46652,2.34214 -1.38672,3.08203 -0.91424,0.73947 -2.17635,1.10156 -3.76758,1.10156 -1.71988,0 -3.0148,-0.32035 -3.875,-0.99219 -0.85438,-0.6722 -1.27929,-1.71782 -1.27929,-3.08398 v -0.32813 h 2.0371 0.14454 l 0.004,0.14453 c 0.029,0.83491 0.27554,1.42159 0.72852,1.80274 0.45819,0.3809 1.1815,0.58592 2.18554,0.58594 0.97381,-2e-5 1.72586,-0.20027 2.26758,-0.58399 0.54182,-0.38943 0.79883,-0.89398 0.79883,-1.56641 0,-0.45523 -0.2213,-0.84798 -0.71094,-1.21093 -0.48963,-0.36296 -1.24663,-0.678849 -2.26562,-0.9336 -0.23958,-0.06 -0.41932,-0.10486 -0.53906,-0.13476 v -0.002 h -0.002 c -0.1132,-0.0298 -0.28608,-0.0749 -0.51953,-0.13476 -1.17235,-0.28872 -1.99158,-0.56557 -2.47461,-0.85156 -0.47116,-0.2827 -0.84577,-0.673319 -1.11523,-1.16211 v -0.002 c -0.26326,-0.49518 -0.39453,-1.0417 -0.39453,-1.63281 0,-1.1888 0.47308,-2.15599 1.39843,-2.85156 0.92582,-0.69592 2.18294,-1.035159 3.75586,-1.035159 z m 7.26172,0.197271 h 8.60742 v 1.890619 h -6.5371 v 3.759771 h 5.62304 v 1.88086 h -5.62304 v 6.019529 h -2.07032 z m 35.20508,0.20703 c 0.78971,0 1.49784,0.18285 2.11524,0.55078 0.61704,0.36152 1.11555,0.88528 1.49218,1.56445 v 0.002 c 0.29091,0.53229 0.4971,1.16169 0.61914,1.88672 v 0.002 c 0.12836,0.72802 0.18946,1.73922 0.18946,3.04297 0,2.14278 -0.34966,3.76063 -1.07618,4.85351 -0.72054,1.09234 -1.83685,1.64844 -3.2871,1.64844 -1.49775,0 -2.63816,-0.55771 -3.35938,-1.6582 -0.7151,-1.10063 -1.05859,-2.77577 -1.05859,-5.03125 0,-1.34151 0.0788,-2.38806 0.23828,-3.14844 0.15894,-0.75804 0.41929,-1.4133 0.78515,-1.95898 h 0.002 c 0.40088,-0.57975 0.87929,-1.0207 1.43554,-1.31446 h 0.002 c 0.5621,-0.29353 1.19891,-0.43945 1.90234,-0.43945 z m -14.76367,0.22461 h 2.26758 v 8.53516 h 1.72656 v 1.826169 h -1.72656 v 2.75781 h -2.01563 v -2.75781 h -5.8125 v -2.44336 z m 14.78125,1.5293 c -0.77439,0 -1.32235,0.38024 -1.70703,1.20703 v 0.002 c -0.38444,0.82051 -0.58789,2.11731 -0.58789,3.87891 0,1.75574 0.20108,3.03376 0.57812,3.8164 0.37687,0.77657 0.93174,1.13672 1.73438,1.13672 0.78819,0 1.3329,-0.37234 1.70508,-1.17969 0.37787,-0.80728 0.58007,-2.11808 0.58007,-3.91601 0,-1.7194 -0.20424,-2.98533 -0.58789,-3.78125 -0.38369,-0.796011 -0.93229,-1.16406 -1.71484,-1.16406 z m -14.5293,0.9707 -3.98242,6.03516 h 3.98242 z m 5.60352,8.05664 h 2.30468 v 2.5625 h -2.30468 z" />
</svg>
